<svg width="46" height="92" viewBox="0 0 46 92" fill="none" xmlns="http://www.w3.org/2000/svg"><g clip-path="url(#clip0_228_34316)"><path d="M33.67 68.36c.05.22.28.36.51.3a.42.42 0 00.3-.51.43.43 0 00-.51-.31.42.42 0 00-.3.51v.01zM32.97 65.9c.04.13.17.22.3.18.14-.03.22-.17.2-.3a.26.26 0 00-.32-.19.25.25 0 00-.18.31zM31.4 72.59c.02.13.17.21.3.18a.26.26 0 00.19-.3.26.26 0 00-.31-.2.24.24 0 00-.18.31zM28.67 70.38a.44.44 0 10.85-.22.45.45 0 00-.53-.32.44.44 0 00-.32.54zM31 67.08c.02.1.13.18.24.15a.2.2 0 00.15-.25.2.2 0 00-.25-.15.2.2 0 00-.15.25zM44.54 69.07c.06.24.3.37.54.32.24-.06.37-.3.32-.54a.44.44 0 00-.54-.32.44.44 0 00-.3.54h-.02zM43.29 26.05c.11.2.37.28.59.18.2-.12.29-.38.17-.6a.44.44 0 00-.59-.18.44.44 0 00-.17.6zM41.97 23.76c.07.13.22.17.36.1a.27.27 0 00.1-.35c-.07-.12-.22-.18-.35-.1a.26.26 0 00-.1.35zM42.07 30.86c.07.13.22.17.35.1a.26.26 0 00.1-.34c-.07-.13-.23-.18-.35-.1a.25.25 0 00-.1.35zM38.78 29.34c.12.22.4.3.62.19.22-.13.3-.4.18-.63a.45.45 0 00-.6-.18c-.23.12-.31.4-.2.62zM40.29 25.44c.05.1.18.14.28.08.1-.04.14-.18.09-.28a.22.22 0 00-.29-.08.2.2 0 00-.08.28zM28.87 32.75a.44.44 0 00-.38.48c.03.23.24.41.48.39a.43.43 0 00.38-.48.44.44 0 00-.48-.39zM31.48 32.4a.26.26 0 00-.23.3c.02.14.14.25.28.23.15-.01.26-.14.24-.3a.27.27 0 00-.29-.23zM24.9 29.78a.26.26 0 00-.24.29c.02.14.15.24.3.23a.25.25 0 00.23-.28.26.26 0 00-.29-.23zM27.54 27.32a.46.46 0 10.1.9.46.46 0 00.4-.5.46.46 0 00-.5-.4zM30.57 30.2a.22.22 0 00-.19.24c.02.11.12.2.23.18a.2.2 0 00.19-.23.2.2 0 00-.24-.19h.01zM20.3 33.18a.35.35 0 00-.3.38c.01.18.19.32.37.3.2-.02.33-.19.3-.38a.36.36 0 00-.38-.31zM22.36 32.9a.2.2 0 00-.18.23c.01.11.11.2.22.18.12 0 .2-.1.2-.22a.21.21 0 00-.23-.19zM17.15 30.83a.21.21 0 00-.18.23c0 .1.11.2.22.19.11-.02.2-.12.18-.23a.2.2 0 00-.22-.18v-.01zM19.25 28.87c-.2.02-.34.2-.32.4.02.2.2.35.4.32.2-.02.33-.2.31-.4a.37.37 0 00-.4-.32zM21.64 31.16c-.09.01-.16.09-.14.18 0 .1.1.15.18.15.1-.01.15-.1.14-.19 0-.09-.09-.15-.18-.14zM22.56 42.55a.34.34 0 00-.3.37c.01.2.18.33.37.32a.34.34 0 00.3-.38.35.35 0 00-.38-.3v-.01zM24.62 42.28a.21.21 0 00-.18.22c.01.12.11.2.23.19a.2.2 0 00.18-.24c-.01-.1-.12-.18-.23-.17zM19.41 40.2a.2.2 0 00-.18.23c.01.11.1.2.23.19.11-.01.2-.12.18-.24a.2.2 0 00-.23-.18zM21.5 38.25c-.2.02-.33.2-.31.39.02.2.2.34.4.33.2-.03.33-.2.31-.4a.36.36 0 00-.4-.32zM23.9 40.54a.17.17 0 00-.15.18c.01.1.1.16.18.15.1-.02.16-.1.15-.19 0-.08-.09-.16-.18-.14zM25.88 52.86c-.19.03-.32.2-.3.38.02.19.19.32.37.3a.35.35 0 00.31-.38.36.36 0 00-.38-.3zM27.95 52.6c-.11 0-.2.1-.18.22 0 .11.11.2.22.2.12-.02.2-.13.19-.24a.21.21 0 00-.23-.19zM22.74 50.51a.2.2 0 00-.19.23c.01.11.11.2.23.18a.2.2 0 00.18-.22.2.2 0 00-.23-.19zM24.83 48.57c-.2.01-.34.2-.32.4a.36.36 0 10.72-.09.35.35 0 00-.4-.31zM27.23 50.84c-.1.02-.16.1-.15.19 0 .1.1.16.18.15.09-.01.16-.1.15-.19-.01-.09-.09-.16-.18-.15zM29.82 61.09a.42.42 0 00.8.22.42.42 0 00-.28-.51.42.42 0 00-.52.29zM30.44 58.6c-.04.14.04.28.18.32.13.03.27-.04.3-.18a.25.25 0 00-.17-.3c-.14-.04-.28.03-.31.16zM25.74 63.6c-.03.14.05.28.18.31.13.04.27-.04.3-.17a.25.25 0 00-.17-.3.24.24 0 00-.3.16zM24.47 60.33c-.07.23.07.48.3.55.24.06.49-.07.55-.31a.45.45 0 00-.3-.55.44.44 0 00-.55.3v.01zM28.14 58.64a.2.2 0 00.14.24.2.2 0 00.25-.13.2.2 0 00-.15-.25c-.1-.03-.21.04-.24.14z" fill="#D72792"/><path d="M29.58 27.05l.18.08.54.23.81.38 1.03.52a30.97 30.97 0 012.46 1.42c.43.28.88.56 1.33.88a64.45 64.45 0 012.6 1.9l1.2 1c.39.31.74.64 1.08.94.35.32.65.61.94.9a26.57 26.57 0 011.68 1.77l.12.14-.16-.11-.45-.33-.7-.51-.91-.66-1.07-.79-1.19-.87-1.26-.92-1.3-.94-1.31-.95c-.44-.3-.85-.61-1.26-.9-.42-.29-.8-.58-1.19-.84l-1.04-.75-.88-.64-.67-.5-.42-.32-.15-.12-.01-.01z" fill="#00D0E0"/><path d="M42.62 23.16l.05.2.17.6c.13.51.33 1.25.54 2.14l.35 1.43.38 1.6.38 1.71.4 1.78.38 1.77.36 1.72.62 3.06.41 2.17c.06.27.09.47.11.61l.04.22-.07-.22c-.03-.13-.1-.33-.16-.59l-.57-2.13c-.23-.88-.5-1.91-.76-3.02l-.4-1.7-.4-1.78c-.14-.6-.28-1.19-.4-1.77l-.35-1.73-.32-1.61c-.1-.52-.2-1-.27-1.45-.16-.9-.27-1.66-.37-2.18a66.37 66.37 0 00-.12-.83z" fill="#D72792"/><path d="M57.97 25.55l-.1.14-.3.42-1.09 1.5-1.56 2.14c-.28.4-.56.8-.87 1.2l-.9 1.28-.88 1.28-.84 1.25c-.55.81-1.05 1.58-1.48 2.24l-1.05 1.6-.3.46-.1.15.06-.16c.04-.11.1-.28.19-.47a31.55 31.55 0 012.72-5.26 44.62 44.62 0 012.69-3.8 33.5 33.5 0 013.8-3.98z" fill="#205EA3"/><path d="M46.36 53.66l-.02.2-.06.57c-.06.5-.12 1.2-.2 2.06l-.1 1.38c-.05.49-.08 1-.12 1.53a79.36 79.36 0 00-.16 3.32 93.03 93.03 0 00-.07 3.31l.02 2.88c.02.85.04 1.54.07 2.03l.02.57v.2l-.02-.2a8.03 8.03 0 01-.06-.55l-.17-2.02c-.05-.84-.1-1.81-.12-2.88l-.02-1.62a56.33 56.33 0 01.22-5.02 85.85 85.85 0 01.32-2.9c.12-.86.24-1.57.33-2.06l.1-.58.04-.2v-.02z" fill="#D72792"/><path d="M47.45 65.08s.02.05.02.15l.08.41.2 1.48.26 2.08.13 1.18c.05.4.1.8.13 1.2.04.41.1.82.13 1.22l.13 1.17.21 2.07.15 1.48.03.4.01.15-.04-.14-.11-.4a40.7 40.7 0 01-.74-3.5c-.06-.37-.13-.76-.18-1.16l-.16-1.2a29.5 29.5 0 01-.23-2.4 38.42 38.42 0 01-.07-3.62c0-.18.01-.33.03-.42v-.16l.02.01z" fill="#3492EF"/><path d="M44.47 49.58l-.1.23-.31.65-.48 1.03-.6 1.32c-.22.5-.45 1.02-.68 1.58a98.4 98.4 0 00-.72 1.78c-.24.61-.48 1.26-.72 1.92a51.96 51.96 0 00-1.31 3.99c-.2.66-.39 1.3-.55 1.94l-.47 1.82-.38 1.64c-.12.5-.21.96-.3 1.38l-.22 1.08-.13.68-.04.25.01-.25.06-.69c.02-.3.05-.66.1-1.08.06-.41.11-.88.19-1.39a54.76 54.76 0 01.65-3.5 55.7 55.7 0 011.8-5.98c.23-.66.5-1.3.76-1.92a42.37 42.37 0 011.6-3.33c.25-.48.5-.92.71-1.3l.6-.98c.16-.28.3-.49.4-.63l.14-.23z" fill="#00D0E0"/><path d="M40.74 49.66l-.15.17-.43.48-.67.74-.85.98-1 1.16-1.07 1.33-1.13 1.45-1.12 1.53-1.08 1.56c-.35.53-.69 1.04-1 1.55a76.4 76.4 0 00-2.37 3.96l-.5.9-.32.57-.1.2.08-.21.24-.6a46.56 46.56 0 01.96-2.15c.21-.43.45-.9.71-1.38.26-.49.54-1 .85-1.52.3-.52.63-1.05.97-1.6a41.93 41.93 0 013.38-4.55c.38-.47.78-.9 1.14-1.3.37-.4.74-.78 1.08-1.12.34-.33.65-.65.94-.9l.76-.69.5-.42.18-.14z" fill="#205EA3"/><path d="M32.1 68.28s.25-.92.74-2.27l.4-1.1a86.93 86.93 0 011.05-2.48l.61-1.3a46.1 46.1 0 012.65-4.63c.8-1.22 1.4-2 1.4-2l-1.24 2.07c-.37.62-.79 1.35-1.23 2.14l-.65 1.23c-.23.41-.44.85-.66 1.28l-.63 1.3a130.5 130.5 0 00-1.1 2.45c-.17.38-.33.73-.46 1.07-.56 1.33-.9 2.24-.9 2.24h.02z" fill="#D72792"/><path d="M22.54 62.54l.2-.26.58-.73a47.24 47.24 0 015.34-5.6 48.37 48.37 0 013.92-3.16c.69-.5 1.39-.96 2.08-1.42a40.95 40.95 0 015.86-3.14 39.78 39.78 0 013.55-1.36l.28-.1-.27.1c-.18.08-.44.2-.78.32a48.97 48.97 0 00-6.46 3.2c-.67.38-1.35.81-2.05 1.25a53.71 53.71 0 00-11.44 9.97c-.27.3-.47.52-.6.69-.14.15-.21.25-.21.25v-.01z" fill="#205EA3"/><path d="M19 58.37l.18-.2.54-.53a38.44 38.44 0 014.81-3.99c.54-.37 1.08-.75 1.65-1.11a38.65 38.65 0 013.51-2 31.96 31.96 0 016.08-2.42c.38-.1.7-.2.97-.26a17.04 17.04 0 01.85-.2l-.22.07-.61.25-.96.38-1.23.51c-.45.2-.94.41-1.45.65-.52.23-1.06.5-1.62.76-.56.27-1.12.57-1.7.87-.59.32-1.17.63-1.75.97-.59.32-1.16.67-1.74 1.02-.56.36-1.12.7-1.65 1.05a87.37 87.37 0 00-4.04 2.88l-.88.67-.56.44-.2.16.02.03z" fill="#00D0E0"/><path d="M18.27 52.58l.26-.16.71-.45c.62-.36 1.52-.9 2.6-1.44a40.26 40.26 0 015.81-2.5A50.74 50.74 0 0132 46.76a37.85 37.85 0 018.47-1.1h1l-.27.02c-.17.01-.42.02-.74.06a54.43 54.43 0 00-8.5 1.36 56.14 56.14 0 00-6.46 2.05 61.74 61.74 0 00-6.28 2.92l-.72.4-.25.13.01-.02z" fill="#D72792"/><path d="M19.58 45.48l.14-.05.38-.15c.33-.1.79-.25 1.34-.38a19.8 19.8 0 012.89-.55c.35-.04.7-.08 1.06-.1.35-.04.7-.06 1.04-.07.34-.02.68-.02 1-.02.64 0 1.23.02 1.73.07l1.19.14.32.06.12.02s-.05.02-.14.02l-.37.05-1.3.15-1.83.16-1.02.1-1.04.1-1.04.1-1.01.1-1.76.14-1.23.1h-.46z" fill="#3492EF"/><path d="M27.6 40.67l.2-.02.55-.05a30.78 30.78 0 014.67.03 29.53 29.53 0 012.99.34 57.42 57.42 0 012.87.57 30.18 30.18 0 014.61 1.5l-.17-.04-.5-.12-1.8-.37a115.6 115.6 0 00-3.94-.73l-1.49-.23c-.5-.08-1-.15-1.48-.2l-1.44-.19-2.58-.27-1.8-.17-.52-.04-.18-.03v.02z" fill="#00D0E0"/><path d="M22.02 36.23h.27l.75.03a50.9 50.9 0 016.4.73c.66.13 1.34.26 2.03.42a43.65 43.65 0 014.1 1.13 44.55 44.55 0 015.23 2.02c.96.43 1.71.82 2.25 1.1.27.14.48.24.62.33l.21.11-.23-.1a62.67 62.67 0 00-10.36-3.73 49.08 49.08 0 00-4.08-.96 58.9 58.9 0 00-3.62-.64 55.39 55.39 0 00-2.6-.33l-.72-.08-.26-.04z" fill="#D72792"/><path d="M29.47 33.23l.1.01.27.04a15.59 15.59 0 012.8.8l.65.28.63.3a13.35 13.35 0 011.56.95c.28.2.5.38.64.5.08.06.13.12.17.16l.05.04-.09-.01-.26-.06-.88-.27a31.5 31.5 0 01-1.18-.42l-.64-.26-.65-.28-.64-.3a14.74 14.74 0 01-1.62-.86 9.68 9.68 0 01-.68-.44c-.08-.05-.13-.1-.17-.14l-.06-.05zM43.47 56.43l-.01.11-.02.33a75.1 75.1 0 01-.3 2.78l-.1.9-.13.96-.13.94-.13.91-.24 1.62-.19 1.15-.06.32-.02.1-.02-.1-.02-.33c-.01-.28-.04-.67-.03-1.14a20.33 20.33 0 01.11-2.55l.11-.94.13-.96a22.29 22.29 0 01.54-2.54c.13-.48.26-.87.35-1.15l.1-.32.05-.12v.03z" fill="#3492EF"/><path d="M48.86 19.4s-3.53 9.81-1.27 19.22c0 0-3.98-11.23 1.27-19.22z" fill="#00D0E0"/><path d="M24.96 19.6s12.24 2.92 18.2 16.04c0 0-5.42-14.48-18.2-16.03zM37.35 60.2s-4.71 8.55-2.85 16.98c0 0-.19-11.78 2.85-16.98z" fill="#3492EF"/><path d="M29.7 59.34s-6.75 7.09-5.08 16.83c0 0-.45-9.44 5.08-16.83z" fill="#00D0E0"/><path d="M23.65 72.63l-.5-1.89.98 1.77.23-1.89.27 2.2s1.22-1.43 1.3-1.6c.1-.16-.78 2.33-.78 2.33l2.47-1.48-2.03 2.08 2.55-.13-2.47.66 1.5 1.14-1.55-.52 2.07 2.42L25.06 76l.33 1.23-.83-1.18-.07 3.54-.59-3.28-.67 1.47.48-2.04-2.5 2.49 2.45-2.85-4.05 1.63 3.69-1.9-2.57.07 2-.34-.92-1 1.52.47-2.4-3.15 2.72 2.49-.62-1.32.63.3h-.01z" fill="#38E8F6"/><path d="M21.96 34.98l-.26-.96.5.9.13-.96.13 1.11s.62-.72.66-.8c.05-.09-.4 1.18-.4 1.18l1.26-.76-1.04 1.06 1.3-.07-1.25.34.76.58-.79-.26 1.05 1.23-1.34-.88.18.63-.43-.6-.04 1.79-.3-1.66-.34.75.25-1.03-1.27 1.27 1.24-1.46-2.06.82 1.88-.97-1.31.05 1.02-.18-.48-.5.78.24-1.23-1.61 1.4 1.27-.33-.67.32.15zM45.64 71.19l-.22-.82.43.76.1-.8.11.94s.53-.61.57-.69l-.34 1 1.08-.64-.88.9 1.1-.05-1.06.28.64.5-.67-.23.9 1.05-1.14-.75.14.53-.36-.5-.04 1.52-.25-1.42-.29.64.21-.88-1.08 1.08 1.06-1.23-1.75.7 1.59-.83-1.11.04.87-.16-.4-.42.66.2-1.04-1.36 1.17 1.07-.27-.58.27.13v.02z" fill="#FF808C"/><path d="M48.41 45.29s-1.06-4.89 6.6-10.07c0 0-7.22 2-6.6 10.07zM42.95 31.34s-4.03-9.73-7.6-11.19c0 0 5.46 1.2 7.6 11.19zM44.05 45.67s-4.29-2.26-10.96-1.3c0 0 6.1-2.4 10.96 1.3zM40.33 38.67s3.53 1.14 5.46 5.43c0 0-1.94-5.9-5.46-5.43z" fill="#00D0E0"/><path d="M23.13 60.6l-.27-.98.52.92.11-.98.14 1.13s.64-.73.69-.82c.04-.08-.42 1.2-.42 1.2l1.29-.76-1.06 1.08 1.33-.07-1.28.34.78.59-.8-.27 1.06 1.25-1.36-.89.18.64-.44-.6-.04 1.82-.3-1.7-.35.76.25-1.04-1.3 1.28 1.27-1.47-2.09.84 1.9-.98-1.32.03 1.03-.17-.47-.51.78.23-1.24-1.63 1.4 1.3-.31-.7.32.17v-.01zM25.01 18.08l-.43-1.62.85 1.52.2-1.62.22 1.88s1.05-1.21 1.13-1.36c.07-.14-.68 2-.68 2l2.13-1.28-1.74 1.79 2.2-.12-2.13.57 1.29.98-1.34-.44 1.78 2.08-2.26-1.48.29 1.05-.72-1.01-.05 3.03-.51-2.81-.58 1.26.41-1.75-2.15 2.14 2.1-2.45-3.47 1.4 3.16-1.64-2.2.06 1.72-.28-.8-.85 1.31.4-2.07-2.72L25 18.95l-.53-1.13.53.26z" fill="#3492EF"/></g><defs><clipPath id="clip0_228_34316"><path fill="#fff" transform="rotate(-20.48 69.85 11.9)" d="M0 0h72v71H0z"/></clipPath></defs></svg>