<svg width="52" height="103" viewBox="0 0 52 103" fill="none" xmlns="http://www.w3.org/2000/svg"><g filter="url(#filter0_d_228_14199)"><path d="M3 5.73A4.94 4.94 0 017.94.8h35.5a4.94 4.94 0 014.95 4.94v86.03a4.94 4.94 0 01-4.94 4.94H7.95A4.94 4.94 0 013 91.76V5.73z" fill="url(#paint0_linear_228_14199)"/><path d="M4.5 6.32a3.95 3.95 0 013.96-3.95h34.5a3.95 3.95 0 013.96 3.95V91.3a3.95 3.95 0 01-3.95 3.96H8.46a3.95 3.95 0 01-3.96-3.96V6.32z" fill="#F3F4F7"/><path d="M28.22 7.62h-.3V7.5a.32.32 0 01-.28.16c-.26 0-.35-.2-.35-.39v-.58h.32v.51c0 .1.02.2.14.2.1 0 .16-.1.16-.2v-.51h.31v.94zM27.07 7.62h-.31v-.51c0-.1-.03-.2-.14-.2-.11 0-.17.1-.17.2v.51h-.31v-.94h.3v.13a.32.32 0 01.28-.16c.26 0 .35.2.35.39v.58zM25.26 7.04h.4c0-.1-.06-.18-.19-.18-.12 0-.2.09-.21.18zm.68.12v.08h-.68c0 .1.11.17.22.17.1 0 .17-.04.21-.1l.22.14c-.1.13-.24.2-.43.2-.28 0-.52-.18-.52-.5 0-.3.22-.5.51-.5.28 0 .47.19.47.51zM24.75 7.62h-.32l.01-.95-.35.95h-.23l-.34-.95v.95h-.3V6.28h.46l.3.86H24l.3-.86h.46v1.34z" fill="#38393B"/><path d="M44.34 6.8a1.44 1.44 0 11-2.88 0 1.44 1.44 0 012.88 0zm-.3 0a1.13 1.13 0 10-2.27 0 1.13 1.13 0 002.26 0z" fill="#6B6D72"/><path d="M43.07 6.9c-.05.1-.02.21-.2.2-.06 0-.1-.03-.1-.09a.74.74 0 01-.01-.24c0-.03.01-.05.03-.06.05-.04.11-.08.18-.1.15-.08.01-.25-.11-.22a.07.07 0 00-.04.03l-.09.14a.08.08 0 01-.05.03c-.1.03-.16 0-.19-.06-.08-.17.12-.37.25-.41a.43.43 0 01.4.04c.25.17.28.58-.03.7a.07.07 0 00-.04.04zM42.9 7.53a.15.15 0 100-.3.15.15 0 000 .3z" fill="#6B6D72"/><rect x="7.73" y="11.77" width="35.97" height="3.55" rx="1.77" fill="#E4E7E9"/><path d="M35.25 14.03v-1.27h.2v1.27h-.2zM34.8 14.03v-1.27h.2v1.27h-.2zM33.47 14.03l.52-1.19h.18l.52 1.2h-.25l-.1-.28h-.52l-.11.27h-.24zm.42-.45h.37l-.18-.48-.2.48z" fill="#38393B"/><rect x="7.73" y="11.77" width="19.25" height="3.55" rx="1.77" fill="url(#paint1_linear_228_14199)"/><path d="M20.93 13.33l-.13.11a.23.23 0 00-.18-.09c-.06 0-.13.03-.13.1 0 .05.06.07.17.1.12.03.26.08.26.24 0 .2-.15.27-.33.27a.45.45 0 01-.33-.14l.13-.12c.04.06.12.1.2.1.07 0 .14-.02.14-.1 0-.06-.07-.08-.19-.11s-.24-.08-.24-.23c0-.18.16-.26.32-.26.12 0 .24.04.3.13zM19.8 13.39h-.13v-.16h.14v-.24h.2v.24h.2v.16H20v.37c0 .08.01.13.1.13.03 0 .06 0 .09-.02v.16a.42.42 0 01-.13.02c-.21 0-.26-.13-.26-.29v-.37zM19.54 13.23v.8h-.2v-.13a.27.27 0 01-.24.16c-.21 0-.3-.16-.3-.33v-.5h.2v.44c0 .1.02.22.15.22s.19-.11.19-.22v-.44h.2zM18.67 13.33l-.13.12a.21.21 0 00-.17-.08c-.15 0-.22.13-.22.26s.07.26.23.26c.06 0 .13-.03.17-.07l.12.12a.4.4 0 01-.3.12c-.23 0-.43-.16-.43-.43 0-.26.2-.43.43-.43a.4.4 0 01.3.13zM17.44 13.39h-.14v-.16h.14v-.24h.2v.24h.2v.16h-.2v.37c0 .08.01.13.1.13.03 0 .06 0 .09-.02v.16a.42.42 0 01-.13.02c-.21 0-.26-.13-.26-.29v-.37zM16.82 14.03v-.8h.2v.13a.26.26 0 01.28-.15v.18h-.06c-.18 0-.22.15-.22.21v.43h-.2zM15.75 13.63c0-.26.2-.43.44-.43s.43.17.43.43c0 .25-.19.43-.43.43a.42.42 0 01-.44-.43zm.2 0c0 .12.08.26.24.26.16 0 .23-.14.23-.26 0-.13-.07-.26-.23-.26s-.24.13-.24.26zM15.26 13.2c.21 0 .3.16.3.33v.5h-.2v-.44c0-.1-.02-.21-.15-.21s-.2.1-.2.21v.44h-.2v-1.27h.2v.58h.01a.27.27 0 01.24-.14zM14.6 12.94l-.13.15a.3.3 0 00-.22-.1c-.1 0-.21.05-.21.16s.09.14.22.19c.16.04.35.11.35.34 0 .26-.2.38-.43.38a.54.54 0 01-.41-.17l.15-.14c.06.08.17.13.26.13.1 0 .22-.04.22-.17s-.13-.16-.28-.2c-.14-.05-.3-.13-.3-.35 0-.24.22-.35.44-.35.12 0 .25.05.34.13z" fill="#fff"/><g filter="url(#filter1_d_228_14199)"><rect x="6.38" y="18.27" width="18.7" height="14.11" rx=".84" fill="#fff" shape-rendering="crispEdges"/><path d="M18.1 23.05h-2.79c-.16 0-.25-.13-.23-.28.01-.15.12-.23.31-.23h2.7c.05 0 .05-.02.02-.05l-1.07-1.07c-.27-.27.08-.65.34-.4.54.55 1.07 1.09 1.6 1.6.1.1.1.25 0 .35l-1.61 1.6c-.24.25-.6-.13-.33-.4a442.69 442.69 0 001.08-1.11h-.02z" fill="#298F7E"/><path d="M13.35 25.24c-.02.02 0 .03.02.03h2.86c.19 0 .23.25.17.38-.07.13-.17.12-.3.12h-2.74c-.04 0-.05.02-.02.05l1.12 1.11c.09.1.08.3-.03.38-.14.1-.28.05-.39-.06a202.6 202.6 0 00-1.53-1.54c-.21-.2-.02-.36.13-.5l1.42-1.44c.29-.29.63.1.38.35a54.47 54.47 0 01-1.1 1.12z" fill="#3BB54A"/><path d="M20.18 29.63l-.12.11a.21.21 0 00-.17-.08c-.06 0-.12.02-.12.08s.06.08.16.1c.12.03.25.08.25.23 0 .18-.15.25-.32.25a.43.43 0 01-.3-.12l.12-.12c.04.05.1.1.19.1.06 0 .12-.03.12-.1 0-.06-.06-.08-.17-.1-.11-.03-.23-.08-.23-.22 0-.17.16-.24.3-.24.11 0 .23.04.29.11zM18.72 30.3v-.76h.18v.12a.26.26 0 01.24-.14c.2 0 .28.15.28.3v.48h-.2v-.42c0-.09-.01-.2-.13-.2-.12 0-.18.1-.18.2v.42h-.19zM17.71 29.92c0-.24.18-.4.41-.4.23 0 .42.16.42.4a.4.4 0 01-.42.4.4.4 0 01-.41-.4zm.2 0c0 .12.06.24.21.24s.22-.12.22-.24-.07-.25-.22-.25-.22.13-.22.25zM17.33 30.3v-.76h.2v.76h-.2zm-.02-1.02c0-.06.05-.11.12-.11.07 0 .12.05.12.11 0 .07-.05.12-.12.12a.12.12 0 01-.12-.12zM16.82 29.7h-.14v-.16h.14v-.22H17v.22h.2v.15H17v.36c0 .06.02.11.1.11a.2.2 0 00.08-.01l.01.15a.4.4 0 01-.13.02c-.2 0-.24-.13-.24-.27v-.36zM16.67 29.64l-.13.11a.2.2 0 00-.16-.07c-.14 0-.2.12-.2.24s.07.24.21.24c.06 0 .12-.02.16-.06l.12.12a.38.38 0 01-.28.1c-.23 0-.41-.15-.41-.4s.18-.4.4-.4c.11 0 .23.04.29.12zM15.62 30.3v-.1c-.04.07-.13.12-.24.12-.12 0-.28-.06-.28-.24 0-.22.28-.25.52-.25v-.02c0-.1-.08-.14-.17-.14a.3.3 0 00-.21.08l-.1-.11c.09-.08.2-.12.32-.12.27 0 .34.17.34.32v.46h-.18zm0-.32v-.03h-.04c-.12 0-.3.02-.3.13 0 .07.08.1.14.1.13 0 .2-.08.2-.2zM14.99 29.63l-.12.11a.21.21 0 00-.17-.08c-.06 0-.12.02-.12.08s.06.08.16.1c.11.03.25.08.25.23 0 .18-.15.25-.32.25a.43.43 0 01-.31-.12l.12-.12c.05.05.12.1.2.1.05 0 .12-.03.12-.1 0-.06-.06-.08-.17-.1-.12-.03-.23-.08-.23-.22 0-.17.15-.24.3-.24.11 0 .23.04.29.11zM13.53 30.3v-.76h.18v.12a.26.26 0 01.24-.14c.2 0 .28.15.28.3v.48h-.2v-.42c0-.09-.01-.2-.13-.2-.12 0-.18.1-.18.2v.42h-.2zM13.13 30.3v-.1c-.04.07-.13.12-.24.12-.12 0-.28-.06-.28-.24 0-.22.28-.25.52-.25v-.02c0-.1-.08-.14-.18-.14a.3.3 0 00-.2.08l-.1-.11c.08-.08.2-.12.32-.12.27 0 .34.17.34.32v.46h-.18zm0-.32v-.03h-.04c-.13 0-.3.02-.3.13 0 .07.07.1.14.1.13 0 .2-.08.2-.2zM12.1 30.3v-.76h.19v.13a.25.25 0 01.22-.15h.05v.18l-.06-.01c-.17 0-.2.15-.2.2v.41h-.2zM11.58 30.3v-.95h-.34v-.17h.88v.17h-.34v.95h-.2z" fill="#38393B"/></g><g filter="url(#filter2_d_228_14199)"><rect x="6.38" y="33.89" width="18.7" height="14.11" rx=".84" fill="#fff" shape-rendering="crispEdges"/><path d="M17.17 36.7c.03 0 .07.03.1.06l1.06 1.06c.1.1.13.18.13.3v4.5c0 .14-.08.22-.23.22h-5a.27.27 0 01-.16-.04.07.07 0 01-.03-.04 1.06 1.06 0 01-.03-.27 902.96 902.96 0 01.01-5.69c.01-.12.17-.13.3-.13h3.65c.07 0 .13 0 .2.02zm-.08 1.28a.2.2 0 01-.03-.09v-.8a.06.06 0 00-.06-.07h-3.6a.04.04 0 00-.03.04v5.4s0 .02.02.02h4.66c.03 0 .05-.03.05-.06v-4.27a.1.1 0 00-.1-.1l-.82-.01a.11.11 0 01-.09-.06z" fill="#298F7E"/><path d="M14.32 38.52a.42.42 0 100-.85.42.42 0 000 .85zM17.67 40.3c0 .06-.05.12-.12.12h-3.57a.12.12 0 01-.12-.12v-.83c0-.07.05-.12.12-.12h3.57c.07 0 .12.05.12.12v.83zm-1.77-.67a.05.05 0 00-.05-.05h-1.71a.05.05 0 00-.06.05v.5c0 .03.03.05.06.05h1.71c.03 0 .05-.02.05-.05v-.5zm1.55 0a.05.05 0 00-.05-.05h-1.23a.05.05 0 00-.04.05v.5c0 .03.02.05.04.05h1.23c.03 0 .05-.02.05-.05v-.5zM17.57 40.98H16a.1.1 0 00-.1.1v.03c0 .06.05.1.1.1h1.57a.1.1 0 00.1-.1v-.03a.1.1 0 00-.1-.1z" fill="#3BB54A"/><path d="M18.66 45.45l-.13.1a.22.22 0 00-.16-.07c-.06 0-.12.02-.12.08s.05.07.16.1.24.08.24.23c0 .18-.15.25-.31.25a.43.43 0 01-.31-.13l.12-.11c.04.05.11.1.2.1.05 0 .12-.03.12-.1 0-.06-.06-.08-.18-.1-.1-.04-.22-.08-.22-.22 0-.17.15-.25.3-.25.11 0 .22.04.29.12zM17.35 45.66h.4c0-.1-.06-.18-.19-.18-.1 0-.2.07-.2.18zm.58.09v.05h-.58c.01.1.11.18.22.18.1 0 .16-.03.2-.1l.13.1a.38.38 0 01-.33.16c-.23 0-.4-.15-.4-.4 0-.24.17-.4.4-.4.2 0 .36.13.36.4zM17.09 45.45l-.13.12a.2.2 0 00-.16-.08c-.14 0-.21.13-.21.25 0 .11.07.24.22.24.05 0 .12-.02.15-.07l.12.12a.38.38 0 01-.28.1c-.22 0-.4-.14-.4-.4 0-.24.18-.4.4-.4.11 0 .22.05.29.12zM16.02 46.12v-.76h.19v.76H16zm-.03-1.02c0-.06.05-.11.12-.11.07 0 .12.04.12.1 0 .07-.05.12-.12.12a.12.12 0 01-.12-.11zM15 45.73c0-.24.19-.4.42-.4.23 0 .4.16.4.4a.4.4 0 01-.4.4.4.4 0 01-.42-.4zm.2 0c0 .12.07.25.22.25s.22-.13.22-.25-.07-.24-.22-.24-.22.12-.22.24zM14.43 46.12l-.3-.76h.2l.2.55.2-.55h.2l-.3.76h-.2zM13.32 46.12v-.76h.18v.12a.26.26 0 01.24-.15c.2 0 .28.16.28.31v.48h-.2v-.42c0-.1-.01-.2-.14-.2-.12 0-.17.1-.17.2v.42h-.2zM12.88 46.12V45h.2v1.12h-.2z" fill="#38393B"/></g><g filter="url(#filter3_d_228_14199)"><rect x="6.38" y="49.5" width="18.7" height="14.11" rx=".84" fill="#fff" shape-rendering="crispEdges"/><path d="M17.35 58.24l-.57.33c-.13.08-.25.11-.39.03a25.22 25.22 0 00-.69-.37l-.57.33c-.17.1-.24.13-.43.02l-.6-.34a.08.08 0 00-.07 0l-.62.35a.45.45 0 01-.19.08c-.13 0-.17-.13-.17-.25 0-2.05.03-4.1.06-6.19 0-.27.17-.35.42-.35h4.49c.26 0 .39.13.4.38l-.01 6.09c0 .27-.1.41-.36.25a19.5 19.5 0 00-.63-.36.06.06 0 00-.07 0zm.18-.38l.46.26c.03.02.05.01.05-.02v-5.8a.03.03 0 00-.04-.03h-4.49l-.02.01a2040.77 2040.77 0 01-.04 5.85h.01c.15-.1.3-.2.46-.27.1-.05.2-.05.3 0l.64.37h.08l.55-.32c.13-.08.27-.12.4-.05l.64.38h.05l.62-.36c.12-.07.23-.08.33-.02z" fill="#298F7E"/><path d="M16.48 53.49v.02c0 .1.08.18.18.18H17c.1 0 .18-.08.18-.18v-.02c0-.1-.08-.18-.18-.18h-.34c-.1 0-.18.07-.18.18z" fill="#31B591"/><path d="M15.75 53.31h-1.41c-.1 0-.17.08-.17.17v.04c0 .1.08.17.17.17h1.41c.1 0 .16-.08.16-.17v-.05c0-.09-.07-.16-.16-.16zM15.74 54.6h-1.4c-.1 0-.17.08-.17.18v.03c0 .1.08.17.17.17h1.4c.1 0 .17-.07.17-.17v-.03c0-.1-.07-.17-.17-.17z" fill="#3BB54A"/><path d="M16.48 54.77v.04c0 .1.08.17.17.17H17c.1 0 .17-.07.17-.16v-.05c0-.09-.08-.17-.17-.17h-.36c-.1 0-.17.08-.17.17zM17.03 56.4h-.93c-.1 0-.18.09-.18.19v.02c0 .1.08.18.18.18h.93c.1 0 .18-.08.18-.18v-.02c0-.1-.08-.18-.18-.18z" fill="#31B591"/><path d="M20.69 60.9l-.13.1a.22.22 0 00-.16-.08c-.06 0-.13.02-.13.08s.06.08.17.1c.11.03.24.08.24.23 0 .19-.15.25-.31.25a.43.43 0 01-.31-.12l.12-.12c.04.05.11.1.2.1.05 0 .12-.03.12-.1 0-.06-.06-.08-.18-.1-.1-.03-.22-.08-.22-.22 0-.17.15-.24.3-.24.11 0 .22.04.29.12zM19.63 60.95h-.13v-.15h.13v-.22h.19v.22H20v.15h-.2v.36c0 .06.03.11.1.11a.2.2 0 00.09-.01v.15a.4.4 0 01-.12.02c-.2 0-.25-.13-.25-.27v-.36zM18.6 60.8h.19v.1c.04-.05.13-.12.27-.12.21 0 .37.17.37.4 0 .22-.15.4-.38.4a.3.3 0 01-.25-.12v.48h-.2V60.8zm.63.38c0-.12-.07-.25-.22-.25-.13 0-.22.13-.22.25s.09.24.22.24c.15 0 .22-.12.22-.24zM18.19 61.56v-.76h.19v.76h-.2zm-.03-1.02c0-.06.05-.11.12-.11.07 0 .12.05.12.11 0 .07-.05.12-.12.12a.12.12 0 01-.12-.12zM17.42 61.1h.4c0-.1-.06-.18-.19-.18-.11 0-.2.08-.2.19zm.58.1v.04h-.58c.01.1.1.19.22.19.1 0 .16-.04.2-.1l.13.1a.38.38 0 01-.33.15c-.23 0-.4-.15-.4-.4 0-.24.17-.4.4-.4.2 0 .36.14.36.41zM17.15 60.9l-.13.11a.2.2 0 00-.15-.07c-.14 0-.21.12-.21.24s.07.24.21.24c.06 0 .13-.02.16-.06l.12.12a.38.38 0 01-.28.1c-.22 0-.41-.15-.41-.4s.18-.4.4-.4c.12 0 .23.04.3.12zM15.74 61.1h.4c0-.1-.06-.18-.19-.18-.11 0-.2.08-.2.19zm.58.1v.04h-.58c.01.1.1.19.22.19.1 0 .16-.04.2-.1l.13.1a.38.38 0 01-.33.15c-.23 0-.4-.15-.4-.4 0-.24.16-.4.4-.4.2 0 .36.14.36.41zM15.05 61.56v-.76h.18v.13a.25.25 0 01.27-.15v.18l-.06-.01c-.17 0-.2.15-.2.2v.41h-.2zM14.49 60.9l-.12.1a.22.22 0 00-.17-.08c-.06 0-.12.02-.12.08s.06.08.16.1c.11.03.25.08.25.23 0 .19-.15.25-.32.25a.43.43 0 01-.31-.12l.12-.12c.05.05.12.1.2.1.05 0 .12-.03.12-.1 0-.06-.06-.08-.17-.1-.12-.03-.23-.08-.23-.22 0-.17.15-.24.3-.24.11 0 .23.04.29.12zM13.19 61.1h.39c0-.1-.06-.18-.18-.18-.11 0-.2.08-.21.19zm.58.1v.04h-.58c0 .1.1.19.21.19.1 0 .16-.04.2-.1l.13.1a.38.38 0 01-.32.15c-.24 0-.41-.15-.41-.4 0-.24.17-.4.4-.4.21 0 .37.14.37.41zM12.62 61.56v-1.2h.2v1.2h-.2zM12.22 61.56v-.1c-.04.07-.13.12-.24.12-.12 0-.28-.06-.28-.24 0-.22.28-.25.52-.25v-.02c0-.1-.08-.14-.18-.14a.3.3 0 00-.2.09l-.1-.12c.08-.08.2-.12.32-.12.27 0 .34.17.34.32v.46h-.18zm0-.32v-.03h-.05c-.12 0-.28.02-.28.13 0 .07.06.1.13.1.13 0 .2-.08.2-.2zM11.55 60.53l-.13.15a.27.27 0 00-.2-.1c-.1 0-.2.04-.2.15 0 .1.09.14.21.17.15.05.33.11.33.33 0 .24-.19.36-.4.36a.51.51 0 01-.4-.16l.15-.13c.05.07.16.12.24.12.1 0 .2-.05.2-.17 0-.11-.11-.15-.25-.19-.14-.04-.28-.11-.28-.32 0-.23.2-.33.4-.33.12 0 .25.04.33.12z" fill="#38393B"/></g><g filter="url(#filter4_d_228_14199)"><rect x="6.38" y="65.11" width="18.7" height="14.11" rx=".84" fill="#fff" shape-rendering="crispEdges"/><path d="M18 73.96a.5.5 0 01-.52.5h-3.5a.5.5 0 01-.51-.5V68.1c0-.28.23-.5.5-.5h3.51c.29 0 .51.22.51.5v5.86zm-.39-5.9a.09.09 0 00-.08-.08h-3.6a.09.09 0 00-.09.09V73c0 .05.04.09.09.09h3.6c.05 0 .08-.04.08-.09v-4.94zm-1.53 5.72a.35.35 0 10-.71 0 .35.35 0 00.7 0z" fill="#298F7E"/><path d="M16.07 68.29h-.7a.16.16 0 00-.16.16v.06c0 .09.08.16.17.16h.69c.09 0 .16-.07.16-.16v-.06a.16.16 0 00-.16-.16z" fill="#31B591"/><path d="M16.58 71.91c-.12-.08-.3.07-.4.14a.15.15 0 01-.15 0l-.24-.15a.11.11 0 00-.12 0l-.28.15a.12.12 0 01-.11 0 3.92 3.92 0 01-.25-.13c-.14-.08-.31.07-.43.15a.04.04 0 01-.06-.02v-2.57c0-.08.07-.14.15-.14a64.3 64.3 0 012.06 0c.18 0 .15.24.15.36v2.33a.04.04 0 01-.06.03 3.6 3.6 0 01-.26-.15zm-.32-1.79a.08.08 0 00-.09-.08h-.9a.08.08 0 00-.09.09c0 .05.04.08.09.08h.9c.05 0 .09-.04.09-.08zm.01.75a.08.08 0 00-.08-.08h-.92a.08.08 0 00-.08.08c0 .05.04.09.08.09h.92c.05 0 .08-.04.08-.09z" fill="#B0D246"/><path d="M19.55 76.4h.18v.1c.05-.05.13-.12.27-.12.22 0 .37.17.37.4 0 .22-.14.4-.37.4a.3.3 0 01-.26-.12v.48h-.19V76.4zm.63.38c0-.12-.07-.25-.22-.25-.14 0-.22.13-.22.25s.08.24.22.24c.15 0 .22-.12.22-.24zM19.15 77.16v-.1c-.04.07-.13.12-.24.12-.12 0-.28-.06-.28-.24 0-.22.28-.25.52-.25v-.02c0-.1-.08-.14-.17-.14a.3.3 0 00-.21.08l-.1-.11c.09-.08.2-.12.32-.12.27 0 .34.17.34.32v.46h-.18zm0-.32v-.03h-.04c-.12 0-.3.02-.3.13 0 .07.08.1.14.1.13 0 .2-.08.2-.2zM17.76 77.16v-.76h.18v.12a.26.26 0 01.24-.14c.2 0 .28.15.28.3v.48h-.19v-.42c0-.09-.02-.2-.14-.2-.12 0-.18.1-.18.2v.42h-.19zM17.6 76.5l-.13.1a.22.22 0 00-.16-.08c-.06 0-.12.02-.12.08s.06.08.16.1c.11.03.25.08.25.23 0 .18-.15.25-.32.25a.43.43 0 01-.31-.12l.12-.12c.04.05.12.1.2.1.05 0 .12-.03.12-.1 0-.06-.06-.08-.17-.1-.12-.03-.23-.08-.23-.22 0-.17.15-.24.3-.24.11 0 .23.04.29.11zM16.15 76.55h-.13v-.15h.13v-.22h.19v.22h.19v.15h-.2v.36c0 .06.02.11.1.11a.2.2 0 00.09-.01v.15a.4.4 0 01-.12.02c-.2 0-.25-.13-.25-.27v-.36zM15.13 76.4h.18v.1c.04-.05.13-.12.26-.12.22 0 .37.17.37.4 0 .22-.14.4-.37.4a.3.3 0 01-.25-.12v.48h-.2V76.4zm.62.38c0-.12-.07-.25-.22-.25-.14 0-.22.13-.22.25s.08.24.22.24c.15 0 .22-.12.22-.24zM14.7 77.16v-.76h.2v.76h-.2zm-.02-1.02c0-.06.05-.11.12-.11.07 0 .12.05.12.11 0 .07-.05.12-.12.12a.12.12 0 01-.12-.12zM13.94 76.7h.39c0-.1-.06-.18-.18-.18-.11 0-.2.08-.21.18zm.58.09v.05h-.58c0 .1.1.19.22.19.1 0 .15-.04.2-.1l.12.1a.38.38 0 01-.32.15c-.24 0-.41-.15-.41-.4 0-.24.17-.4.4-.4.21 0 .37.14.37.41zM13.67 76.5l-.13.11a.2.2 0 00-.16-.07c-.14 0-.2.12-.2.24s.07.24.21.24c.06 0 .12-.02.16-.06l.12.12a.38.38 0 01-.28.1c-.23 0-.41-.15-.41-.4s.18-.4.4-.4c.11 0 .23.04.29.12zM12.26 76.7h.39c0-.1-.06-.18-.18-.18-.11 0-.2.08-.21.18zm.58.09v.05h-.58c0 .1.1.19.22.19.1 0 .15-.04.2-.1l.12.1a.38.38 0 01-.32.15c-.24 0-.41-.15-.41-.4 0-.24.17-.4.4-.4.21 0 .37.14.37.41zM11.15 77.16v-1.12h.39c.2 0 .4.08.4.32 0 .16-.1.27-.25.3l.3.5h-.24l-.26-.47h-.14v.47h-.2zm.2-.64h.16c.11 0 .24-.02.24-.16 0-.12-.12-.15-.22-.15h-.18v.31z" fill="#38393B"/></g><g filter="url(#filter5_d_228_14199)"><rect x="26.55" y="18.27" width="18.7" height="14.11" rx=".84" fill="#fff" shape-rendering="crispEdges"/><path d="M36.52 24.95a.65.65 0 01-.3.16.98.98 0 00-.5-.49c-.13-.06-.27-.12-.4-.2-.3-.14-.3-.42-.24-.7l.1-.43c.03-.12.12-.2.22-.27.14-.1.2-.31.01-.41-.06-.03-.07-.1-.08-.16 0-.34 0-.9-.39-1.05-.22-.1-.47-.1-.7-.04-.47.13-.5.66-.48 1.06 0 .1-.04.16-.11.21-.1.06-.12.15-.08.25.04.1.15.17.23.24l.06.07c.1.27.16.55.17.83 0 .25-.2.39-.4.48-.31.13-.61.27-.74.6v.04c.04.06.1.11.15.16a2.3 2.3 0 001.82.54c.2-.03.4-.1.6-.16-.02.16-.07.3-.13.42a9.98 9.98 0 00-.42.09c-.94.1-1.72-.19-2.36-.87-.05-.06-.05-.17-.03-.24.15-.58.59-.72 1.07-.96.07-.04.1-.1.09-.17-.02-.14-.07-.52-.17-.6-.1-.08-.2-.16-.24-.27a.64.64 0 01.09-.7.2.2 0 00.04-.13c0-.83.4-1.34 1.28-1.27.76.06.98.6 1 1.29 0 .04.02.08.05.1.14.17.18.37.13.6a.65.65 0 01-.28.36c-.1.08-.16.5-.18.63 0 .07.02.12.09.15l.53.27c.23.12.4.31.5.57z" fill="#3BB54A"/><path d="M35.33 26.1c.06-.13.1-.26.13-.42.06-.04.12-.1.17-.18a5.09 5.09 0 01.88-.54c.02-.22-.01-.43-.09-.65 0-.03-.05-.07-.11-.12a.63.63 0 01-.19-.77c.03-.08.08-.12.13-.19l.01-.04.02-.3c.06-.75.56-1.09 1.29-1.02.71.06.97.6.97 1.27 0 .12.07.14.12.23.1.22.1.43 0 .63-.05.1-.15.17-.23.24a.19.19 0 00-.06.09 3.4 3.4 0 00-.1.54c-.01.06.02.11.07.13l.43.21c.33.16.6.45.66.82.03.13-.05.2-.13.29a2.66 2.66 0 01-3.97-.22zm1.27-2.67c-.06.14-.23.1-.17.33.03.12.14.16.22.24.06.07.1.16.13.26l.1.48c.05.3-.05.5-.32.62l-.52.27a.74.74 0 00-.3.37v.04l.09.1a2.3 2.3 0 003.2-.07.06.06 0 00.02-.08c-.16-.38-.5-.5-.84-.65-.23-.1-.33-.29-.3-.54.02-.2.07-.42.15-.68.07-.22.42-.23.3-.54a.06.06 0 00-.03-.03c-.1-.06-.16-.14-.15-.25 0-.24 0-.53-.1-.74-.16-.32-.52-.37-.85-.33-.6.06-.61.65-.61 1.1 0 .04 0 .07-.02.1z" fill="#298F7E"/><path d="M39.76 29.63l-.13.11a.21.21 0 00-.16-.08c-.06 0-.12.02-.12.08s.06.08.16.1c.11.03.25.08.25.23 0 .18-.15.25-.32.25a.43.43 0 01-.31-.12l.12-.12c.04.05.12.1.2.1.05 0 .12-.03.12-.1 0-.06-.06-.08-.17-.1-.12-.03-.23-.08-.23-.22 0-.17.15-.24.3-.24.11 0 .23.04.29.11zM38.64 30.3v-.76h.18v.13a.25.25 0 01.23-.15h.04v.18l-.05-.01c-.17 0-.2.15-.2.2v.41h-.2zM37.88 29.84h.39c0-.1-.06-.18-.18-.18-.11 0-.2.08-.21.18zm.58.09v.05h-.58c0 .1.1.19.22.19.1 0 .15-.04.2-.1l.12.1a.38.38 0 01-.32.15c-.24 0-.41-.15-.41-.4 0-.24.17-.4.4-.4.21 0 .37.14.37.41zM37.23 29.52c.2 0 .28.15.28.3v.48h-.19v-.42c0-.09-.02-.2-.14-.2-.12 0-.17.1-.17.2v.42h-.19v-.46c0-.1-.04-.16-.14-.16-.11 0-.16.1-.16.2v.42h-.2v-.76h.19v.12a.25.25 0 01.24-.14c.11 0 .2.06.23.14.05-.09.14-.14.25-.14zM35.32 29.92c0-.24.18-.4.41-.4.23 0 .41.16.41.4a.4.4 0 01-.41.4.4.4 0 01-.41-.4zm.2 0c-.01.12.06.24.21.24s.22-.12.22-.24-.07-.25-.22-.25-.22.13-.22.25zM34.85 29.7h-.13v-.16h.13v-.22h.18v.22h.2v.15h-.2v.36c0 .06.02.11.1.11a.2.2 0 00.09-.01v.15a.4.4 0 01-.13.02c-.2 0-.24-.13-.24-.27v-.36zM34.66 29.63l-.12.11a.21.21 0 00-.17-.08c-.06 0-.12.02-.12.08s.06.08.16.1c.12.03.25.08.25.23 0 .18-.15.25-.32.25a.43.43 0 01-.3-.12l.12-.12c.04.05.1.1.2.1.05 0 .11-.03.11-.1 0-.06-.06-.08-.17-.1-.11-.03-.23-.08-.23-.22 0-.17.16-.24.3-.24.12 0 .23.04.3.11zM33.9 29.54v.76h-.19v-.12a.26.26 0 01-.24.14c-.2 0-.28-.15-.28-.3v-.48h.2v.42c0 .1.02.2.14.2.12 0 .17-.1.17-.2v-.42h.2zM33.07 29.32l-.15.12c-.06-.08-.17-.11-.26-.11-.23 0-.38.18-.38.4 0 .25.14.42.38.42.12 0 .21-.05.27-.13l.16.11c-.1.13-.25.2-.44.2a.57.57 0 01-.6-.6c0-.35.27-.58.61-.58.15 0 .32.06.4.17z" fill="#38393B"/></g><g filter="url(#filter6_d_228_14199)"><rect x="26.55" y="33.89" width="18.7" height="14.11" rx=".84" fill="#fff" shape-rendering="crispEdges"/><path d="M38.78 42.27c0 .36-.29.66-.65.66h-4.47a.65.65 0 01-.65-.66v-5.23c0-.36.3-.65.65-.65h4.47c.36 0 .65.29.65.65v5.23zm-.36-5.22a.29.29 0 00-.3-.29h-4.46a.29.29 0 00-.28.29v5.21c0 .16.13.29.28.29h4.47c.16 0 .29-.13.29-.29v-5.21z" fill="#298F7E"/><path d="M37.56 37.58h-3.33a.12.12 0 00-.11.12v.7c0 .07.05.12.11.12h3.33c.07 0 .12-.05.12-.12v-.7a.12.12 0 00-.12-.12z" fill="#B0D246"/><path d="M34.67 40.15a.41.41 0 100-.83.41.41 0 000 .83zM35.9 40.15a.41.41 0 100-.83.41.41 0 000 .83zM37.13 40.15a.41.41 0 100-.83.41.41 0 000 .83zM34.67 41.64a.41.41 0 100-.83.41.41 0 000 .83zM35.9 41.64a.42.42 0 100-.83.42.42 0 000 .83zM37.13 41.64a.41.41 0 100-.83.41.41 0 000 .83z" fill="#31B591"/><path d="M39.37 45.45l-.13.1a.22.22 0 00-.16-.07c-.06 0-.12.02-.12.08s.05.07.16.1.25.08.25.23c0 .18-.15.25-.32.25a.43.43 0 01-.31-.13l.12-.11c.04.05.11.1.2.1.05 0 .12-.03.12-.1 0-.06-.06-.08-.18-.1-.1-.04-.22-.08-.22-.22 0-.17.15-.25.3-.25.11 0 .23.04.29.12zM38.06 45.66h.4c0-.1-.06-.18-.18-.18s-.2.07-.22.18zm.58.09v.05h-.58c.01.1.11.18.22.18.1 0 .16-.03.2-.1l.13.1a.38.38 0 01-.33.16c-.23 0-.4-.15-.4-.4 0-.24.17-.4.4-.4.2 0 .36.13.36.4zM37.4 45.5h-.13v-.14h.14v-.22h.18v.22h.2v.15h-.2v.35c0 .07.02.12.1.12a.2.2 0 00.08-.02v.15a.4.4 0 01-.12.02c-.2 0-.24-.12-.24-.27v-.35zM37 46.12v-.1c-.04.07-.13.11-.24.11-.12 0-.29-.05-.29-.23 0-.23.29-.26.53-.26v-.02c0-.1-.08-.14-.18-.14a.3.3 0 00-.2.09l-.1-.12c.08-.07.2-.12.32-.12.27 0 .34.17.34.32v.47H37zm0-.32v-.03h-.05c-.12 0-.29.01-.29.13 0 .07.07.1.14.1.13 0 .2-.08.2-.2zM36.03 45.33c.2 0 .28.16.28.31v.48h-.2v-.42c0-.1-.01-.2-.14-.2-.11 0-.16.1-.16.2v.42h-.2v-.46c0-.1-.04-.17-.13-.17-.12 0-.17.1-.17.2v.43h-.19v-.76h.18v.12a.25.25 0 01.24-.15c.12 0 .2.06.24.15.05-.1.13-.15.25-.15zM34.7 46.12v-.76h.2v.76h-.2zm-.03-1.02c0-.06.05-.11.12-.11.07 0 .13.04.13.1 0 .07-.06.12-.13.12a.12.12 0 01-.12-.11zM34.18 45.5h-.13v-.14h.13v-.22h.2v.22h.18v.15h-.19v.35c0 .07.02.12.1.12a.2.2 0 00.08-.02v.15a.4.4 0 01-.12.02c-.2 0-.25-.12-.25-.27v-.35zM34 45.45l-.13.1a.22.22 0 00-.16-.07c-.06 0-.12.02-.12.08s.05.07.16.1.24.08.24.23c0 .18-.15.25-.31.25a.43.43 0 01-.31-.13l.12-.11c.04.05.11.1.2.1.05 0 .12-.03.12-.1 0-.06-.06-.08-.18-.1-.1-.04-.22-.08-.22-.22 0-.17.15-.25.3-.25.11 0 .22.04.29.12zM32.5 46.12V45h.74v.17h-.54v.29h.51v.16h-.5v.32h.56v.18h-.77z" fill="#38393B"/></g><g filter="url(#filter7_d_228_14199)"><rect x="26.55" y="49.5" width="18.7" height="14.11" rx=".84" fill="#fff" shape-rendering="crispEdges"/><path d="M38.1 53.52c.47.02.75.35.75.82v2.92c0 .33-.14.61-.45.75-.1.04-.26.06-.5.06h-3.98c-.58 0-.84-.35-.84-.9a2425.52 2425.52 0 01.02-3.87c.07-.37.34-.68.7-.8.1-.03.25-.04.48-.04H37c.3 0 .5.02.6.06.42.2.46.56.45.96 0 .03 0 .04.03.04zm.39 3.31a.61.61 0 000-.32v-1.43a.56.56 0 000-.32c.02-.26.07-.7-.2-.83a1.27 1.27 0 00-.39-.05h-.45l-3.38-.01c-.08 0-.12-.04-.12-.13v-.02c0-.1.05-.15.15-.15h3.56c.02 0 .04-.01.04-.03 0-.24.04-.55-.2-.67a.8.8 0 00-.34-.05h-2.91c-.19 0-.33.02-.42.06a.62.62 0 00-.32.3c-.05.1-.07.3-.07.56v3.45c0 .2.02.36.2.46a.7.7 0 00.33.06h4.04c.13 0 .22-.02.28-.05.1-.05.17-.14.19-.25.03-.16.04-.35 0-.57z" fill="#298F7E"/><path d="M38.5 54.76c.02.1.03.2 0 .32l-1.27.02c-.77 0-1.05.97-.34 1.33a1 1 0 00.42.07l1.18.01c.03.1.03.22 0 .33-.6.01-1.01.02-1.26 0-.56 0-.92-.27-1.06-.8-.15-.53.18-1.06.7-1.24.1-.04.32-.05.67-.05h.95z" fill="#31B591"/><path d="M37.23 56.13a.34.34 0 100-.68.34.34 0 000 .68z" fill="#3BB54A"/><path d="M39.33 60.9l-.13.1a.22.22 0 00-.16-.08c-.06 0-.13.02-.13.08s.06.08.17.1c.11.03.24.08.24.23 0 .19-.15.25-.31.25a.43.43 0 01-.31-.12l.12-.12c.04.05.11.1.2.1.05 0 .12-.03.12-.1 0-.06-.06-.08-.18-.1-.1-.03-.22-.08-.22-.22 0-.17.15-.24.3-.24.11 0 .22.04.29.12zM38.02 61.1h.4c0-.1-.06-.18-.19-.18-.1 0-.2.08-.2.19zm.58.1v.04h-.58c.01.1.11.19.22.19.1 0 .16-.04.2-.1l.13.1a.38.38 0 01-.33.15c-.23 0-.4-.15-.4-.4 0-.24.17-.4.4-.4.2 0 .36.14.36.41zM37.72 60.9l-.13.1a.22.22 0 00-.16-.08c-.06 0-.13.02-.13.08s.06.08.17.1c.11.03.24.08.24.23 0 .19-.15.25-.31.25a.43.43 0 01-.31-.12l.12-.12c.04.05.11.1.2.1.05 0 .12-.03.12-.1 0-.06-.06-.08-.18-.1-.1-.03-.22-.08-.22-.22 0-.17.15-.24.3-.24.11 0 .22.04.29.12zM36.26 61.56v-.76h.18v.12a.26.26 0 01.23-.14c.2 0 .28.15.28.3v.48h-.19v-.42c0-.09-.02-.2-.14-.2-.12 0-.17.1-.17.2v.42h-.2zM35.5 61.1h.38c0-.1-.05-.18-.18-.18-.1 0-.2.08-.2.19zm.57.1v.04h-.58c.01.1.1.19.22.19.1 0 .16-.04.2-.1l.13.1a.38.38 0 01-.33.15c-.23 0-.4-.15-.4-.4 0-.24.17-.4.4-.4.2 0 .36.14.36.41zM34.35 60.8h.18v.1c.04-.05.13-.12.27-.12.21 0 .36.17.36.4 0 .22-.14.4-.37.4a.3.3 0 01-.25-.12v.48h-.2V60.8zm.62.38c0-.12-.07-.25-.22-.25-.14 0-.22.13-.22.25s.08.24.22.24c.15 0 .22-.12.22-.24zM33.38 61.56l.31-.4-.27-.36h.22l.17.24.17-.24h.22l-.28.36.31.4H34l-.2-.28-.2.28h-.22zM32.54 61.56v-1.12h.74v.18h-.54v.28h.51v.17h-.51v.31h.57v.18h-.77z" fill="#38393B"/></g><g filter="url(#filter8_d_228_14199)"><rect x="26.55" y="65.11" width="18.7" height="14.11" rx=".84" fill="#fff" shape-rendering="crispEdges"/><path d="M38.75 73.29l-.06-.01a180.64 180.64 0 01-1.15 0h-4.51c-.22-.02-.33-.15-.33-.38v-1.28c0-.2.01-.42.1-.6.08-.22.2-.4.36-.56.03-.04.03-.05-.02-.05h-.5c-.2 0-.16-.32-.14-.45.01-.09.1-.13.17-.13h.58c.02 0 .04.02.04.04v.36c0 .08.02.09.07.03a.74.74 0 00.1-.25 6 6 0 01.23-.69c.2-.5.57-.63 1.07-.71.45-.07.92-.1 1.42-.08a4 4 0 011.46.24c.46.2.58.91.72 1.34.03.08.06.13.1.18.03.03.05.02.05-.02v-.4c0-.02 0-.04.03-.04h.6c.21.02.17.27.16.41 0 .2-.14.17-.28.18l-.36-.01c-.05 0-.06.01-.02.05.17.18.3.38.38.6.06.16.06.34.06.54v1.27c0 .25-.07.39-.33.42zm-4.98-3.07a.72.72 0 01-.14.27c-.28.28-.57.59-.57 1v1.4c0 .02 0 .03.03.03h5.6c.02 0 .04-.02.04-.04v-1.31c0-.14 0-.26-.03-.35a1.67 1.67 0 00-.47-.67.9.9 0 01-.24-.43 4.7 4.7 0 00-.24-.71.57.57 0 00-.3-.32 2.12 2.12 0 00-.56-.15 7.9 7.9 0 00-1.94 0c-.2.03-.4.07-.58.13-.22.08-.34.32-.4.54l-.2.61z" fill="#298F7E"/><path d="M34.28 69.57a.4.4 0 01.32-.28c.73-.13 1.49-.15 2.27-.05.18.02.33.05.46.1.07.03.13.09.17.19a5.64 5.64 0 01.22.79 15.63 15.63 0 00-3.67-.02c.06-.25.14-.5.23-.73z" fill="#6BBFE5"/><path d="M33.79 71.97a.39.39 0 100-.78.39.39 0 000 .78zM38 71.97a.39.39 0 10.01-.78.39.39 0 000 .78z" fill="#3BB54A"/><path d="M36.74 71.57h-1.69c-.2 0-.37.17-.37.38v.03c0 .2.17.37.38.37h1.68c.2 0 .37-.17.37-.37v-.04c0-.2-.16-.37-.37-.37zM34.23 73.28v.68c0 .06-.06.11-.12.11h-.93c-.09 0-.13-.04-.14-.14v-.65h1.19zM38.75 73.29l-.01.63c0 .1-.05.15-.16.15h-.86c-.13 0-.19-.07-.19-.2l.01-.59a165.46 165.46 0 001.2.01z" fill="#31B591"/><path d="M38.1 76.7h.39c0-.1-.06-.18-.18-.18-.11 0-.2.08-.21.18zm.58.09v.05h-.58c0 .1.1.19.22.19.1 0 .15-.04.2-.1l.12.1a.38.38 0 01-.32.15c-.24 0-.41-.15-.41-.4 0-.24.17-.4.4-.4.21 0 .37.14.37.41zM37.55 76.4h.18v.7c0 .27-.14.44-.43.44a.64.64 0 01-.38-.13l.11-.14c.07.07.17.1.27.1.18 0 .24-.1.24-.26v-.05a.3.3 0 01-.25.11c-.23 0-.38-.18-.38-.4 0-.21.14-.4.37-.4.1 0 .2.05.26.15v-.12zm-.23.13c-.14 0-.22.11-.22.25 0 .12.08.24.22.24s.23-.12.23-.24c0-.14-.09-.25-.23-.25zM36.56 77.16v-.1c-.05.07-.14.12-.24.12-.13 0-.29-.06-.29-.24 0-.22.29-.25.52-.25v-.02c0-.1-.08-.14-.17-.14a.3.3 0 00-.2.08l-.1-.11c.08-.08.2-.12.32-.12.27 0 .33.17.33.32v.46h-.17zm0-.32v-.03h-.05c-.12 0-.29.02-.29.13 0 .07.07.1.13.1.13 0 .2-.08.2-.2zM35.33 76.7h.4c0-.1-.06-.18-.19-.18-.11 0-.2.08-.2.18zm.58.09v.05h-.58c.01.1.1.19.22.19.1 0 .16-.04.2-.1l.13.1a.38.38 0 01-.33.15c-.23 0-.4-.15-.4-.4 0-.24.16-.4.4-.4.2 0 .36.14.36.41zM34.77 77.16v-1.2h.19v1.2h-.2zM34.34 77.16v-.76h.2v.76h-.2zm-.02-1.02c0-.06.05-.11.12-.11.07 0 .12.05.12.11 0 .07-.05.12-.12.12a.12.12 0 01-.12-.12zM32.9 77.16v-1.12h.3l.3.8.29-.8h.31v1.12h-.2v-.9l-.34.9h-.14l-.33-.9v.9h-.2z" fill="#38393B"/></g><path fill-rule="evenodd" clip-rule="evenodd" d="M46.92 86.66H4.5v-.17h42.42v.17z" fill="#D4D4D4"/><path d="M29.72 86.66a4.01 4.01 0 11-8.02 0 4.01 4.01 0 018.02 0z" fill="#5CC601"/><path d="M25.4 86.4c.04 0 .06-.02.06-.05v-1.17c.02-.35.5-.35.5.01l.01 1.16c0 .04.02.06.06.06h1.16c.17 0 .25.08.25.24 0 .16-.08.26-.24.26h-1.17a.06.06 0 00-.06.06v1.15c-.01.37-.5.36-.5 0l-.01-1.17a.04.04 0 00-.04-.04h-1.16a.25.25 0 010-.5h1.15z" fill="#fff"/><path d="M13.07 90.91c-.04 0-.06.02-.06.07v1.3c0 .1-.06.16-.17.16h-.96c-.08 0-.12-.04-.12-.12v-.76c0-.03-.02-.04-.05-.04h-.2c-.02 0-.04.02-.04.05v.78a.1.1 0 01-.1.1h-1.04a.1.1 0 01-.1-.1v-1.39c0-.03-.02-.05-.05-.05h-.26l-.07-.01c-.13-.1-.13-.28 0-.39l1.76-1.61h.02l1.75 1.61c.07.07.1.15.09.26-.03.19-.26.15-.4.14zm-1.93.31c0-.01 0-.02.02-.02h.9l.02.02v.9l.02.01h.56c.01 0 .02 0 .02-.02v-1.5c0-.02.01-.03.02-.03h.2c.01 0 .02 0 .02-.02v-.02l-1.3-1.14h-.02l-1.28 1.14a.02.02 0 000 .03h.01l.2.02c.02 0 .03.01.03.02v1.5s0 .02.02.02h.53c.01 0 .03 0 .03-.02v-.89z" fill="#6B6D72"/><path d="M37.96 89.57v.05c0 .13.1.23.23.23l3.24.01c.13 0 .23-.1.23-.23v-.05c0-.13-.1-.24-.23-.24h-3.24c-.13 0-.23.1-.23.23zM41.43 90.4h-3.24c-.13 0-.24.1-.24.23v.05c0 .13.11.23.24.23h3.24c.13 0 .23-.1.23-.23v-.05c0-.13-.1-.24-.23-.24zM41.44 91.49h-3.26c-.12 0-.22.1-.22.22v.07c0 .12.1.22.22.22h3.26c.12 0 .22-.1.22-.22v-.07c0-.12-.1-.22-.22-.22z" fill="#3BB54A"/><path d="M7.52 5.72c.01-.19.1-.32.3-.34.29-.03.59-.03.61.35 0 .01 0 .03.02.03l.2.11h.05c.2-.1.36-.05.47.13.15.24.27.47-.03.66a.05.05 0 00-.02.05v.22l.03.04c.14.09.23.24.15.4l-.15.27c-.11.2-.28.15-.47.11h-.05l-.16.1a.06.06 0 00-.03.04c-.05.2-.1.35-.33.36-.29 0-.56.03-.59-.35a.05.05 0 00-.02-.04l-.18-.1a.07.07 0 00-.06-.01c-.16.04-.36.08-.45-.08-.1-.16-.24-.35-.17-.54.04-.08.12-.12.18-.18a.06.06 0 00.02-.04v-.2c0-.01 0-.03-.02-.04-.07-.05-.14-.09-.17-.17-.08-.2.06-.4.17-.55.1-.16.29-.14.43-.07h.05l.19-.12a.06.06 0 00.03-.04zm-.4 1.72c.1-.06.18-.11.3-.02.08.07.18.13.3.18.16.07.15.15.15.3 0 .03.01.04.04.04h.14c.04 0 .05-.02.04-.06-.03-.12.01-.24.14-.29.1-.04.2-.1.3-.18.1-.07.2-.05.28.02a.06.06 0 00.08 0l.08-.12a.06.06 0 00-.03-.08c-.08-.03-.16-.08-.16-.18v-.5c0-.03.01-.05.03-.07.04-.04.1-.08.15-.1.02-.01.03-.03.02-.05l-.09-.14c-.01-.02-.03-.03-.05-.01-.08.06-.2.11-.3.03-.1-.08-.21-.15-.34-.19a.17.17 0 01-.1-.15l-.01-.14c0-.03-.01-.04-.03-.04a.43.43 0 00-.16-.01.04.04 0 00-.03.04c-.02.14 0 .25-.16.31-.11.05-.22.1-.3.18-.1.09-.22.02-.3-.03-.03-.02-.05-.02-.06.01l-.07.14c-.02.02-.01.04.01.06l.12.07c.05.02.07.08.06.13-.03.14-.03.3 0 .45.02.1-.09.16-.16.19-.04.01-.04.03-.03.06.02.05.04.1.08.14.01.02.03.02.05.01z" fill="#6B6D72"/><path d="M8.56 6.81c0 .32-.26.59-.59.59a.58.58 0 110-1.17c.33 0 .6.26.6.58zm-.33 0a.26.26 0 00-.52 0 .26.26 0 00.52 0z" fill="#6B6D72"/><g filter="url(#filter9_i_228_14199)"><path d="M48.39 16.91a.23.23 0 11.46 0v11.01a.23.23 0 01-.46 0v-11z" fill="#E8E8E8"/></g><g filter="url(#filter10_i_228_14199)"><path d="M48.39 33.72a.23.23 0 01.46 0v5.1a.23.23 0 01-.46 0v-5.1z" fill="#E8E8E8"/></g></g><defs><filter id="filter0_d_228_14199" x=".06" y=".79" width="51.88" height="101.88" filterUnits="userSpaceOnUse" color-interpolation-filters="sRGB"><feFlood flood-opacity="0" result="BackgroundImageFix"/><feColorMatrix in="SourceAlpha" values="0 0 0 0 0 0 0 0 0 0 0 0 0 0 0 0 0 0 127 0" result="hardAlpha"/><feOffset dy="2.94"/><feGaussianBlur stdDeviation="1.47"/><feComposite in2="hardAlpha" operator="out"/><feColorMatrix values="0 0 0 0 0 0 0 0 0 0 0 0 0 0 0 0 0 0 0.25 0"/><feBlend in2="BackgroundImageFix" result="effect1_dropShadow_228_14199"/><feBlend in="SourceGraphic" in2="effect1_dropShadow_228_14199" result="shape"/></filter><filter id="filter1_d_228_14199" x="5.71" y="18.27" width="20.05" height="15.46" filterUnits="userSpaceOnUse" color-interpolation-filters="sRGB"><feFlood flood-opacity="0" result="BackgroundImageFix"/><feColorMatrix in="SourceAlpha" values="0 0 0 0 0 0 0 0 0 0 0 0 0 0 0 0 0 0 127 0" result="hardAlpha"/><feOffset dy=".68"/><feGaussianBlur stdDeviation=".34"/><feComposite in2="hardAlpha" operator="out"/><feColorMatrix values="0 0 0 0 0 0 0 0 0 0 0 0 0 0 0 0 0 0 0.05 0"/><feBlend in2="BackgroundImageFix" result="effect1_dropShadow_228_14199"/><feBlend in="SourceGraphic" in2="effect1_dropShadow_228_14199" result="shape"/></filter><filter id="filter2_d_228_14199" x="5.71" y="33.89" width="20.05" height="15.46" filterUnits="userSpaceOnUse" color-interpolation-filters="sRGB"><feFlood flood-opacity="0" result="BackgroundImageFix"/><feColorMatrix in="SourceAlpha" values="0 0 0 0 0 0 0 0 0 0 0 0 0 0 0 0 0 0 127 0" result="hardAlpha"/><feOffset dy=".68"/><feGaussianBlur stdDeviation=".34"/><feComposite in2="hardAlpha" operator="out"/><feColorMatrix values="0 0 0 0 0 0 0 0 0 0 0 0 0 0 0 0 0 0 0.05 0"/><feBlend in2="BackgroundImageFix" result="effect1_dropShadow_228_14199"/><feBlend in="SourceGraphic" in2="effect1_dropShadow_228_14199" result="shape"/></filter><filter id="filter3_d_228_14199" x="5.71" y="49.5" width="20.05" height="15.46" filterUnits="userSpaceOnUse" color-interpolation-filters="sRGB"><feFlood flood-opacity="0" result="BackgroundImageFix"/><feColorMatrix in="SourceAlpha" values="0 0 0 0 0 0 0 0 0 0 0 0 0 0 0 0 0 0 127 0" result="hardAlpha"/><feOffset dy=".68"/><feGaussianBlur stdDeviation=".34"/><feComposite in2="hardAlpha" operator="out"/><feColorMatrix values="0 0 0 0 0 0 0 0 0 0 0 0 0 0 0 0 0 0 0.05 0"/><feBlend in2="BackgroundImageFix" result="effect1_dropShadow_228_14199"/><feBlend in="SourceGraphic" in2="effect1_dropShadow_228_14199" result="shape"/></filter><filter id="filter4_d_228_14199" x="5.71" y="65.11" width="20.05" height="15.46" filterUnits="userSpaceOnUse" color-interpolation-filters="sRGB"><feFlood flood-opacity="0" result="BackgroundImageFix"/><feColorMatrix in="SourceAlpha" values="0 0 0 0 0 0 0 0 0 0 0 0 0 0 0 0 0 0 127 0" result="hardAlpha"/><feOffset dy=".68"/><feGaussianBlur stdDeviation=".34"/><feComposite in2="hardAlpha" operator="out"/><feColorMatrix values="0 0 0 0 0 0 0 0 0 0 0 0 0 0 0 0 0 0 0.05 0"/><feBlend in2="BackgroundImageFix" result="effect1_dropShadow_228_14199"/><feBlend in="SourceGraphic" in2="effect1_dropShadow_228_14199" result="shape"/></filter><filter id="filter5_d_228_14199" x="25.87" y="18.27" width="20.05" height="15.46" filterUnits="userSpaceOnUse" color-interpolation-filters="sRGB"><feFlood flood-opacity="0" result="BackgroundImageFix"/><feColorMatrix in="SourceAlpha" values="0 0 0 0 0 0 0 0 0 0 0 0 0 0 0 0 0 0 127 0" result="hardAlpha"/><feOffset dy=".68"/><feGaussianBlur stdDeviation=".34"/><feComposite in2="hardAlpha" operator="out"/><feColorMatrix values="0 0 0 0 0 0 0 0 0 0 0 0 0 0 0 0 0 0 0.05 0"/><feBlend in2="BackgroundImageFix" result="effect1_dropShadow_228_14199"/><feBlend in="SourceGraphic" in2="effect1_dropShadow_228_14199" result="shape"/></filter><filter id="filter6_d_228_14199" x="25.87" y="33.89" width="20.05" height="15.46" filterUnits="userSpaceOnUse" color-interpolation-filters="sRGB"><feFlood flood-opacity="0" result="BackgroundImageFix"/><feColorMatrix in="SourceAlpha" values="0 0 0 0 0 0 0 0 0 0 0 0 0 0 0 0 0 0 127 0" result="hardAlpha"/><feOffset dy=".68"/><feGaussianBlur stdDeviation=".34"/><feComposite in2="hardAlpha" operator="out"/><feColorMatrix values="0 0 0 0 0 0 0 0 0 0 0 0 0 0 0 0 0 0 0.05 0"/><feBlend in2="BackgroundImageFix" result="effect1_dropShadow_228_14199"/><feBlend in="SourceGraphic" in2="effect1_dropShadow_228_14199" result="shape"/></filter><filter id="filter7_d_228_14199" x="25.87" y="49.5" width="20.05" height="15.46" filterUnits="userSpaceOnUse" color-interpolation-filters="sRGB"><feFlood flood-opacity="0" result="BackgroundImageFix"/><feColorMatrix in="SourceAlpha" values="0 0 0 0 0 0 0 0 0 0 0 0 0 0 0 0 0 0 127 0" result="hardAlpha"/><feOffset dy=".68"/><feGaussianBlur stdDeviation=".34"/><feComposite in2="hardAlpha" operator="out"/><feColorMatrix values="0 0 0 0 0 0 0 0 0 0 0 0 0 0 0 0 0 0 0.05 0"/><feBlend in2="BackgroundImageFix" result="effect1_dropShadow_228_14199"/><feBlend in="SourceGraphic" in2="effect1_dropShadow_228_14199" result="shape"/></filter><filter id="filter8_d_228_14199" x="25.87" y="65.11" width="20.05" height="15.46" filterUnits="userSpaceOnUse" color-interpolation-filters="sRGB"><feFlood flood-opacity="0" result="BackgroundImageFix"/><feColorMatrix in="SourceAlpha" values="0 0 0 0 0 0 0 0 0 0 0 0 0 0 0 0 0 0 127 0" result="hardAlpha"/><feOffset dy=".68"/><feGaussianBlur stdDeviation=".34"/><feComposite in2="hardAlpha" operator="out"/><feColorMatrix values="0 0 0 0 0 0 0 0 0 0 0 0 0 0 0 0 0 0 0.05 0"/><feBlend in2="BackgroundImageFix" result="effect1_dropShadow_228_14199"/><feBlend in="SourceGraphic" in2="effect1_dropShadow_228_14199" result="shape"/></filter><filter id="filter9_i_228_14199" x="48.27" y="16.68" width=".58" height="11.48" filterUnits="userSpaceOnUse" color-interpolation-filters="sRGB"><feFlood flood-opacity="0" result="BackgroundImageFix"/><feBlend in="SourceGraphic" in2="BackgroundImageFix" result="shape"/><feColorMatrix in="SourceAlpha" values="0 0 0 0 0 0 0 0 0 0 0 0 0 0 0 0 0 0 127 0" result="hardAlpha"/><feOffset dx="-.12"/><feGaussianBlur stdDeviation=".06"/><feComposite in2="hardAlpha" operator="arithmetic" k2="-1" k3="1"/><feColorMatrix values="0 0 0 0 0.682353 0 0 0 0 0.682353 0 0 0 0 0.682353 0 0 0 1 0"/><feBlend in2="shape" result="effect1_innerShadow_228_14199"/></filter><filter id="filter10_i_228_14199" x="48.27" y="33.49" width=".58" height="5.56" filterUnits="userSpaceOnUse" color-interpolation-filters="sRGB"><feFlood flood-opacity="0" result="BackgroundImageFix"/><feBlend in="SourceGraphic" in2="BackgroundImageFix" result="shape"/><feColorMatrix in="SourceAlpha" values="0 0 0 0 0 0 0 0 0 0 0 0 0 0 0 0 0 0 127 0" result="hardAlpha"/><feOffset dx="-.12"/><feGaussianBlur stdDeviation=".06"/><feComposite in2="hardAlpha" operator="arithmetic" k2="-1" k3="1"/><feColorMatrix values="0 0 0 0 0.682353 0 0 0 0 0.682353 0 0 0 0 0.682353 0 0 0 1 0"/><feBlend in2="shape" result="effect1_innerShadow_228_14199"/></filter><linearGradient id="paint0_linear_228_14199" x1="3" y1="25.79" x2="48.39" y2="25.79" gradientUnits="userSpaceOnUse"><stop stop-color="#fff"/><stop offset=".51" stop-color="#fff"/><stop offset="1" stop-color="#fff"/></linearGradient><linearGradient id="paint1_linear_228_14199" x1="7.73" y1="13.54" x2="26.98" y2="13.54" gradientUnits="userSpaceOnUse"><stop stop-color="#3EB32B"/><stop offset="1" stop-color="#2DB598"/></linearGradient></defs></svg>