<svg width="96" height="60" viewBox="0 0 96 60" fill="none" xmlns="http://www.w3.org/2000/svg"><path d="M5.36 15.2A8.32 8.32 0 010 13.26l2.61-2.85c.6.65 1.7 1.24 2.74 1.24.48 0 .95-.14.95-.59 0-.47-.45-.65-2.25-1.24C2.32 9.25.75 8.33.75 6.1c0-3.17 2.85-4.37 5.35-4.37 1.68 0 3.55.68 4.86 1.89L8.3 6.34a3.05 3.05 0 00-2.2-1.1c-.63 0-1.04.16-1.04.57 0 .38.38.5 1.26.8 1.83.6 4.3 1.4 4.3 4.03 0 3.08-2.68 4.55-5.26 4.55zm10-.12c-2.52 0-3.74-1.08-3.74-3.36V8.33h-1.34V5.36h1.32V3.24h4.03v2.12h2.05v2.97h-2.05v2.52c0 .92.41 1.17 1.12 1.17.27 0 .59-.05.75-.1v2.84c-.43.18-1.28.32-2.14.32zm13.16-5.02c0 3.28-2.56 5.13-5.42 5.13-2.85 0-5.38-1.85-5.38-5.13C17.72 6.82 20.25 5 23.1 5c2.86 0 5.42 1.82 5.42 5.06zM23.1 8.5c-.9 0-1.53.73-1.53 1.56a1.55 1.55 0 103.1 0c0-.83-.67-1.56-1.57-1.56zm12.89 6.58a3.5 3.5 0 01-2.5-.99h-.04v5.06h-4.12V5.36h3.9v.96h.04c.7-.8 1.76-1.2 2.7-1.2 2.83 0 4.32 2.51 4.32 4.94 0 2.5-1.48 5.02-4.3 5.02zm.45-5.02c0-.83-.56-1.56-1.55-1.56-.97 0-1.62.73-1.62 1.56 0 .88.65 1.6 1.62 1.6.99 0 1.55-.7 1.55-1.6zm8.07 0c0-2.43 1.5-4.95 4.32-4.95.9 0 1.9.36 2.46 1.01h.04v-4.9h4.14v13.61h-3.73v-.99h-.03c-.54.76-1.71 1.24-2.88 1.24-2.83 0-4.32-2.52-4.32-5.02zm3.85 0c0 .9.56 1.6 1.55 1.6.97 0 1.62-.72 1.62-1.6 0-.83-.65-1.56-1.62-1.56-1 0-1.55.73-1.55 1.56zm18.73 0c0 3.28-2.56 5.13-5.42 5.13-2.85 0-5.38-1.85-5.38-5.13 0-3.24 2.53-5.06 5.38-5.06 2.86 0 5.42 1.82 5.42 5.06zM61.67 8.5c-.9 0-1.53.73-1.53 1.56a1.55 1.55 0 103.1 0c0-.83-.67-1.56-1.57-1.56zm6.24 6.33V5.36h4.16v9.47h-4.16zm-.07-12.2c0-1.15 1-2.13 2.18-2.13 1.13 0 2.12.98 2.12 2.13 0 1.19-.99 2.1-2.12 2.1a2.14 2.14 0 01-2.18-2.1zm5.44 12.2V5.36h4.05v1.05h.03a3.3 3.3 0 012.7-1.3c2.67 0 3.39 2.1 3.39 3.96v5.76h-4.18V9.8c0-.95-.3-1.3-.9-1.3-.54 0-.94.47-.94 1.3v5.04h-4.15zm10.89-4.77c0-2.43 1.49-4.95 4.32-4.95.99 0 2.07.38 2.68 1.2h.05v-.95h3.9v8.5c0 4.14-2.94 5.3-5.9 5.3-1.8 0-3.72-.5-5.05-1.4l1.81-2.75c.9.7 1.98 1.01 2.88 1.01 1.21 0 2.24-.63 2.24-1.78v-.42h-.06c-.45.53-1.4 1.01-2.55 1.01-2.92 0-4.32-2.21-4.32-4.77zm3.85 0c0 .9.56 1.6 1.55 1.6.97 0 1.62-.72 1.62-1.6 0-.83-.65-1.56-1.62-1.56-1 0-1.55.73-1.55 1.56zM5.08 35.08c-2.52 0-3.75-1.08-3.75-3.36v-3.39H0v-2.97h1.31v-2.12h4.04v2.12H7.4v2.97H5.35v2.52c0 .92.41 1.17 1.11 1.17.27 0 .6-.05.76-.1v2.84c-.43.18-1.28.32-2.14.32zm9.52-9.97c2.66 0 3.38 2.1 3.38 3.96v5.76H13.8V29.8c0-.95-.3-1.3-.9-1.3-.48 0-.93.4-.93 1.32v5.02H7.8v-13.6h4.16v5.18H12a3.1 3.1 0 012.6-1.3zm4.5 9.72v-9.47h4.15v9.47H19.1zm-.08-12.2c0-1.15 1-2.13 2.18-2.13 1.14 0 2.13.98 2.13 2.13 0 1.19-1 2.1-2.13 2.1a2.14 2.14 0 01-2.18-2.1zm5.44 12.2v-9.47h4.05v1.05h.03a3.3 3.3 0 012.7-1.3c2.67 0 3.39 2.1 3.39 3.96v5.76h-4.18V29.8c0-.95-.3-1.3-.9-1.3-.54 0-.93.47-.93 1.3v5.04h-4.16zm10.89-4.77c0-2.43 1.5-4.95 4.32-4.95.99 0 2.07.38 2.68 1.2h.05v-.95h3.91v8.5c0 4.14-2.95 5.3-5.9 5.3-1.8 0-3.73-.5-5.06-1.4l1.82-2.75c.9.7 1.98 1.01 2.88 1.01 1.2 0 2.23-.63 2.23-1.78v-.42h-.06c-.45.53-1.4 1.01-2.55 1.01-2.92 0-4.32-2.21-4.32-4.77zm3.85 0c0 .9.56 1.6 1.55 1.6.97 0 1.62-.72 1.62-1.6 0-.83-.65-1.56-1.62-1.56-1 0-1.55.73-1.55 1.56zm16.12 1.77c0 2.53-2.43 3.36-4.2 3.36a7.6 7.6 0 01-4.44-1.35l2.03-2.36c.58.53 1.42.89 2.14.89.29 0 .6-.1.6-.38 0-.3-.4-.45-1.5-.7-1.19-.27-2.66-1.07-2.66-2.88 0-2.47 2.43-3.4 4.16-3.4 1.45 0 2.97.44 4.12 1.22l-1.95 2.32a3.54 3.54 0 00-1.83-.61c-.4 0-.7.09-.7.4 0 .23.18.32 1.26.53 1.49.31 2.97 1.14 2.97 2.96zm8.65 3.25c-2.52 0-3.75-1.08-3.75-3.36v-3.39H58.9v-2.97h1.32v-2.12h4.03v2.12h2.05v2.97h-2.05v2.52c0 .92.41 1.17 1.11 1.17.27 0 .6-.05.76-.1v2.84c-.43.18-1.28.32-2.14.32zm9.52-9.97c2.66 0 3.38 2.1 3.38 3.96v5.76H72.7V29.8c0-.95-.31-1.3-.9-1.3-.49 0-.94.4-.94 1.32v5.02H66.7v-13.6h4.16v5.18h.04a3.1 3.1 0 012.59-1.3zm7.92 3.73h2.86c0-.67-.54-1.15-1.37-1.15-.92 0-1.42.63-1.5 1.15zm6.44 1.35c0 .3-.02.66-.03.88h-6.38c.08.67.87 1.08 1.62 1.08.76 0 1.3-.34 1.55-.67l2.95 1.5c-.82 1.35-2.5 2.21-4.6 2.21-2.76 0-5.37-1.74-5.37-5.1 0-3.12 2.36-5.09 5.28-5.09 2.97 0 4.98 2.2 4.98 5.19zM11.38 50.06c0 3.28-2.56 5.13-5.42 5.13-2.85 0-5.38-1.85-5.38-5.13C.58 46.82 3.1 45 5.96 45c2.86 0 5.42 1.82 5.42 5.06zM5.96 48.5c-.9 0-1.53.73-1.53 1.56a1.55 1.55 0 103.1 0c0-.83-.67-1.56-1.57-1.56zm6.23 6.33v-13.6h4.25v13.6h-4.25zm5.05-4.77c0-2.43 1.5-4.95 4.32-4.95.9 0 1.91.36 2.47 1.01h.03v-4.9h4.14v13.61h-3.72v-.99h-.04c-.54.76-1.7 1.24-2.88 1.24-2.82 0-4.32-2.52-4.32-5.02zm3.85 0c0 .9.56 1.6 1.55 1.6.97 0 1.62-.72 1.62-1.6 0-.83-.65-1.56-1.62-1.56-.99 0-1.55.73-1.55 1.56zm19.83-.09l-1.42 4.86h-4.13l-3.24-9.47h4.45l1.19 4.9h.07l1.22-4.9h4l1.31 4.9h.06l1.15-4.9h4.25l-3.28 9.47h-4.14l-1.46-4.86h-.03zm14.34.94h-.24c-1.22 0-2.03.21-2.03.93 0 .53.56.74.95.74.8 0 1.32-.56 1.32-1.35v-.32zm-.27-2.05v-.04c0-.58-.43-.85-1.08-.85-.76 0-1.48.38-2 .81l-2.07-2.05a6.58 6.58 0 014.5-1.73c3.6 0 4.55 2.18 4.55 4.85v4.98h-3.76v-.75h-.03c-.47.72-1.5 1-2.33 1-1.47 0-3.3-.79-3.3-3.04 0-2.64 3.02-3.18 5.52-3.18zm7.55 5.81l.08-.2-3.84-9.1h4.61l1.4 4.98h.08l1.24-4.99h4.44l-3.88 10.05c-.92 2.36-2.18 3.74-4.97 3.74-.87 0-1.87-.16-2.36-.29l.52-3.42c.3.11.81.22 1.17.22.92 0 1.3-.41 1.51-.99z" fill="#14324F"/></svg>