<svg width="131" height="43" viewBox="0 0 131 43" fill="none" xmlns="http://www.w3.org/2000/svg"><path d="M5.96 16.4A9.24 9.24 0 010 14.26l2.9-3.16a4.47 4.47 0 003.04 1.38c.54 0 1.06-.16 1.06-.66 0-.52-.5-.72-2.5-1.38C2.58 9.8.84 8.78.84 6.3.84 2.78 4 1.44 6.78 1.44c1.86 0 3.94.76 5.4 2.1L9.22 6.56a3.39 3.39 0 00-2.44-1.22c-.7 0-1.16.18-1.16.64 0 .42.42.56 1.4.88 2.04.66 4.78 1.56 4.78 4.48 0 3.42-2.98 5.06-5.84 5.06zm11.1-.12c-2.8 0-4.15-1.2-4.15-3.74V8.78h-1.48v-3.3h1.46V3.12h4.48v2.36h2.28v3.3h-2.28v2.8c0 1.02.46 1.3 1.24 1.3.3 0 .66-.06.84-.12v3.16c-.48.2-1.42.36-2.38.36zm8.92-4.64h-.26c-1.36 0-2.26.24-2.26 1.04 0 .58.62.82 1.06.82.88 0 1.46-.62 1.46-1.5v-.36zm-.3-2.28v-.04c0-.64-.48-.94-1.2-.94-.84 0-1.64.42-2.22.9L19.96 7a7.31 7.31 0 015-1.92c4 0 5.06 2.42 5.06 5.38V16h-4.18v-.84h-.04c-.52.8-1.66 1.12-2.58 1.12-1.64 0-3.66-.88-3.66-3.38 0-2.94 3.34-3.54 6.12-3.54zM31.12 16V5.48h4.44v1.2h.04a2.89 2.89 0 012.58-1.48c.34 0 .68.04.88.1l-.36 3.92a3.99 3.99 0 00-.98-.12c-1.2 0-1.98.8-1.98 1.8V16h-4.62zm12.45.28c-2.8 0-4.16-1.2-4.16-3.74V8.78h-1.48v-3.3h1.46V3.12h4.48v2.36h2.28v3.3h-2.28v2.8c0 1.02.46 1.3 1.24 1.3.3 0 .66-.06.84-.12v3.16c-.48.2-1.42.36-2.38.36zm14.7-12.24c-.24-.1-.58-.18-.9-.18-.9 0-1.22.64-1.22 1.48v.14h2.22v3.3h-2.22V16h-4.6V8.78h-1.8v-3.3h1.8v-.24c0-2.64 1.08-4.96 4.92-4.96.62 0 1.54.08 2.1.3l-.3 3.46zM58.5 16V5.48h4.44v1.2h.04a2.89 2.89 0 012.58-1.48c.34 0 .68.04.88.1l-.36 3.92a3.99 3.99 0 00-.98-.12c-1.2 0-1.98.8-1.98 1.8V16h-4.62zm11.57-6.66h3.18c0-.74-.6-1.28-1.52-1.28-1.02 0-1.58.7-1.66 1.28zm7.16 1.5c0 .34-.02.74-.04.98H70.1c.08.74.96 1.2 1.8 1.2.84 0 1.44-.38 1.72-.74l3.28 1.66c-.92 1.5-2.78 2.46-5.12 2.46-3.06 0-5.96-1.94-5.96-5.66 0-3.48 2.62-5.66 5.86-5.66 3.3 0 5.54 2.44 5.54 5.76zm9.44 1.82c0 2.82-2.7 3.74-4.66 3.74-1.8 0-3.68-.54-4.94-1.5l2.26-2.62a3.8 3.8 0 002.38.98c.32 0 .66-.1.66-.42 0-.34-.44-.5-1.66-.78-1.32-.3-2.96-1.18-2.96-3.2 0-2.74 2.7-3.78 4.62-3.78 1.62 0 3.3.5 4.58 1.36l-2.16 2.58a3.94 3.94 0 00-2.04-.68c-.44 0-.78.1-.78.44 0 .26.2.36 1.4.6 1.66.34 3.3 1.26 3.3 3.28zm8.37-7.46c2.96 0 3.76 2.32 3.76 4.4V16h-4.64v-5.6c0-1.06-.34-1.44-1-1.44-.54 0-1.04.44-1.04 1.46V16H87.5V.88h4.62v5.76h.04a3.45 3.45 0 012.88-1.44zM5.64 38.28c-2.8 0-4.16-1.2-4.16-3.74v-3.76H0v-3.3h1.46v-2.36h4.48v2.36h2.28v3.3H5.94v2.8c0 1.02.46 1.3 1.24 1.3.3 0 .66-.06.84-.12v3.16c-.48.2-1.42.36-2.38.36zM16.22 27.2c2.96 0 3.76 2.32 3.76 4.4V38h-4.64v-5.6c0-1.06-.34-1.44-1-1.44-.54 0-1.04.44-1.04 1.46V38H8.68V22.88h4.62v5.76h.04a3.45 3.45 0 012.88-1.44zm5 10.8V27.48h4.62V38h-4.62zm-.08-13.56c0-1.28 1.1-2.36 2.42-2.36a2.4 2.4 0 012.36 2.36c0 1.32-1.1 2.34-2.36 2.34a2.37 2.37 0 01-2.42-2.34zM35.8 34.66c0 2.82-2.7 3.74-4.66 3.74-1.8 0-3.68-.54-4.94-1.5l2.26-2.62a3.8 3.8 0 002.38.98c.32 0 .66-.1.66-.42 0-.34-.44-.5-1.66-.78-1.32-.3-2.96-1.18-2.96-3.2 0-2.74 2.7-3.78 4.62-3.78 1.62 0 3.3.5 4.58 1.36l-2.16 2.58a3.94 3.94 0 00-2.04-.68c-.44 0-.78.1-.78.44 0 .26.2.36 1.4.6 1.66.34 3.3 1.26 3.3 3.28zM40.83 38V27.48h4.5v1.16h.04a3.66 3.66 0 013-1.44c2.96 0 3.76 2.32 3.76 4.4V38h-4.64v-5.6c0-1.06-.34-1.44-1-1.44-.6 0-1.04.52-1.04 1.44V38h-4.62zm16.34-6.66h3.18c0-.74-.6-1.28-1.52-1.28-1.02 0-1.58.7-1.66 1.28zm7.16 1.5c0 .34-.02.74-.04.98h-7.08c.08.74.96 1.2 1.8 1.2.84 0 1.44-.38 1.72-.74l3.28 1.66c-.92 1.5-2.78 2.46-5.12 2.46-3.06 0-5.96-1.94-5.96-5.66 0-3.48 2.62-5.66 5.86-5.66 3.3 0 5.54 2.44 5.54 5.76zm9.42-.24L72.17 38h-4.58l-3.6-10.52h4.94l1.32 5.44h.08l1.36-5.44h4.44l1.46 5.44h.06l1.28-5.44h4.72L80 38h-4.6l-1.62-5.4h-.04zm17.21 5.22l.08-.22-4.26-10.12h5.12l1.56 5.54h.08l1.38-5.54h4.94l-4.32 11.16c-1.02 2.62-2.42 4.16-5.52 4.16-.96 0-2.08-.18-2.62-.32l.58-3.8c.34.12.9.24 1.3.24 1.02 0 1.44-.46 1.68-1.1zm12.82-6.48h3.17c0-.74-.6-1.28-1.52-1.28-1.02 0-1.58.7-1.66 1.28zm7.16 1.5c0 .34-.02.74-.05.98h-7.08c.08.74.97 1.2 1.8 1.2.84 0 1.45-.38 1.72-.74l3.28 1.66c-.92 1.5-2.78 2.46-5.11 2.46-3.06 0-5.97-1.94-5.97-5.66 0-3.48 2.63-5.66 5.86-5.66 3.3 0 5.55 2.44 5.55 5.76zm6.58.8h-.27c-1.36 0-2.25.24-2.25 1.04 0 .58.61.82 1.06.82.88 0 1.45-.62 1.45-1.5v-.36zm-.3-2.28v-.04c0-.64-.48-.94-1.2-.94-.84 0-1.64.42-2.22.9L111.5 29a7.31 7.31 0 015-1.92c4 0 5.06 2.42 5.06 5.38V38h-4.19v-.84h-.04c-.52.8-1.66 1.12-2.58 1.12-1.64 0-3.66-.88-3.66-3.38 0-2.94 3.34-3.54 6.13-3.54zm5.43 6.64V27.48h4.44v1.2h.04a2.89 2.89 0 012.58-1.48c.34 0 .68.04.88.1l-.36 3.92a3.99 3.99 0 00-.98-.12c-1.2 0-1.98.8-1.98 1.8V38h-4.62z" fill="#fff"/></svg>