<svg width="91" height="24" viewBox="0 0 91 24" fill="none" xmlns="http://www.w3.org/2000/svg"><g clip-path="url(#clip0_209_8501)"><path d="M10.38 21.18c5.74 0 10.38-4.6 10.38-10.26S16.12.67 10.38.67C4.65.67 0 5.26 0 10.92s4.65 10.26 10.38 10.26z" fill="#2CA01C"/><path d="M6.92 6.93a4.01 4.01 0 00-4.04 4c0 2.2 1.81 3.98 4.04 3.98h.58v-1.48h-.58a2.52 2.52 0 01-2.54-2.5c0-1.4 1.14-2.52 2.54-2.52h1.39v7.75c0 .82.67 1.48 1.5 1.48V6.94H6.92zM13.85 14.9a4.01 4.01 0 004.03-3.98c0-2.2-1.8-3.99-4.03-3.99h-.58v1.48h.58c1.4 0 2.53 1.13 2.53 2.51s-1.13 2.5-2.53 2.5h-1.4V5.69a1.5 1.5 0 00-1.5-1.48v10.7h2.9zM30.62 23.67h-1.6v-4.02h-.03a2.53 2.53 0 01-2.13 1.03c-1.95 0-3.16-1.54-3.16-3.39 0-1.87 1.29-3.33 3.12-3.33 1.18 0 1.9.57 2.22 1.07h.04v-.88h1.54v9.52zm-3.44-4.31c1.18 0 1.9-1.05 1.9-2.04 0-1-.72-2.06-1.9-2.06-1.24 0-1.84 1.04-1.84 2.03 0 1 .6 2.07 1.84 2.07zM37.83 20.5h-1.52v-1.03h-.03a2.19 2.19 0 01-2 1.2c-1.66 0-2.36-1.26-2.36-2.56v-3.96h1.6v3.51c0 .76.18 1.7 1.2 1.7 1.03 0 1.5-.88 1.5-1.72v-3.5h1.61v6.35zM39.45 14h1.6v6.35h-1.6v-6.34zM47.06 15.9c-.26-.35-.8-.62-1.33-.62-1.17 0-1.76 1.05-1.76 2.04s.6 2.03 1.82 2.03c.5 0 1.04-.2 1.35-.56l1 1c-.53.57-1.42.89-2.37.89-1.9 0-3.48-1.24-3.48-3.36 0-2.06 1.56-3.36 3.44-3.36.94 0 1.92.37 2.43 1l-1.1.95zM48.95 10.5h1.6v6.32h.04l2.44-2.67h2.06L52.3 17l2.95 3.48h-2.12l-2.55-3.25h-.04v3.25h-1.6v-10zM57.6 10.5v4.45h.04c.34-.4.98-.99 2.16-.99 1.83 0 3.11 1.46 3.11 3.34 0 1.85-1.2 3.38-3.15 3.38-.9 0-1.77-.41-2.21-1.14h-.03v.95h-1.53v-10h1.61zm1.84 4.76c-1.18 0-1.9 1.07-1.9 2.06 0 1 .72 2.04 1.9 2.04 1.24 0 1.84-1.08 1.84-2.07 0-.99-.6-2.03-1.84-2.03zM67.1 13.96c1.94 0 3.5 1.34 3.5 3.34 0 2-1.56 3.38-3.5 3.38s-3.49-1.39-3.49-3.38c0-2 1.55-3.34 3.5-3.34zm0 5.4c1.27 0 1.86-1.08 1.86-2.07 0-.99-.59-2.03-1.86-2.03s-1.86 1.04-1.86 2.03c0 1 .6 2.07 1.86 2.07zM74.79 13.96c1.94 0 3.49 1.34 3.49 3.34 0 2-1.55 3.38-3.5 3.38-1.93 0-3.49-1.39-3.49-3.38 0-2 1.56-3.34 3.5-3.34zm0 5.4c1.27 0 1.86-1.08 1.86-2.07 0-.99-.6-2.03-1.86-2.03-1.28 0-1.86 1.04-1.86 2.03 0 1 .58 2.07 1.86 2.07zM79.25 10.5h1.61v6.32h.04l2.44-2.67h2.06L82.6 17l2.96 3.48h-2.13l-2.54-3.25h-.04v3.25h-1.6v-10zM89.95 15.84a1.83 1.83 0 00-1.4-.69c-.51 0-1.03.19-1.03.69 0 .49.5.62 1.39.83.95.23 2.07.65 2.07 1.89 0 1.55-1.27 2.12-2.67 2.12-1 0-2.03-.37-2.64-1.05l1.06-.98c.34.45.95.8 1.64.8.47 0 1.03-.19 1.03-.76 0-.53-.5-.69-1.47-.9-.95-.23-1.9-.62-1.9-1.8 0-1.42 1.28-2.03 2.55-2.03.93 0 1.9.32 2.41.97l-1.04.9zM41.3 5.49c0 1.6 1.3 2.78 2.96 2.78 1.65 0 2.96-1.17 2.96-2.78v-3.7h-1.6v3.5c0 .87-.6 1.46-1.37 1.46-.77 0-1.36-.59-1.36-1.45V1.8h-1.6v3.69zM51.5 3.27h1.92v4.87h1.6V3.27h1.92V1.8h-5.43v1.48zM50.47 1.8h-1.6v6.34h1.6V1.8zM34.82 3.27h1.91v4.87h1.6V3.27h1.92V1.8h-5.43v1.48zM26.4 1.8h-1.6v6.34h1.6V1.8zM33.98 4.45c0-1.61-1.31-2.79-2.97-2.79-1.65 0-2.96 1.18-2.96 2.79v3.7h1.6V4.63c0-.87.6-1.45 1.37-1.45.77 0 1.36.58 1.36 1.45v3.5h1.6v-3.7z" fill="#fff"/></g><defs><clipPath id="clip0_209_8501"><path fill="#fff" transform="translate(0 .67)" d="M0 0h91v23H0z"/></clipPath></defs></svg>