<svg width="103" height="42" viewBox="0 0 103 42" fill="none" xmlns="http://www.w3.org/2000/svg"><rect y="7.23" width="103" height="28" rx="2.72" fill="#fff"/><path d="M30.69 24.73v-7.68h3c1.16 0 2.35.53 2.35 1.93 0 .87-.54 1.44-1.33 1.68v.02c.96.13 1.66.79 1.66 1.82 0 1.67-1.46 2.23-2.91 2.23h-2.77zm1.37-6.56v2h1.21c.92 0 1.4-.38 1.4-1.04 0-.68-.48-.96-1.52-.96h-1.1zm0 3.18v2.23h1.22c.71 0 1.72-.14 1.72-1.15 0-.8-.55-1.08-1.66-1.08h-1.28zm10.35-1.83v5.21h-1.24v-.83h-.02c-.23.52-.84.99-1.62.99-1.35 0-1.92-1.05-1.92-2.11v-3.26h1.3v2.89c0 .62.15 1.4.98 1.4s1.22-.73 1.22-1.42v-2.87h1.3zm3.02 5.21l-2.23-5.2h1.44l1.46 3.78h.02l1.29-3.79h1.36l-2.47 6.33c-.37.95-.82 1.5-1.98 1.5a2.9 2.9 0 01-.67-.08l.11-1.13c.17.05.35.07.49.07.55 0 .7-.27.92-.81l.26-.67zm6.83 0v-5.2h1.24v.83h.02c.23-.52.85-1 1.62-1 1.36 0 1.92 1.05 1.92 2.12v3.25h-1.3v-2.88c0-.62-.14-1.4-.98-1.4-.82 0-1.22.72-1.22 1.42v2.86h-1.3zm6.02-2.62c0-1.64 1.26-2.74 2.83-2.74 1.58 0 2.84 1.1 2.84 2.74a2.74 2.74 0 01-2.84 2.78 2.74 2.74 0 01-2.83-2.78zm1.32 0c0 .81.48 1.7 1.51 1.7s1.51-.89 1.51-1.7c0-.82-.48-1.68-1.5-1.68-1.04 0-1.52.86-1.52 1.68zm6.69 2.62l-1.82-5.2h1.41l1.1 3.73h.01l1.12-3.74h1.4l1.12 3.74h.02l1.11-3.74h1.36l-1.8 5.21h-1.33l-1.18-3.64h-.03l-1.17 3.64H66.3z" fill="#000"/></svg>