<svg width="92" height="85" viewBox="0 0 92 85" fill="none" xmlns="http://www.w3.org/2000/svg"><g filter="url(#filter0_d_228_14401)"><rect x="5.51" y="4" width="81" height="74" rx="2.52" fill="#fff"/><g clip-path="url(#clip0_228_14401)"><path d="M31.64 26.41h-.75v-3.08h.75v3.08zm3.45 0h-.85L33 24.4h-.01L33 26.4h-.72v-3.08h.85l1.24 2.01h.01l-.02-2.01h.73v3.08zm3.35-3.08l-1.2 3.08h-.74l-1.16-3.08h.83l.72 2.19h.02l.7-2.2h.83zm3.41 1.53c0 .97-.71 1.64-1.68 1.64-.96 0-1.68-.67-1.68-1.64 0-1 .72-1.61 1.68-1.61.97 0 1.68.62 1.68 1.6zm-.8 0c0-.54-.36-.94-.88-.94s-.88.4-.88.94c0 .56.36.96.88.96s.89-.4.89-.96zm2.04 1.55h-.75v-3.08h.75v3.08zm3.35-.42c-.27.3-.68.5-1.2.5-.95 0-1.65-.66-1.65-1.62 0-1 .73-1.62 1.67-1.62.43 0 .9.15 1.15.45l-.5.5a.77.77 0 00-.63-.28c-.51 0-.88.4-.88.95 0 .56.36.94.87.94.3 0 .52-.13.65-.31l.52.49zm2.47.42h-2.15v-3.08h2.07v.63h-1.35v.58h1.28v.6h-1.28v.64h1.43v.63zm3.23 0h-.73v-2.26l-.58.44-.37-.52 1.01-.74h.67v3.08zm3.47-1.55c0 .88-.34 1.64-1.2 1.64-.88 0-1.22-.76-1.22-1.64 0-.87.34-1.61 1.21-1.61.87 0 1.2.74 1.2 1.61zm-.75 0c0-.39-.07-1-.46-1-.38 0-.46.61-.46 1 0 .4.08 1 .46 1 .39 0 .46-.6.46-1zm3.56 0c0 .88-.33 1.64-1.2 1.64-.88 0-1.21-.76-1.21-1.64 0-.87.33-1.61 1.2-1.61.88 0 1.21.74 1.21 1.61zm-.75 0c0-.39-.07-1-.45-1-.39 0-.46.61-.46 1 0 .4.07 1 .46 1 .38 0 .45-.6.45-1zm2.92 1.55h-.73v-2.26l-.58.44-.38-.52 1.02-.74h.67v3.08z" fill="#2CA01C"/><path d="M23.63 30.15v.7c.76.01 1.64.26 2.27.76-.32.38-.65.75-.98 1.11a2.02 2.02 0 00-1.3-.55v1.63c1.05.31 2.31.76 2.31 2.21 0 1.49-1.15 2.19-2.34 2.23v.74h-.76v-.74a4.07 4.07 0 01-2.5-.94l1.06-1.11c.37.4 1 .69 1.44.7V35.1c-1.16-.31-2.21-.76-2.21-2.12 0-1.33 1.2-2.09 2.27-2.14v-.7h.74zm-.74 3.48v-1.48c-.37.04-.72.28-.72.72 0 .43.29.64.72.76zm.7 1.66v1.6c.45-.01.74-.32.74-.78 0-.47-.32-.68-.74-.82zm7.53 2.85h-1.7v-5.29l-1.35 1.04-.88-1.2 2.37-1.75h1.56v7.2zm4.55-1.63l-.99 2.89h-1.37l.76-2.89h1.6zm6.38 1.63h-5.2v-1.42l2.8-2.54c.35-.34.59-.68.59-1.11 0-.51-.36-.87-.9-.87-.56 0-.94.45-1.01 1.1l-1.64-.23c.16-1.46 1.34-2.32 2.75-2.32 1.32 0 2.6.7 2.6 2.2 0 1.03-.6 1.63-1.26 2.22l-1.67 1.48h2.94v1.49zm6.59-2.38c0 1.75-1.37 2.57-2.78 2.57-1.3 0-2.4-.69-2.73-1.83l1.55-.48c.16.5.6.87 1.16.87.58 0 1.08-.36 1.08-1.05 0-.85-.77-1.1-1.47-1.1-.51 0-1.25.14-1.76.32l.17-4.12h4.41v1.47h-2.9l-.06 1.14c.22-.06.51-.08.73-.08 1.44 0 2.6.78 2.6 2.29zm6.75-1.24c0 2.04-.77 3.81-2.8 3.81-2.05 0-2.83-1.77-2.83-3.8 0-2.04.78-3.78 2.82-3.78s2.8 1.74 2.8 3.77zm-1.75 0c0-.9-.16-2.33-1.06-2.33s-1.07 1.43-1.07 2.33c0 .93.17 2.35 1.07 2.35s1.06-1.42 1.06-2.35zm4.77 2.72a1 1 0 01-1.01 1c-.56 0-1.04-.43-1.04-.99 0-.54.47-1 1.04-1a1 1 0 011.01 1zm6.6-2.72c0 2.04-.78 3.81-2.81 3.81-2.04 0-2.83-1.77-2.83-3.8 0-2.04.79-3.78 2.83-3.78 2.03 0 2.8 1.74 2.8 3.77zm-1.75 0c0-.9-.17-2.33-1.06-2.33-.9 0-1.08 1.43-1.08 2.33 0 .93.18 2.35 1.08 2.35.9 0 1.06-1.42 1.06-2.35zm8.31 0c0 2.04-.77 3.81-2.8 3.81-2.04 0-2.83-1.77-2.83-3.8 0-2.04.79-3.78 2.83-3.78 2.03 0 2.8 1.74 2.8 3.77zm-1.74 0c0-.9-.17-2.33-1.06-2.33-.9 0-1.08 1.43-1.08 2.33 0 .93.17 2.35 1.08 2.35.9 0 1.06-1.42 1.06-2.35zM32.31 46.86v-3.08h1.02c.77 0 1.62.51 1.62 1.54s-.85 1.54-1.62 1.54h-1.02zm.31-2.8v2.53h.63c.92 0 1.37-.63 1.37-1.27 0-.63-.45-1.26-1.37-1.26h-.63zm4.73 2.8h-.28l-.02-.34c-.12.23-.42.4-.7.4-.52 0-.78-.34-.78-.84v-1.25h.3v1.12c0 .43.12.72.55.72.31 0 .62-.25.62-.8v-1.04h.3v1.59l.01.44zm.93-1.17h1.4c-.02-.39-.26-.67-.68-.67-.4 0-.69.32-.72.67zm1.7.1l-.01.13h-1.69c0 .41.33.74.74.74.31 0 .54-.17.66-.35l.22.18c-.24.3-.54.43-.88.43-.6 0-1.05-.46-1.05-1.08 0-.6.45-1.07 1.03-1.07.64 0 .97.46.97 1.01zm1.97.26l-.33.81h-.35l1.34-3.08h.3l1.33 3.08h-.35l-.34-.8h-1.6zm.8-1.92l-.68 1.64h1.36l-.68-1.64zm3.69 2.73h-.29l-.01-.34h-.01c-.12.23-.41.4-.7.4-.52 0-.77-.34-.77-.84v-1.25h.3v1.12c0 .43.12.72.54.72.32 0 .62-.25.62-.8v-1.04h.3v1.59c0 .1 0 .3.02.44zm.66.64l.21-.23c.16.21.47.38.78.38.58 0 .8-.36.8-.8v-.39h-.01a.93.93 0 01-.77.4c-.64 0-1.06-.44-1.06-1.03 0-.58.42-1.06 1.06-1.06.3 0 .6.15.77.4v-.34h.3v2.02c0 .44-.2 1.06-1.1 1.06-.38 0-.74-.16-.98-.41zm.27-1.68c0 .43.28.8.77.8.46 0 .78-.33.78-.8 0-.43-.32-.8-.78-.8-.5 0-.77.37-.77.8zm4.35 1.04h-.28l-.02-.34h-.01c-.11.23-.41.4-.7.4-.52 0-.77-.34-.77-.84v-1.25h.3v1.12c0 .43.12.72.55.72.31 0 .61-.25.61-.8v-1.04h.3v1.59c0 .1 0 .3.02.44zm2.08-1.72l-.23.17a.55.55 0 00-.5-.29c-.22 0-.43.1-.43.32 0 .2.15.28.48.35.48.1.71.28.71.6 0 .46-.4.63-.77.63a.95.95 0 01-.8-.4l.23-.17c.1.17.33.31.57.31.25 0 .48-.09.48-.35 0-.22-.21-.3-.6-.4-.24-.05-.59-.16-.59-.54 0-.42.36-.6.73-.6.28 0 .58.14.72.37zm1.54-.31v.24h-.58v1.2c0 .3.13.37.3.37a.6.6 0 00.27-.07v.26a.96.96 0 01-.34.06c-.22 0-.52-.1-.52-.54v-1.28h-.42v-.24h.42v-.58h.3v.58h.57zm4.42-1.05v.29l-1.25 2.8h-.35l1.28-2.81h-1.51v-.28h1.83z" fill="#393A3D"/></g><rect x="15.07" y="52.77" width="61.87" height="15.08" rx="2.01" fill="#2CA01C"/><path d="M30.65 58.25l-.52.56a1.1 1.1 0 00-.82-.38c-.36 0-.79.18-.79.61 0 .41.35.53.86.69.57.17 1.3.43 1.3 1.3 0 .96-.75 1.43-1.63 1.43-.58 0-1.17-.22-1.53-.64l.57-.53c.22.3.62.5.98.5.37 0 .8-.2.8-.67 0-.47-.46-.6-1.02-.77-.55-.17-1.13-.44-1.13-1.27 0-.9.82-1.31 1.63-1.31.45 0 .96.16 1.3.48zm1.37 2.28h1.55c0-.4-.22-.73-.72-.73-.44 0-.8.3-.83.73zm2.3.34v.2h-2.3c.03.43.42.74.86.74.38 0 .63-.15.8-.39l.5.4c-.3.41-.72.61-1.3.61-.93 0-1.62-.6-1.62-1.58 0-.98.69-1.62 1.6-1.62.85 0 1.46.55 1.46 1.64zm.74 1.47v-3.02h.71v.48h.02c.13-.3.49-.57.94-.57.78 0 1.11.6 1.11 1.22v1.9h-.76v-1.68c0-.36-.08-.81-.56-.81-.48 0-.7.42-.7.82v1.66h-.76zm6.74-4.76v4.76h-.72v-.45h-.01c-.21.35-.62.54-1.04.54-.92 0-1.49-.73-1.49-1.61 0-.9.6-1.59 1.47-1.59.55 0 .86.28 1.01.47h.02v-2.12h.76zm-2.5 3.24c0 .47.3.98.88.98.55 0 .89-.5.89-.97s-.34-.98-.9-.98c-.58 0-.86.5-.86.97zm5 1.52v-3.02h.76v3.02h-.76zm-.1-4.05c0-.24.2-.45.48-.45.27 0 .49.2.49.45 0 .26-.22.45-.5.45a.47.47 0 01-.47-.45zm1.78 4.05v-3.02h.72v.48c.14-.3.5-.57.95-.57.79 0 1.11.6 1.11 1.22v1.9h-.75v-1.68c0-.36-.09-.81-.57-.81s-.7.42-.7.82v1.66h-.76zm4.43 0l-1.22-3.02h.83l.8 2.2.8-2.2h.8l-1.2 3.02h-.8zm2.29-1.52c0-.95.73-1.59 1.64-1.59.92 0 1.65.64 1.65 1.59 0 .95-.73 1.61-1.65 1.61-.91 0-1.64-.66-1.64-1.61zm.77 0c0 .47.28.98.87.98.6 0 .88-.5.88-.98 0-.47-.28-.97-.88-.97s-.87.5-.87.97zm3.26 1.52v-3.02h.76v3.02h-.76zm-.1-4.05c0-.24.2-.45.48-.45.27 0 .49.2.49.45 0 .26-.22.45-.5.45a.47.47 0 01-.47-.45zm4.36 1.41l-.52.46a.8.8 0 00-.62-.3c-.55 0-.83.5-.83.97s.28.97.86.97c.23 0 .49-.1.63-.27l.48.48c-.26.27-.67.42-1.12.42-.9 0-1.64-.6-1.64-1.6 0-.98.73-1.6 1.62-1.6.44 0 .9.18 1.14.47zm1.07.83h1.55c0-.4-.22-.73-.7-.73-.46 0-.81.3-.85.73zm2.31.34v.2h-2.3c.03.43.42.74.86.74.38 0 .63-.15.8-.39l.5.4c-.3.41-.72.61-1.3.61-.93 0-1.62-.6-1.62-1.58 0-.98.68-1.62 1.6-1.62.84 0 1.46.55 1.46 1.64z" fill="#fff"/></g><defs><clipPath id="clip0_228_14401"><path fill="#fff" transform="translate(9.38 14.15)" d="M0 0h73.26v38.61H0z"/></clipPath><filter id="filter0_d_228_14401" x=".48" y=".23" width="91.06" height="84.06" filterUnits="userSpaceOnUse" color-interpolation-filters="sRGB"><feFlood flood-opacity="0" result="BackgroundImageFix"/><feColorMatrix in="SourceAlpha" values="0 0 0 0 0 0 0 0 0 0 0 0 0 0 0 0 0 0 127 0" result="hardAlpha"/><feOffset dy="1.26"/><feGaussianBlur stdDeviation="2.52"/><feColorMatrix values="0 0 0 0 0 0 0 0 0 0 0 0 0 0 0 0 0 0 0.2 0"/><feBlend in2="BackgroundImageFix" result="effect1_dropShadow_228_14401"/><feBlend in="SourceGraphic" in2="effect1_dropShadow_228_14401" result="shape"/></filter></defs></svg>