<svg width="51" height="50" viewBox="0 0 51 50" fill="none" xmlns="http://www.w3.org/2000/svg"><g clip-path="url(#clip0_209_8822)" filter="url(#filter0_f_209_8822)"><path d="M26.23 6.2l.01.13.02.37.02.57.02.75.01.89v.98l-.01 1.05-.03 1.09-.04 1.08-.06 1.05a35.08 35.08 0 01-.13 1.86 35.68 35.68 0 01-.17 1.68l-.01.13-.01-.13-.02-.37-.02-.58a31.1 31.1 0 01-.03-1.63v-.98l.01-1.05.03-1.09.04-1.09.05-1.05.07-.98a54.75 54.75 0 01.13-1.62l.06-.57.04-.37.02-.13z" fill="#38E8F6"/><path d="M31.97 9.01l-.07.14-.18.4-.65 1.44-.45.96-.5 1.06-.55 1.14-.56 1.16-.58 1.17-.56 1.12-1 1.99-.74 1.4-.21.39-.07.14.06-.15.18-.4.66-1.43c.27-.6.6-1.29.95-2.02l.54-1.13.57-1.17.57-1.17.56-1.12.53-1.05.48-.94.74-1.4.2-.39.08-.13z" fill="#F54BAC"/><path d="M37.39 9.93l-.06.07-.16.2a24.27 24.27 0 01-2 2.09 24.05 24.05 0 01-1.08 1 33.48 33.48 0 01-2.24 1.86l-.21.15-.08.05.06-.07.16-.2a30.25 30.25 0 012-2.09l.53-.51.55-.5a21.87 21.87 0 011.52-1.3l.72-.55.2-.15.08-.05z" fill="#2B77CC"/><path d="M36.6 14.58l-.1.08-.26.2a39 39 0 01-2.34 1.74 59.16 59.16 0 01-1.6 1.1l-.84.54a67.08 67.08 0 01-3.73 2.22l.09-.08.27-.21a36.26 36.26 0 012.33-1.73c.26-.18.52-.37.8-.55.26-.19.54-.37.81-.55l.83-.55a48.9 48.9 0 013.33-2l.3-.15.1-.06z" fill="#38E8F6"/><path d="M41.81 15.15l-.1.05c-.06.04-.15.1-.27.15a30.76 30.76 0 01-2.46 1.22l-.82.37-.86.37a72.89 72.89 0 01-3.21 1.27l-1.08.37-.3.1-.12.03.1-.06.28-.15 1-.53a58.48 58.48 0 012.28-1.06l.86-.37.86-.36a47.25 47.25 0 013.43-1.27l.3-.1.12-.03zM38.7 18.39l-.12.05-.35.15-1.28.53-.85.35-.96.38-1.02.4-1.06.4-1.07.41-1.03.38-1.84.67c-.54.2-.99.34-1.3.45l-.37.13-.13.04.12-.05c.08-.04.2-.1.36-.16l1.27-.53 1.81-.73 1.03-.4 1.06-.4 1.06-.4 1.03-.39.97-.36.87-.3 1.3-.46.38-.12.13-.05z" fill="#F54BAC"/><path d="M44.58 21.54l-.13.02-.37.06-.58.08a28 28 0 01-.74.09l-.9.1-.98.09-1.06.09-1.1.08-1.1.06-1.06.05-1 .04-.89.02h-1.85l.13-.03c.09 0 .22-.03.37-.05l.58-.08.75-.09.88-.1 1-.09 1.05-.09 1.1-.08 1.1-.06c.36-.03.72-.04 1.06-.05l1-.04a48.11 48.11 0 012.23-.03l.38.01h.13z" fill="#38E8F6"/><path d="M28.68 24.1h.16l.45-.02a29.48 29.48 0 011.6-.02h1.06l1.2.02 1.27.04c.43 0 .87.02 1.3.04l1.32.06 1.28.06 1.19.08a43.28 43.28 0 011.96.16l.7.06.44.05.16.02h-.16l-.45.02-.7.01a34.6 34.6 0 01-1.96 0l-1.19-.01-1.27-.03-1.32-.05-1.3-.06c-.44-.01-.87-.04-1.28-.07l-1.19-.07-1.07-.08-.9-.08-.7-.07-.44-.04-.16-.02z" fill="#8F4BFF"/><path d="M27.17 24.72l.14.07.4.2 1.44.75.95.5 1.06.56 1.14.62 1.17.63 1.16.64 1.12.63c.73.4 1.4.8 1.99 1.13l1.4.8.38.24.14.08-.15-.07-.4-.2-1.44-.75c-.59-.3-1.28-.67-2.01-1.07l-1.13-.6-1.17-.64-1.16-.64-1.13-.63-1.05-.6-.93-.53-1.4-.8-.39-.24-.13-.08z" fill="#F54BAC"/><path d="M33.41 26.22l.1.02.24.05a22.18 22.18 0 012.1.54l.7.2.7.23.7.23.67.24a29.66 29.66 0 012.02.82l.23.11.08.04-.1-.01-.24-.05a26.69 26.69 0 01-2.1-.54l-.7-.2-.7-.23-.7-.24-.67-.24a33.85 33.85 0 01-2.02-.82l-.23-.1-.08-.04z" fill="#38E8F6"/><path d="M27.56 26.6l.1.07.3.18a51.6 51.6 0 012.5 1.69l.8.58.82.6.81.63a50.35 50.35 0 013.35 2.77l.09.08-.1-.06c-.07-.05-.18-.1-.3-.19a48.02 48.02 0 01-3.3-2.27l-.82-.6a64.82 64.82 0 01-3.9-3.16l-.26-.23-.09-.09z" fill="#2B77CC"/><path d="M30.59 30.22l.09.07.26.2a34.52 34.52 0 012.16 1.83l.69.63a58.03 58.03 0 011.4 1.32l.67.65a77.26 77.26 0 011.95 2.04l.22.25.07.09-.09-.07-.26-.2a35.32 35.32 0 01-2.16-1.84l-.7-.62-.7-.66-.7-.66a51.26 51.26 0 01-2.83-2.95l-.07-.08z" fill="#F54BAC"/><path d="M27.73 28.22l.08.12.23.32.8 1.17.52.79c.2.27.39.57.59.87l.61.95.64.97.62.98.6.95c.4.62.75 1.2 1.05 1.7l.73 1.2.2.35.07.12-.08-.12-.23-.32-.8-1.17-1.1-1.66-.62-.94-.63-.98-.63-.98-.6-.95a153.25 153.25 0 01-1.05-1.7l-.72-1.2c-.1-.15-.16-.27-.2-.34l-.08-.12z" fill="#2B77CC"/><path d="M25.57 25.7l.06.16.18.42a45.79 45.79 0 01.61 1.52l.4 1.02.42 1.15c.14.4.3.8.44 1.22l.45 1.27.43 1.28c.15.42.28.83.41 1.24l.37 1.16.32 1.04.26.89.19.68.12.44.04.16-.07-.15-.18-.42-.27-.66a50.82 50.82 0 01-.73-1.88l-.42-1.15c-.15-.4-.3-.8-.44-1.22l-.45-1.28-.43-1.27-.4-1.24c-.14-.4-.26-.8-.37-1.16l-.32-1.04-.26-.89-.2-.68-.11-.44-.04-.16h-.01zM24.63 26.61v.14l.04.41.03.64.04.82.03.98.02 1.08v1.16a185.32 185.32 0 01-.02 2.4c0 .4-.02.78-.03 1.16a51.8 51.8 0 01-.13 2.87l-.05.63-.04.4-.01.15-.01-.14-.03-.41a58.29 58.29 0 01-.07-1.46c-.01-.3-.03-.63-.03-.97l-.02-1.09-.01-1.16v-1.2l.02-1.2c0-.39.02-.78.03-1.15 0-.38.03-.74.04-1.09a42.73 42.73 0 01.1-1.79l.05-.63.03-.4.01-.15z" fill="#38E8F6"/><path d="M26.36 33.11l.03.13.1.37.16.57.19.74c.07.27.14.57.2.88l.23.98.23 1.06.21 1.09.2 1.09c.08.36.13.71.2 1.06l.16.99c.05.31.1.61.13.89l.1.75.08.59.04.37.01.14-.04-.13-.1-.37-.15-.57-.2-.74-.2-.88-.22-.98-.23-1.06a63 63 0 01-.22-1.09l-.2-1.09-.19-1.05-.16-1a97.47 97.47 0 01-.24-1.64l-.07-.59-.04-.37-.02-.14zM23.18 31.01l-.02.13c0 .08-.02.2-.05.36l-.2 1.28-.15.85-.16.95-.19 1.02-.2 1.05-.2 1.04-.2 1.02-.38 1.79-.28 1.26-.09.35-.03.13.02-.13.05-.36.2-1.28.31-1.8.19-1.02.2-1.05.2-1.04.2-1.02.2-.94.18-.85.29-1.26.08-.35.03-.13z" fill="#F54BAC"/><path d="M24.34 24.68l-.05.16-.17.45-.26.7-.34.9-.42 1.07-.49 1.18-.52 1.26-.56 1.3-.56 1.28-.56 1.25-.54 1.16-.5 1.03-.42.87-.34.66-.21.43-.08.15.05-.16.17-.45.25-.7.35-.9.42-1.07.48-1.18.53-1.26.55-1.3.57-1.28.56-1.24.54-1.16a59.23 59.23 0 01.92-1.9l.33-.67.22-.43.08-.15z" fill="#8F4BFF"/><path d="M22.35 26.91l-.02.06-.07.17-.28.58a15.15 15.15 0 01-.97 1.66l-.29.44-.3.41a14.87 14.87 0 01-.96 1.2l-.12.13-.05.05.02-.06.07-.17a13.18 13.18 0 01.97-1.8l.28-.44.3-.44.28-.41a17.77 17.77 0 01.97-1.2c.05-.06.1-.1.12-.14a.46.46 0 01.05-.04z" fill="#F54BAC"/><path d="M19.58 32.6l-.02.08-.08.22a17.7 17.7 0 01-.74 1.81l-.28.59-.3.6-.3.59-.31.57a25.18 25.18 0 01-1.03 1.67l-.13.2-.05.06.02-.08.08-.22a17.7 17.7 0 01.75-1.81l.28-.59.3-.6.3-.6.3-.56a28.52 28.52 0 011.03-1.68l.14-.19.04-.06z" fill="#D72792"/><path d="M21.56 26.56l-.1.1-.29.28-1.03 1-.69.65-.78.73-.84.78-.87.8-.87.78-.85.77c-.55.5-1.07.95-1.52 1.33-.45.4-.83.71-1.1.94l-.3.25-.1.1.1-.1.28-.28 1.03-1 1.47-1.39.84-.77.87-.8.87-.79.85-.76a233.94 233.94 0 011.53-1.34c.44-.4.82-.7 1.08-.93l.31-.26.11-.1zM18.03 31.66l-.06.1-.17.24a39.04 39.04 0 01-2.08 2.67l-.57.66-.57.65a53.37 53.37 0 01-2.35 2.45l-.22.2-.08.08.06-.09.17-.24a26.39 26.39 0 011.55-2.03l.53-.64.57-.67.57-.65.57-.63a41.82 41.82 0 011.78-1.82l.22-.2.08-.08z" fill="#2B77CC"/><path d="M21.7 24.6l-.15.07-.42.2-.66.3a64.26 64.26 0 01-1.88.81l-1.14.48-1.23.5-1.27.5-1.28.5-1.24.45a77.9 77.9 0 01-3.12 1.1l-.69.22-.44.14-.16.05.15-.08.42-.2.66-.3.86-.37 1.02-.44 1.14-.47 1.23-.5 1.27-.5 1.28-.5 1.24-.45 1.17-.43 1.05-.37.9-.3.69-.22.44-.14.16-.05z" fill="#38E8F6"/><path d="M20.23 22.83h-.13l-.38.03-.58.01-.76.02h-1.9l-1.06-.03a167.18 167.18 0 01-2.2-.08l-1.08-.06-1-.07-.9-.07-.75-.07-.58-.07-.38-.04-.13-.02h.13l.38-.02.58-.02.76-.01h1.9l1.06.02 1.1.04 1.11.05c.36.01.72.04 1.07.06l1 .06.9.07.75.07.58.07.38.04.13.02z" fill="#8F4BFF"/><path d="M7.97 25.28l1.44-.23.7-.1.8-.1.83-.1.87-.1.87-.1.85-.07 1.5-.14c.87-.07 1.46-.1 1.46-.1l-1.45.23a66.26 66.26 0 01-2.33.3l-.87.1-.87.09-.84.08-.8.08-.7.06c-.88.07-1.47.1-1.47.1z" fill="#F54BAC"/><path d="M9.35 16.7l.16.07c.1.05.24.1.43.2l1.55.67 1.04.47 1.15.52 1.22.56 1.27.59 1.26.59 1.22.58 2.16 1.04 1.51.76.43.21.15.08-.16-.07-.43-.18-1.56-.69-2.18-.98-1.23-.56a322.16 322.16 0 01-2.52-1.18l-1.22-.59-1.14-.54-1.02-.5c-.63-.3-1.15-.57-1.52-.76l-.42-.2-.15-.09z" fill="#2B77CC"/><path d="M11.04 12.95l.11.07.3.21.48.33.6.43.71.53.79.59.83.64.84.68.84.68.81.67.74.64a46.41 46.41 0 011.22 1.08l.42.39c.12.1.2.2.27.25l.1.1-.12-.08-.3-.2-.48-.33-.6-.44-.71-.52-.78-.59-.83-.64-.85-.68-.84-.68c-.28-.22-.54-.45-.8-.67l-.75-.64-.66-.58-.55-.5c-.17-.14-.3-.28-.42-.38l-.27-.26-.1-.09v-.01z" fill="#F54BAC"/><path d="M13.71 10.59l.1.1.29.34c.24.28.6.68 1 1.16l.67.79.74.88.79.94.8.98.8.99.77.95 1.35 1.71.95 1.22.26.34.09.12-.1-.11-.29-.33c-.24-.28-.6-.68-1-1.16l-1.4-1.67-.8-.95-.8-.97-.8-.99-.77-.96-.72-.9-.63-.8-.95-1.22-.26-.34-.09-.13z" fill="#2B77CC"/><path d="M17.13 8.85l.04.06.11.2a19.85 19.85 0 011.08 2.19l.24.57.23.58.21.57a20.17 20.17 0 01.55 1.74l.05.21.02.07-.04-.06a28.76 28.76 0 01-.94-1.83l-.25-.55-.25-.58-.23-.58a27.45 27.45 0 01-.75-2.31l-.06-.2a2.03 2.03 0 00-.01-.08z" fill="#38E8F6"/><path d="M20.65 11.55l.05.11.14.31c.12.27.3.65.48 1.12a57.03 57.03 0 01.96 2.49l.34.93a109.33 109.33 0 01.62 1.86 53.81 53.81 0 01.92 3.24l-.05-.11-.14-.31a40.54 40.54 0 01-1.1-2.7l-.34-.9-.33-.95A72.37 72.37 0 0120.76 12a8.07 8.07 0 01-.08-.33l-.03-.12z" fill="#F54BAC"/><path d="M21.59 6.44a31.88 31.88 0 00.16.6l.4 1.55.25 1.05.29 1.16.29 1.25.3 1.3.29 1.29.28 1.25.47 2.22.32 1.58.08.44.03.16-.04-.16-.12-.43-.4-1.56-.54-2.22-.3-1.25-.3-1.29-.28-1.3-.28-1.24-.25-1.18-.22-1.05-.32-1.57-.08-.44-.03-.16z" fill="#2B77CC"/><path d="M24.32 8.98l.02.06.04.15a9.45 9.45 0 01.27 1.32l.06.44.05.45.03.46.02.44a11.4 11.4 0 01-.04 1.34l-.02.15v.06l-.02-.05-.05-.16a12.58 12.58 0 01-.37-2.21l-.04-.46-.01-.44a12.06 12.06 0 01.03-1.34l.02-.16.01-.05zM18.08 27.6l-.06.06-.16.15a16.86 16.86 0 01-1.5 1.18l-.52.37-.54.36-.55.36-.53.33a29.86 29.86 0 01-1.68.94l-.2.1-.08.03.06-.06.17-.15a17.07 17.07 0 011.5-1.18l.51-.36.54-.37.55-.36a20.82 20.82 0 012.21-1.26l.2-.1.08-.03z" fill="#8F4BFF"/><path d="M43.73 17.82l.21.94.91.38-.84.46-.07.95-.74-.65-.95.2.4-.86-.53-.83.98.12.63-.71z" fill="#7CBCFF"/><path d="M43.73 17.82l.1.99 1.02.33-1.03.37.12 1.04-.69-.8-1 .35.54-.88-.67-.81 1.07.24.54-.83z" fill="#00B3C2"/><path d="M43.64 18.04l-.4.7-.95-.23 1 .32.35-.8zM43.03 19.78l.25-.08.53.61-.5-.67-.28.14z" fill="#7CBCFF"/><path d="M13.14 19.31l.12.52.5.2-.47.26-.04.51-.4-.35-.52.1.22-.46-.29-.45.54.06.34-.39z" fill="#B9E15E"/><path d="M13.14 19.31l.05.54.56.19-.56.2.06.56-.37-.43-.55.19.3-.48-.37-.44.58.13.3-.46z" fill="#A1CC3B"/><path d="M13.1 19.43l-.22.38-.53-.12.55.18.2-.44zM12.76 20.38l.13-.04.3.33-.27-.36-.16.07zM39.86 25.92l.11.5.5.22-.46.25-.04.52-.4-.36-.52.11.21-.47-.28-.45.53.06.35-.38z" fill="#B9E15E"/><path d="M39.86 25.92l.05.54.56.18-.56.2.06.57-.37-.44-.55.2.3-.49-.37-.44.58.13.3-.45z" fill="#A1CC3B"/><path d="M39.81 26.04l-.22.38-.52-.13.55.18.2-.43zM39.48 26.99l.13-.05.29.34-.27-.37-.15.08zM14.66 36.88l.22.98.94.4-.87.48-.08.98-.76-.68-.99.21.41-.9-.54-.85 1.01.12.66-.74z" fill="#B9E15E"/><path d="M14.66 36.88l.1 1.03 1.06.35-1.06.38.11 1.08-.7-.83-1.05.36.57-.91-.7-.84 1.1.25.57-.87z" fill="#A1CC3B"/><path d="M14.57 37.12l-.42.72-.99-.24 1.04.34.37-.82zM13.94 38.92l.25-.08.55.63-.5-.7-.3.15zM28.2 7.81l.12.51.5.21-.46.25-.04.52-.4-.35-.52.1.21-.46-.28-.46.53.07.34-.39z" fill="#B9E15E"/><path d="M28.2 7.81l.06.54.56.18-.56.2.06.57-.38-.44-.54.2.3-.48-.37-.45.58.14.3-.46z" fill="#A1CC3B"/><path d="M28.16 7.93l-.22.38-.52-.12.54.17.2-.43zM27.82 8.88l.14-.04.29.33-.27-.36-.16.07z" fill="#B9E15E"/><path d="M8.84 26.4l-.14.93.71.66-.95.14-.4.84-.46-.84-.96-.14.68-.66-.2-.93.88.44.84-.44z" fill="#C5E1FF"/><path d="M8.84 26.4l-.26.94.83.65H8.33l-.27.98-.36-.96-1.06-.02.82-.62-.33-.97.9.58.81-.58z" fill="#3492EF"/><path d="M8.68 26.58l-.62.5-.82-.53.82.63.62-.6zM7.49 27.96l.26.01.27.74-.22-.78-.31.04z" fill="#C5E1FF"/><path d="M31.04 15.56l-.1.72.55.51-.74.1-.31.66-.35-.65-.75-.11.52-.5-.14-.73.67.34.65-.34z" fill="#FF808C"/><path d="M31.04 15.56l-.2.73.65.5h-.84l-.21.76-.28-.75-.82-.01.64-.48-.26-.75.7.45.62-.45z" fill="#DB334D"/><path d="M30.92 15.7l-.49.38-.62-.4.63.49.48-.47zM30 16.77h.2l.21.58-.17-.6-.24.02zM26.54 40.31l-.07.52.4.36-.53.08-.23.46-.25-.46-.53-.08.37-.36-.1-.52.48.25.46-.25z" fill="#FF808C"/><path d="M26.54 40.31l-.14.52.46.36h-.6l-.15.54-.2-.53h-.58l.45-.35-.19-.54.5.32.45-.32z" fill="#DB334D"/><path d="M26.46 40.41l-.35.28-.45-.3.46.35.34-.33zM25.8 41.18h.14l.15.4-.12-.42-.17.02zM18.05 18.77l-.06.34.25.26-.36.03-.16.3-.16-.31-.35-.07.26-.23-.05-.35.31.18.32-.15z" fill="#FF808C"/><path d="M18.05 18.77l-.1.34.29.26-.4-.02-.12.36-.12-.36-.4-.03.33-.22-.11-.36.32.23.31-.2z" fill="#DB334D"/><path d="M17.99 18.83l-.24.18-.3-.21.3.24.24-.2zM17.53 19.32l.09.01.1.28-.08-.3-.11.01z" fill="#FF808C"/><path d="M23.15 24.87l-.09.6.46.42-.61.1-.27.54-.29-.55-.62-.09.44-.42-.12-.6.55.29.55-.29z" fill="#C5E1FF"/><path d="M23.15 24.87l-.17.6.54.42h-.7l-.18.64-.22-.63h-.69l.53-.4-.21-.63.58.37.52-.37z" fill="#3492EF"/><path d="M23.04 24.98l-.4.33-.52-.34.53.4.4-.39zM22.28 25.88h.17l.17.47-.14-.5-.2.03z" fill="#C5E1FF"/><path d="M30.58 25l-.05.29.22.2-.29.04-.12.26-.14-.26-.3-.04.21-.2-.06-.29.27.13.26-.13z" fill="#FF808C"/><path d="M30.58 25l-.08.29.25.2h-.33l-.08.3-.11-.3h-.33l.25-.2-.1-.29.28.18.25-.18z" fill="#DB334D"/><path d="M30.53 25.05l-.2.16-.24-.17.25.2.19-.19zM30.16 25.48h.08l.09.23-.07-.24-.1.01z" fill="#FF808C"/><path d="M19.96 16.08l-.05.28.22.2-.29.05-.12.25-.14-.25-.3-.05.2-.2-.05-.28.27.13.26-.13z" fill="#C5E1FF"/><path d="M19.96 16.08l-.08.29.25.2h-.33l-.08.3-.11-.3h-.33l.25-.2-.1-.3.28.18.25-.17z" fill="#3492EF"/><path d="M19.9 16.13l-.18.15-.25-.16.25.2.19-.19zM19.54 16.56h.08l.09.23-.07-.24h-.1z" fill="#C5E1FF"/><path d="M19.96 16.08l-.05.28.22.2-.29.05-.12.25-.14-.25-.3-.05.2-.2-.05-.28.27.13.26-.13z" fill="#C5E1FF"/><path d="M19.96 16.08l-.08.29.25.2h-.33l-.08.3-.11-.3h-.33l.25-.2-.1-.3.28.18.25-.17z" fill="#3492EF"/><path d="M19.9 16.13l-.18.15-.25-.16.25.2.19-.19zM19.54 16.56h.08l.09.23-.07-.24h-.1zM34.1 35.06l-.06.43.34.31-.45.07-.19.4-.21-.4-.45-.07.31-.3-.09-.44.41.2.4-.2z" fill="#C5E1FF"/><path d="M34.1 35.06l-.11.44.39.3h-.51l-.13.46-.17-.45h-.5l.39-.3-.16-.45.43.27.38-.27z" fill="#3492EF"/><path d="M34.03 35.14l-.3.23-.37-.25.38.3.3-.28zM33.47 35.79h.12l.13.35-.1-.37-.15.02zM24.1 10.45l-.07.44.33.3-.45.07-.18.4-.22-.4-.45-.06.32-.31-.1-.44.42.2.4-.2z" fill="#C5E1FF"/><path d="M24.1 10.45l-.13.44.4.3h-.52l-.12.47-.17-.46h-.5l.39-.3-.16-.45.43.27.37-.27z" fill="#3492EF"/><path d="M24.02 10.53l-.3.24-.38-.25.39.3.29-.29zM23.46 11.18h.12l.13.35-.1-.36-.15.01z" fill="#C5E1FF"/><path d="M31.98 42.58a.33.33 0 01-.44.15.33.33 0 01-.17-.42.33.33 0 01.44-.16c.17.07.24.26.17.43z" fill="#F54BAC"/><path d="M32.82 40.83a.2.2 0 01-.26.09.2.2 0 01-.1-.26.2.2 0 01.26-.1c.1.05.14.17.1.27zM33.23 46.08a.2.2 0 01-.26.1.2.2 0 01-.1-.26.2.2 0 01.26-.1c.1.05.14.17.1.26z" fill="#2B77CC"/><path d="M35.62 44.82a.34.34 0 01-.45.16.34.34 0 01-.18-.45.34.34 0 01.45-.16c.18.08.26.28.18.45z" fill="#38E8F6"/><path d="M34.22 42a.16.16 0 01-.21.07.16.16 0 01-.09-.2.16.16 0 01.21-.08c.08.04.12.13.09.2z" fill="#FF808C"/><path d="M19.79 39.3a.33.33 0 01-.44.16.33.33 0 01-.17-.42.33.33 0 01.43-.16c.17.07.25.27.18.43z" fill="#F54BAC"/><path d="M20.63 37.56a.2.2 0 01-.26.1.2.2 0 01-.1-.27.2.2 0 01.26-.09c.1.05.14.16.1.26zM21.04 42.82a.2.2 0 01-.26.09.2.2 0 01-.1-.26.2.2 0 01.25-.1c.1.05.15.17.1.27z" fill="#2B77CC"/><path d="M23.43 41.55a.34.34 0 01-.45.16.34.34 0 01-.19-.45.34.34 0 01.46-.16c.18.08.26.28.18.45z" fill="#38E8F6"/><path d="M22.02 38.73a.16.16 0 01-.2.07.16.16 0 01-.09-.2.16.16 0 01.21-.08c.08.04.12.13.08.2z" fill="#FF808C"/><path d="M8.95 34.3c.13.12.13.33 0 .45a.34.34 0 01-.46 0 .32.32 0 01-.01-.46.34.34 0 01.46 0z" fill="#F54BAC"/><path d="M7.53 32.87c.08.08.08.2 0 .27a.2.2 0 01-.27 0 .19.19 0 01-.01-.27c.07-.08.2-.07.28 0zM12.72 34.48a.2.2 0 010 .27.2.2 0 01-.27 0 .19.19 0 010-.28.2.2 0 01.27 0z" fill="#2B77CC"/><path d="M12.27 31.81c.14.14.14.35.01.48a.35.35 0 01-.49 0 .33.33 0 010-.48.35.35 0 01.48 0z" fill="#38E8F6"/><path d="M9.1 32.04c.07.06.07.16.01.22a.16.16 0 01-.22 0 .15.15 0 010-.23.16.16 0 01.22 0z" fill="#FF808C"/><path d="M3.53 33.62c.14.06.2.2.14.33a.25.25 0 01-.34.13.25.25 0 01-.13-.34c.05-.12.2-.18.33-.12z" fill="#F54BAC"/><path d="M2.1 32.95c.08.03.12.12.09.2a.15.15 0 01-.2.07.16.16 0 01-.09-.2c.04-.07.13-.1.2-.07zM6.31 32.72c.08.04.12.12.08.2a.15.15 0 01-.2.07.16.16 0 01-.08-.2c.03-.07.12-.1.2-.07z" fill="#2B77CC"/><path d="M5.22 30.88c.14.06.2.22.15.35a.27.27 0 01-.36.13.27.27 0 01-.14-.35c.06-.13.21-.2.35-.13z" fill="#38E8F6"/><path d="M3 31.9c.06.03.1.1.07.17a.12.12 0 01-.17.05c-.06-.02-.1-.1-.06-.15.02-.06.1-.1.16-.07z" fill="#FF808C"/><path d="M6.63 24.22c.13.06.19.2.14.33a.26.26 0 01-.34.13.26.26 0 01-.14-.34c.05-.12.2-.18.34-.12z" fill="#F54BAC"/><path d="M5.2 23.55c.08.03.11.12.08.2a.15.15 0 01-.2.07c-.08-.03-.12-.12-.09-.2.04-.07.13-.1.2-.07zM9.4 23.32c.08.04.12.12.09.2-.03.08-.13.1-.2.08-.08-.04-.12-.13-.09-.2.04-.08.13-.11.2-.08z" fill="#2B77CC"/><path d="M8.32 21.48c.13.06.2.21.14.35a.27.27 0 01-.35.13.27.27 0 01-.15-.35c.06-.13.22-.2.36-.13z" fill="#38E8F6"/><path d="M6.1 22.5c.06.03.09.1.06.16a.12.12 0 01-.16.06.12.12 0 01-.07-.16c.03-.06.1-.08.16-.06z" fill="#FF808C"/><path d="M10.27 14.93a.24.24 0 01-.18.3.27.27 0 01-.32-.17.24.24 0 01.17-.3c.14-.04.29.03.33.17z" fill="#F54BAC"/><path d="M9.86 13.44a.15.15 0 01-.1.19.16.16 0 01-.2-.11.15.15 0 01.1-.19c.09-.02.17.03.2.11zM12.8 16.47a.15.15 0 01-.1.19.16.16 0 01-.2-.11.14.14 0 01.1-.19c.1-.01.18.03.2.11z" fill="#2B77CC"/><path d="M13.55 14.52a.26.26 0 01-.18.33.28.28 0 01-.34-.2.25.25 0 01.18-.31c.15-.04.3.04.34.18z" fill="#38E8F6"/><path d="M11.27 13.48a.12.12 0 01-.08.15c-.06.01-.13-.03-.15-.1a.12.12 0 01.08-.14c.07-.02.14.02.15.09z" fill="#FF808C"/><path d="M14.3 7.2a.24.24 0 01-.18.3.27.27 0 01-.32-.18.24.24 0 01.17-.3c.14-.04.28.04.32.17z" fill="#F54BAC"/><path d="M13.88 5.7a.15.15 0 01-.1.19.16.16 0 01-.2-.1.15.15 0 01.11-.2c.08-.01.17.03.2.11zM16.83 8.74a.15.15 0 01-.1.18.16.16 0 01-.2-.1.15.15 0 01.1-.2c.09-.01.18.03.2.12z" fill="#2B77CC"/><path d="M17.58 6.79a.25.25 0 01-.19.32.28.28 0 01-.33-.19.26.26 0 01.18-.32c.14-.04.3.04.34.19z" fill="#38E8F6"/><path d="M15.3 5.74a.12.12 0 01-.08.15.13.13 0 01-.15-.09.12.12 0 01.08-.15c.06-.01.13.03.15.09z" fill="#FF808C"/><path d="M19.52 4.16a.34.34 0 01-.48.05.33.33 0 01-.06-.46.34.34 0 01.48-.05c.15.11.18.32.06.47z" fill="#F54BAC"/><path d="M20.82 2.63a.2.2 0 01-.28.03.2.2 0 01-.04-.28.2.2 0 01.29-.03c.09.07.1.2.04.28zM19.88 7.96a.2.2 0 01-.29.03.2.2 0 01-.04-.28.2.2 0 01.29-.03c.1.07.1.2.04.28z" fill="#2B77CC"/><path d="M22.62 7.29a.36.36 0 01-.5.05.35.35 0 01-.06-.5.36.36 0 01.5-.04c.16.12.18.34.06.49z" fill="#38E8F6"/><path d="M21.93 4.14a.17.17 0 01-.23.02.16.16 0 01-.03-.23.17.17 0 01.23-.02c.07.06.09.16.03.23z" fill="#FF808C"/><path d="M29.69 9.35a.35.35 0 01-.48.04.33.33 0 01-.07-.47.34.34 0 01.48-.04c.15.11.18.32.07.47z" fill="#F54BAC"/><path d="M30.99 7.81a.2.2 0 01-.3.03.2.2 0 01-.03-.28c.07-.09.2-.1.29-.03.09.07.1.2.04.28zM30.04 13.14a.2.2 0 01-.29.03.2.2 0 01-.03-.28.2.2 0 01.28-.03c.1.07.11.2.04.28z" fill="#2B77CC"/><path d="M32.79 12.47a.36.36 0 01-.5.05.35.35 0 01-.07-.5.36.36 0 01.5-.05c.16.13.19.35.07.5z" fill="#38E8F6"/><path d="M32.1 9.31a.17.17 0 01-.23.03.16.16 0 01-.04-.23.17.17 0 01.24-.02c.07.06.08.16.03.22z" fill="#FF808C"/><path d="M40.08 16.46c.18.06.29.24.24.42a.33.33 0 01-.42.22.34.34 0 01-.24-.41.33.33 0 01.42-.23z" fill="#F54BAC"/><path d="M38.09 15.83a.2.2 0 01.14.25.2.2 0 01-.25.13.2.2 0 01-.14-.25.2.2 0 01.25-.13zM43.54 14.8c.1.03.17.14.14.25a.2.2 0 01-.25.13.2.2 0 01-.14-.25.2.2 0 01.25-.13z" fill="#2B77CC"/><path d="M41.78 12.56c.2.06.3.25.25.44a.35.35 0 01-.44.23.36.36 0 01-.25-.43.35.35 0 01.44-.24z" fill="#38E8F6"/><path d="M39.07 14.3c.09.03.14.12.11.2-.02.08-.11.13-.2.1a.17.17 0 01-.11-.2.16.16 0 01.2-.1z" fill="#FF808C"/><path d="M46.7 18.02c.14.04.23.18.2.33a.26.26 0 01-.34.17.27.27 0 01-.2-.33.27.27 0 01.34-.18z" fill="#F54BAC"/><path d="M45.13 17.51c.08.03.14.12.11.2a.16.16 0 01-.2.1.16.16 0 01-.11-.19.16.16 0 01.2-.1zM49.44 16.7c.08.03.13.12.11.2a.16.16 0 01-.2.1.16.16 0 01-.11-.2.16.16 0 01.2-.1z" fill="#2B77CC"/><path d="M48.05 14.93c.15.05.24.2.2.35-.04.14-.2.22-.35.18a.28.28 0 01-.2-.34c.04-.15.2-.23.35-.19z" fill="#38E8F6"/><path d="M45.9 16.3c.07.02.11.1.1.16-.02.07-.1.1-.17.09a.13.13 0 01-.09-.16c.02-.07.1-.1.16-.08z" fill="#FF808C"/><path d="M43.79 24.75c.15.04.23.18.2.32a.26.26 0 01-.34.18.27.27 0 01-.2-.33.26.26 0 01.34-.17z" fill="#F54BAC"/><path d="M42.22 24.24c.08.03.14.12.11.2a.16.16 0 01-.2.1c-.08-.02-.13-.1-.11-.19a.16.16 0 01.2-.1zM46.53 23.43c.09.02.14.11.11.2a.16.16 0 01-.2.1.16.16 0 01-.1-.2.16.16 0 01.19-.1z" fill="#2B77CC"/><path d="M45.14 21.66c.15.04.24.2.2.34a.28.28 0 01-.35.19.28.28 0 01-.2-.35c.04-.14.2-.22.35-.18z" fill="#38E8F6"/><path d="M43 23.03c.06.02.1.1.09.16a.13.13 0 01-.17.09c-.06-.02-.1-.1-.09-.16.02-.07.1-.1.16-.08z" fill="#FF808C"/><path d="M39.94 32.03c.14.04.23.2.19.33a.27.27 0 01-.33.18.27.27 0 01-.2-.33.26.26 0 01.34-.18z" fill="#F54BAC"/><path d="M38.37 31.53c.08.02.13.11.11.2a.16.16 0 01-.2.1.16.16 0 01-.11-.2c.02-.08.1-.13.2-.1zM42.68 30.71c.08.03.13.12.11.2a.16.16 0 01-.2.1.16.16 0 01-.11-.19.16.16 0 01.2-.1z" fill="#2B77CC"/><path d="M41.29 28.95c.15.04.24.2.2.34a.27.27 0 01-.35.18.28.28 0 01-.2-.34c.04-.15.2-.23.35-.18z" fill="#38E8F6"/><path d="M39.14 30.32c.07.02.11.09.1.16-.02.06-.1.1-.17.08a.13.13 0 01-.09-.16c.02-.06.1-.1.16-.08z" fill="#FF808C"/><path d="M35.87 37.65a.31.31 0 01-.3.35.34.34 0 01-.36-.3.31.31 0 01.3-.34c.18-.02.34.12.36.3z" fill="#F54BAC"/><path d="M35.69 35.7c.01.11-.07.2-.17.21a.2.2 0 01-.23-.17.2.2 0 01.18-.22c.1 0 .2.08.22.18zM38.73 40.13c.01.11-.06.2-.17.21a.2.2 0 01-.22-.17c-.02-.1.06-.2.17-.21.1-.01.2.07.22.17z" fill="#2B77CC"/><path d="M40.12 37.85a.33.33 0 01-.3.37.36.36 0 01-.39-.31.33.33 0 01.3-.37c.2-.01.37.12.39.31z" fill="#38E8F6"/><path d="M37.48 36.05c0 .09-.06.16-.14.17a.16.16 0 01-.18-.14.15.15 0 01.14-.17c.09 0 .17.06.17.14z" fill="#FF808C"/></g><defs><clipPath id="clip0_209_8822"><path fill="#fff" transform="rotate(24.22 7.78 36.35)" d="M0 0h38v37H0z"/></clipPath><filter id="filter0_f_209_8822" x="-.58" y="-.99" width="51.84" height="51.33" filterUnits="userSpaceOnUse" color-interpolation-filters="sRGB"><feFlood flood-opacity="0" result="BackgroundImageFix"/><feBlend in="SourceGraphic" in2="BackgroundImageFix" result="shape"/><feGaussianBlur stdDeviation=".5" result="effect1_foregroundBlur_209_8822"/></filter></defs></svg>