<svg width="95" height="7" viewBox="0 0 95 7" fill="none" xmlns="http://www.w3.org/2000/svg"><path d="M2.1 1.53l.76-.25.17.46-.77.24.5.66-.4.28-.5-.67-.5.67-.39-.28.5-.66-.77-.24.16-.46.76.25V.75h.48v.78zM4.02.75l.93 3.39h.02l1-3.39h.65l.99 3.39.94-3.39h.63L7.94 5h-.62L6.29 1.59h-.02L5.24 5h-.62L3.38.75h.64zm6.35 1.84c.14-.28.5-.51.9-.51.74 0 1.07.52 1.07 1.16V5h-.56V3.43c0-.46-.12-.87-.64-.87-.45 0-.77.37-.77.93V5H9.8V.46h.57V2.6zm3.37.74h1.7c-.02-.45-.28-.8-.8-.8a.88.88 0 00-.9.8zm2.27.22v.2h-2.27a.9.9 0 00.93.86c.38 0 .66-.2.83-.43l.4.32c-.31.4-.73.58-1.23.58-.87 0-1.5-.6-1.5-1.5 0-.88.63-1.5 1.47-1.5S16 2.65 16 3.55zm.82-1.4h.53c.02.15.03.35.03.47h.02c.13-.3.51-.54.92-.54.73 0 1.06.52 1.06 1.16V5h-.56V3.42c0-.46-.13-.87-.65-.87-.44 0-.76.37-.76.94V5h-.57V2.77c0-.15 0-.43-.02-.61zm5.7 2.42v1.87h-.56V2.16h.55v.44h.02c.18-.3.55-.52 1.02-.52.85 0 1.42.65 1.42 1.5 0 .83-.55 1.5-1.43 1.5-.4 0-.8-.19-1-.5h-.02zm1.87-1c0-.53-.33-1.02-.95-1.02-.57 0-.96.48-.96 1.03 0 .54.39 1.02.96 1.02.62 0 .95-.5.95-1.03zM28.37 5h-.54a6.8 6.8 0 01-.02-.47h-.01c-.15.3-.52.55-.93.55-.73 0-1.06-.52-1.06-1.16V2.16h.56v1.57c0 .47.13.87.65.87.45 0 .76-.37.76-.93V2.16h.56v2.23c0 .15 0 .42.03.61zm1.01-2.23c0-.15 0-.43-.02-.61h.53l.03.48h.01a.96.96 0 011.1-.54l-.03.52a1.13 1.13 0 00-.26-.03c-.54 0-.8.44-.8.92V5h-.56V2.77zm4.53-.22l-.4.33a.8.8 0 00-.66-.33c-.59 0-.93.48-.93 1.03 0 .54.34 1.02.93 1.02.3 0 .54-.12.69-.3l.38.33c-.24.28-.61.45-1.07.45-.87 0-1.53-.6-1.53-1.5s.65-1.5 1.52-1.5c.4 0 .84.16 1.07.47zm1.2.04h.01c.13-.28.5-.51.9-.51.73 0 1.06.52 1.06 1.16V5h-.56V3.43c0-.46-.12-.87-.64-.87-.45 0-.77.37-.77.93V5h-.56V.46h.56V2.6zm4.76.65v-.08c0-.42-.28-.63-.7-.63-.32 0-.62.14-.81.33l-.3-.36c.27-.26.7-.42 1.16-.42.82 0 1.19.48 1.19 1.11v1.25c0 .19.01.42.04.56h-.51a1.85 1.85 0 01-.05-.4h-.02c-.2.3-.52.47-.95.47-.45 0-1.03-.22-1.03-.87 0-.86 1.02-.96 1.98-.96zm0 .4h-.14c-.56 0-1.27.06-1.27.54 0 .34.3.45.59.45.52 0 .82-.36.82-.84v-.15zm3.47-1.1l-.4.34a.78.78 0 00-.65-.36c-.26 0-.53.1-.53.37 0 .24.21.33.65.43.54.12.95.34.95.84 0 .67-.56.92-1.13.92-.44 0-.88-.17-1.15-.51l.4-.34c.15.22.44.4.76.4.28 0 .56-.11.56-.42 0-.27-.26-.36-.74-.48-.38-.09-.83-.25-.83-.78 0-.61.53-.87 1.07-.87.4 0 .83.16 1.04.47zm1.19.79h1.69c-.01-.45-.28-.8-.8-.8a.88.88 0 00-.9.8zm2.26.22v.2h-2.26a.9.9 0 00.92.86c.38 0 .67-.2.83-.43l.4.32c-.31.4-.73.58-1.23.58-.86 0-1.5-.6-1.5-1.5 0-.88.64-1.5 1.47-1.5.84 0 1.37.57 1.37 1.47zm3.11 1c-.21.34-.62.53-1.02.53-.88 0-1.44-.67-1.44-1.5 0-.85.58-1.5 1.43-1.5.46 0 .82.23 1.02.5V.46h.57V5h-.54v-.45h-.02zm-1.87-.98c0 .54.33 1.03.94 1.03.58 0 .96-.48.96-1.02 0-.55-.38-1.03-.96-1.03-.61 0-.94.49-.94 1.02zm5.6-1.41V5h-.56V2.16h.56zm.1-1.03c0 .2-.17.36-.38.36a.37.37 0 01-.37-.36c0-.2.17-.37.37-.37.2 0 .38.16.38.37zm.92 1.03h.54l.02.46h.02c.14-.3.52-.54.92-.54.74 0 1.07.52 1.07 1.16V5h-.57V3.42c0-.46-.12-.87-.65-.87-.44 0-.76.37-.76.94V5h-.56V2.77c0-.15 0-.43-.03-.61zm5.7 2.39V5h-.55V.46h.57v2.12h.01c.2-.27.55-.5 1.02-.5.84 0 1.42.65 1.42 1.5 0 .83-.56 1.5-1.43 1.5-.4 0-.8-.19-1.03-.53zm1.89-.98c0-.53-.33-1.02-.95-1.02-.58 0-.96.48-.96 1.03 0 .54.38 1.02.96 1.02.62 0 .95-.5.95-1.03zM66.2 5h-.53a6.8 6.8 0 01-.03-.47c-.15.3-.52.55-.94.55-.73 0-1.06-.52-1.06-1.16V2.16h.56v1.57c0 .47.13.87.65.87.45 0 .76-.37.76-.93V2.16h.57v2.23c0 .15 0 .42.02.61zm1-2.84h.53l.02.46h.02c.14-.3.51-.54.92-.54.73 0 1.06.52 1.06 1.16V5h-.56V3.42c0-.46-.13-.87-.65-.87-.44 0-.76.37-.76.94V5h-.56V2.77c0-.15-.01-.43-.03-.61zm5.84 2.39c-.22.34-.63.53-1.03.53-.88 0-1.43-.67-1.43-1.5 0-.85.57-1.5 1.42-1.5.47 0 .82.23 1.02.5h.01V.46h.56V5h-.54v-.45h-.01zm-1.88-.98c0 .54.33 1.03.95 1.03.57 0 .96-.48.96-1.02 0-.55-.39-1.03-.96-1.03-.62 0-.95.49-.95 1.02zm4.05-3.1V5h-.56V.46h.56zm1.44 2.86h1.69c-.01-.45-.28-.8-.8-.8a.88.88 0 00-.9.8zm2.26.22v.2h-2.26a.9.9 0 00.92.86c.38 0 .67-.2.83-.43l.4.32c-.31.4-.73.58-1.23.58-.86 0-1.5-.6-1.5-1.5 0-.88.64-1.5 1.47-1.5.84 0 1.37.57 1.37 1.47zm2.77-1l-.39.33a.78.78 0 00-.66-.36c-.26 0-.53.1-.53.37 0 .24.22.33.65.43.54.12.95.34.95.84 0 .67-.55.92-1.13.92-.43 0-.88-.17-1.15-.51l.4-.34c.16.22.44.4.76.4.28 0 .57-.11.57-.42 0-.27-.26-.36-.75-.48-.38-.09-.83-.25-.83-.78 0-.61.54-.87 1.08-.87.4 0 .83.16 1.03.47zm5.24 1.02c0 .88-.67 1.5-1.53 1.5-.88 0-1.53-.62-1.53-1.5 0-.87.66-1.5 1.53-1.5.86 0 1.53.63 1.53 1.5zm-.59 0c0-.54-.33-1.02-.94-1.02-.61 0-.95.48-.95 1.02s.34 1.03.95 1.03c.6 0 .94-.49.94-1.03zm2.77-1.41v.46h-.66V5h-.56V2.62h-.57v-.46h.57v-.6c0-.66.3-1.17 1.06-1.17.13 0 .25.01.35.04l-.06.49a1 1 0 00-.28-.04c-.43 0-.5.33-.5.68v.6h.65zm4.74-1.4v.5H92.1l-.04 1.12c.16-.05.38-.07.55-.07.82 0 1.42.51 1.42 1.33 0 .9-.63 1.47-1.48 1.47a1.4 1.4 0 01-1.36-.85l.53-.21c.13.34.45.57.83.57.5 0 .89-.37.89-.92 0-.64-.47-.93-1-.93-.32 0-.68.1-.94.24l.06-2.26h2.3z" fill="#fff"/></svg>