<svg width="95" height="121" viewBox="0 0 95 121" fill="none" xmlns="http://www.w3.org/2000/svg"><path d="M69.78 105.72c-1.53-.27-2.32.65-2.52 1.15-.28.36-.14 1.75 1.45 2.03 1.99.34 2.22-.65 2.3-.96.07-.3.68-1.87-1.23-2.22z" stroke="#14324F" stroke-width=".35" stroke-linejoin="round"/><path d="M80.02 87.93c2.77.3 8.63.86 13.02 1.89M8.26 118.27c-.52-3.11-.14-13.73-1.33-19.1 3.56-.54 17.92-.45 32.02 0 16.91.54 30.29 1.32 35.03 2.22-.28 2.3-.4 5.99-.77 9.68-.31 3.17-.03 7.53 0 8.93-4.24-.62-15.8-1.29-19.75-1.29-4.8 0-13.07-.44-18.8-.44H8.26zM17.25 76.86v5.45c5.05.36 16.2 1.15 20.3 1.46 5.14.38 31.28 1.53 32.82 1.53h3.61m0 0l-.4-4.83m.4 4.83l4.66-4.37" stroke="#14324F" stroke-width=".88" stroke-linejoin="round"/><path d="M73.77 101.47l19.2-11.58-.8 15.78-19.11 14.2M7.29 98.96l20.4-11.22 5.5-.3m34.16 6.17l13.52-8.93m0 0l-.74 3.06-13.65 9.04m14.4-12.1h-6.25m-51.32 7.77l9.88-5.01m3.88-1.97l-3.88 1.97" stroke="#14324F" stroke-width=".88" stroke-linejoin="round"/><path d="M34.26 83.46c.67 1.18 4.34 3.63 13.72 4 9.39.36 14.23-1.44 15.49-2.39" stroke="#14324F" stroke-width=".35" stroke-linejoin="round"/><path d="M38.9 86.08c-.8.1-2.4.66-2.34 1.76.08 1.39 9.2 2 13.1 2.07 3.92.08 9.77.2 11.5-.38 1.48-.49 2.19-2.04-1.19-3.02" stroke="#14324F" stroke-width=".35" stroke-linejoin="round"/><path d="M23.76 95.44l-.69-3c3.14.13 6.46-.2 18.73 0 7.1.13 20.23.32 25.62.93l-1.3 3.7c-9.63-1.09-32.11-2.01-42.36-1.63zM16.79 41.88v-15.9c4.77 0 18.73-1.79 31.01-1.67 9.83.1 20.64 1.15 24.81 1.67-.6 4.9-.83 18.65-.95 22.59-.1 3.15-.37 15.22-.65 21.87-1.55.04-13.4 1.5-19.73 1.5-4.22 0-8.69 0-14.12-.3-6.28-.33-15.66-2.07-21.18-2.31.47-7.69.8-22.86.8-27.45z" stroke="#14324F" stroke-width=".88" stroke-linejoin="round"/><path d="M79.62 80.96c.14-9.3.52-28.83.86-32.63.35-3.8.58-22.18.65-30.9m-1.51 63.53l7-5.4-.31-10.27c-.24-8.17-.45-17.19-.33-19.77a1449.89 1449.89 0 00.65-25.6l-5.5-2.49m-1.51 63.53c-2.31-.27-8.95-.77-17.48-1.35-15.98-1.1-38.6-2.5-51.87-3.3V18.12c4.74-.6 24.7-.69 32.46-.69h38.4" stroke="#14324F" stroke-width=".88" stroke-linejoin="round"/><path d="M86.3 68.97c-.23-8.17-.44-17.19-.32-19.77.13-2.93.36-12.4.52-19.78 5.43 3.01 5.95 2.71 6.7 5.41.76 2.7.98 18.59.98 20.75s0 6.16-.97 7.02c-.78.7-4.93 4.54-6.9 6.37zM61.7 79.65c.11-1.35.35-4.13.42-4.4.08-.27 3.06-.11 4.55 0l-.17 4.67" stroke="#14324F" stroke-width=".88" stroke-linejoin="round"/><path d="M89.77 50.37c-3.79 1.61-5.91-1.22-6.06-5.45-.1-3.04-4.11-6.05-5.96-7.4 9.96-1.27 15.81 11.25 12.02 12.85zM8.27 67.52c2.26.41 3-1.5 2.46-3.96-.39-1.76 1.32-4.04 2.12-5.07-5.53.62-6.85 8.62-4.58 9.03z" fill="#EAF6F7" stroke="#14324F" stroke-width=".35" stroke-linejoin="round"/><path d="M16.33 110.86v-3.15c4.62-.37 10.2-.6 12.54-.65v-1.84c8.63-.46 19.7-.32 23.2 0l.23 1.84c2.07.2 8.6.37 11.82.65v3.45c-3.54-.3-9.34-.78-11.82-.78l-.22 1.75c-6.76-.97-18.35-.3-23.02-.3l-.2-1.45c-4.8.32-10.25.48-12.53.48z" stroke="#14324F" stroke-width=".35" stroke-linejoin="round"/><path d="M1.45 23.19c1.89-4.57 7.09-9.38 9.52-11.31l-1.13-1.42C9.02 9.84 11.22 6.6 14 5c3.55-2.05 5.86-2.35 6.7-1.54.09.07.17.17.23.28.27.37.54.91.79 1.48.66-1.21 2.37-2.55 5.93-2.78 3.43-.22 6.88 1.35 7.45 2.05 2.86-.45 6.58-.5 9.77.91 4.85 2.14 7.52 6.85 4.44 11.5 0 0-2.68-1-5.49-.37-2.32.25-5.33 15.03-15.4 8.08-2.53 3.47-7.3 6.69-14.23 5.62A7.09 7.09 0 0110.93 29C1.4 35.5-.9 28.9 1.45 23.2z" fill="#EAF6F7"/><path d="M10.97 11.88c-2.43 1.93-7.63 6.74-9.52 11.3C-.9 28.9 1.4 35.5 10.93 29m-.82-6.82c-1.18 2.3-2.03 7.12 4.08 8.05 6.94 1.07 11.7-2.15 14.23-5.62m4.52-5.54c-.44.48-1.82 2.06-3.8 4.58-.23.28-.72.96-.72.96m0 0c10.07 6.95 13.08-7.83 15.4-8.08 2.81-.62 5.48.38 5.48.38 3.1-4.66.42-9.37-4.43-11.5-3.2-1.42-6.91-1.37-9.77-.92m-3.53.85c.82-.3 2.06-.62 3.53-.85m0 0c-.57-.7-4.02-2.27-7.45-2.05-3.56.23-5.27 1.57-5.93 2.78m-9.35 8.41l-2.53-3.16m0 0C9.02 9.84 11.22 6.6 14 5c3.55-2.05 5.86-2.35 6.7-1.54M9.84 10.46c.41.48 2.4.75 7.07-1.98 4.66-2.74 4.46-4.5 3.79-5.03m0 0c.66.64 1.49 2.87 1.82 3.91m3.52-.67c-1.65-.32-5.46.44-8.58 5.58m-.94 1.74c.3-.63.62-1.2.94-1.74m-9.8 4.93c.29-1.13 2.66-3.7 9.8-4.93m0 0c-3.12 1.1-5.3 3.98-6 5.28" stroke="#14324F" stroke-width=".56" stroke-linecap="round"/><path d="M71.4 17.64l.93 2.5m1.68-2.5l1.17 4.16m1.02-4.16l2.04 6.57M18.36 76.22v-3.26m-2.45 3.26V72m-2.84 4.2l.57-5.64" stroke="#14324F" stroke-width=".2" stroke-linecap="round"/><path d="M49.25 46.65v.1a4.1 4.1 0 012.92 3.78c0 4-3.67 5.64-7.14 5.64-3.5 0-6.92-1.59-7.84-5.25l5.36-1.26c.19.85.98 1.7 2.17 1.7.65 0 1.5-.3 1.5-1.17 0-1.03-1-1.25-2.5-1.25H42.1v-3.95h1.83c1.23 0 2.03-.27 2.03-1.23 0-.75-.73-1-1.35-1-.8 0-1.57.51-1.74 1.48l-5.33-1.14c1.13-3.7 4.5-4.96 7.55-4.96 3.04 0 6.77 1.44 6.77 5.04a3.44 3.44 0 01-2.6 3.47z" fill="#14324F"/></svg>