<svg width="96" height="121" viewBox="0 0 96 121" fill="none" xmlns="http://www.w3.org/2000/svg"><path d="M70.52 105.72c-1.54-.27-2.34.65-2.55 1.15-.28.36-.13 1.75 1.47 2.03 2 .34 2.24-.65 2.32-.96.07-.3.7-1.87-1.24-2.22z" stroke="#14324F" stroke-width=".35" stroke-linejoin="round"/><path d="M80.87 87.93c2.8.3 8.72.86 13.16 1.89M8.34 118.27c-.52-3.11-.14-13.73-1.33-19.1 3.6-.54 18.1-.45 32.36 0 17.09.54 30.6 1.32 35.4 2.22-.3 2.3-.4 5.99-.78 9.68-.32 3.17-.04 7.53 0 8.93-4.29-.62-15.97-1.29-19.96-1.29-4.86 0-13.22-.44-19-.44H8.34zM17.43 76.86v5.45c5.11.36 16.37 1.15 20.53 1.46 5.19.38 31.6 1.53 33.15 1.53h3.66m0 0l-.4-4.83m.4 4.83l4.71-4.37" stroke="#14324F" stroke-width=".88" stroke-linejoin="round"/><path d="M74.55 101.47l19.41-11.58-.8 15.78-19.33 14.2M7.37 98.96l20.62-11.22 5.55-.3m34.52 6.17l13.67-8.93m0 0l-.75 3.06-13.8 9.04m14.55-12.1h-6.3m-51.87 7.77l9.98-5.01m3.92-1.97l-3.92 1.97" stroke="#14324F" stroke-width=".88" stroke-linejoin="round"/><path d="M34.62 83.46c.68 1.18 4.39 3.63 13.87 4 9.48.36 14.38-1.44 15.65-2.39" stroke="#14324F" stroke-width=".35" stroke-linejoin="round"/><path d="M39.3 86.08c-.8.1-2.41.66-2.35 1.76.08 1.39 9.3 2 13.24 2.07 3.96.08 9.87.2 11.63-.38 1.48-.49 2.2-2.04-1.21-3.02" stroke="#14324F" stroke-width=".35" stroke-linejoin="round"/><path d="M24.01 95.44l-.7-3c3.18.13 6.53-.2 18.93 0 7.19.13 20.45.32 25.9.93l-1.32 3.7c-9.73-1.09-32.45-2.01-42.8-1.63zM16.97 41.88v-15.9c4.82 0 18.92-1.79 31.34-1.67 9.93.1 20.86 1.15 25.07 1.67-.6 4.9-.84 18.65-.96 22.59-.1 3.15-.38 15.22-.66 21.87-1.57.04-13.55 1.5-19.94 1.5-4.27 0-8.78 0-14.26-.3-6.36-.33-15.83-2.07-21.41-2.31.48-7.69.82-22.86.82-27.45z" stroke="#14324F" stroke-width=".88" stroke-linejoin="round"/><path d="M80.46 80.96c.15-9.3.53-28.83.87-32.63.35-3.8.59-22.18.66-30.9m-1.53 63.53l7.09-5.4c-.1-2.71-.22-6.4-.33-10.27-.24-8.17-.45-17.19-.33-19.77a1434.55 1434.55 0 00.66-25.6l-5.56-2.49m-1.53 63.53c-2.33-.27-9.04-.77-17.66-1.35-16.15-1.1-39.01-2.5-52.42-3.3V18.12c4.8-.6 24.96-.69 32.8-.69h38.8" stroke="#14324F" stroke-width=".88" stroke-linejoin="round"/><path d="M87.22 68.97c-.24-8.17-.44-17.19-.33-19.77.14-2.93.37-12.4.53-19.78 5.49 3.01 6.01 2.71 6.78 5.41.76 2.7.98 18.59.98 20.75s0 6.16-.98 7.02c-.79.7-4.98 4.54-6.98 6.37zM62.36 79.65c.11-1.35.34-4.13.42-4.4.08-.27 3.1-.11 4.6 0l-.18 4.67" stroke="#14324F" stroke-width=".88" stroke-linejoin="round"/><path d="M90.73 50.37c-3.83 1.61-5.98-1.22-6.13-5.45-.1-3.04-4.16-6.05-6.02-7.4 10.06-1.27 15.98 11.25 12.15 12.85zM8.35 67.52c2.3.41 3.03-1.5 2.49-3.96-.4-1.76 1.34-4.04 2.14-5.07-5.58.62-6.92 8.62-4.63 9.03z" fill="#EAF6F7" stroke="#14324F" stroke-width=".35" stroke-linejoin="round"/><path d="M16.5 110.86v-3.15c4.67-.37 10.3-.6 12.67-.65v-1.84c8.73-.46 19.92-.32 23.46 0l.23 1.84c2.09.2 8.69.37 11.94.65v3.45c-3.58-.3-9.44-.78-11.94-.78l-.23 1.75c-6.83-.97-18.54-.3-23.26-.3l-.2-1.45c-4.85.32-10.37.48-12.67.48z" stroke="#14324F" stroke-width=".35" stroke-linejoin="round"/><path d="M1.47 23.19c1.9-4.57 7.16-9.38 9.61-11.31l-1.14-1.42c-.83-.62 1.4-3.87 4.2-5.47 3.6-2.05 5.93-2.35 6.77-1.54.1.07.18.17.25.28.26.37.53.91.78 1.48.67-1.21 2.4-2.55 6-2.78 3.47-.22 6.96 1.35 7.53 2.05 2.89-.45 6.65-.5 9.88.91 4.9 2.14 7.6 6.85 4.48 11.5 0 0-2.7-1-5.54-.37-2.35.25-5.4 15.03-15.57 8.08-2.56 3.47-7.37 6.69-14.38 5.62a7.2 7.2 0 01-3.3-1.23c-9.63 6.5-11.96-.09-9.57-5.8z" fill="#EAF6F7"/><path d="M11.08 11.88c-2.45 1.93-7.71 6.74-9.61 11.3C-.92 28.9 1.4 35.5 11.05 29m-.83-6.82c-1.2 2.3-2.05 7.12 4.12 8.05 7.01 1.07 11.82-2.15 14.38-5.62m4.57-5.54a92.3 92.3 0 00-4.57 5.54m0 0c10.18 6.95 13.22-7.83 15.57-8.08 2.83-.62 5.54.38 5.54.38 3.12-4.66.42-9.37-4.48-11.5-3.23-1.42-7-1.37-9.88-.92m-3.56.85c.83-.3 2.08-.62 3.56-.85m0 0c-.57-.7-4.06-2.27-7.53-2.05-3.6.23-5.33 1.57-6 2.78m-9.44 8.41l-2.56-3.16m0 0c-.83-.62 1.4-3.87 4.2-5.47 3.6-2.05 5.93-2.35 6.77-1.54M9.94 10.46c.42.48 2.43.75 7.14-1.98 4.71-2.74 4.52-4.5 3.83-5.03m0 0c.68.64 1.51 2.87 1.85 3.91m3.56-.67c-1.67-.32-5.52.44-8.67 5.58m-.95 1.74c.3-.63.62-1.2.95-1.74M7.74 17.2c.3-1.13 2.69-3.7 9.9-4.93m0 0c-3.15 1.1-5.36 3.98-6.07 5.28" stroke="#14324F" stroke-width=".56" stroke-linecap="round"/><path d="M72.16 17.64l.93 2.5m1.71-2.5l1.18 4.16M77 17.64l2.06 6.57M18.55 76.22v-3.26m-2.47 3.26V72m-2.88 4.2l.58-5.64" stroke="#14324F" stroke-width=".2" stroke-linecap="round"/><path d="M43.87 55.06v-11L41 46.05l-2.7-4.2L44.35 38h5.3v17.07h-5.78z" fill="#14324F"/></svg>