<svg width="108" height="110" viewBox="0 0 108 110" fill="none" xmlns="http://www.w3.org/2000/svg"><path d="M33.02 11.64c6.74.38 13.96 3.1 19.23 7.75l-11.48 11.4a13.22 13.22 0 00-9.46-4.58c-2.71 0-4.5.7-4.5 2.4 0 1.64 1.63 2.1 5.43 3.34 7.91 2.48 18.54 5.9 18.54 16.9 0 11.56-8.92 17.92-18.61 18.7v5.89h-7.91v-5.82c-7.21-.54-14.43-3.57-19.23-7.68L16.27 48c2.56 2.72 7.29 5.2 11.79 5.2 2.09 0 4.1-.62 4.1-2.48 0-2.02-1.93-2.72-9.69-5.2-7.44-2.48-14.19-6.28-14.19-15.66 0-10.93 8.07-16.67 16.83-18.07V6.05H33v5.59zM71.57 67V31.64L62.34 38l-8.68-13.5 19.46-12.4h17.06V67h-18.6zM14.8 94.2l-2.77-.84 5.35-13.73 2.79.85L14.8 94.2zm10.47-8.1h-.1l.2 7.06h-3.91V80.67h5.48l2.26 6.72h.09l1.96-6.72h5.66v12.5h-4.08l.13-7.03-.1-.02-2.34 7.04h-2.96l-2.3-7.05zm13.57.75c0-4 2.99-6.53 6.94-6.53s6.95 2.52 6.95 6.53c0 4-3 6.67-6.95 6.67s-6.94-2.67-6.94-6.67zm4.47 0c0 1.62 1.04 2.78 2.47 2.78 1.4 0 2.47-1.16 2.47-2.78 0-1.63-1.06-2.68-2.47-2.68-1.43 0-2.47 1.05-2.47 2.68zm11.37 6.31V80.67h4.18l3.56 6.34h.07l-.18-6.34h3.99v12.5h-4.29l-3.45-5.97h-.07l.17 5.96h-3.98zm20.35-8.94v8.94h-4.2v-8.94h-3.07v-3.55H78.1v3.55h-3.07zm12.15 8.94v-4.74h-3.42v4.74h-4.2V80.67h4.18v4.24h3.42v-4.24h4.22v12.5h-4.2z" fill="#3BD85E"/><path d="M13.86 100.86h-3.12v1.53h2.88v1.49h-2.88v2.9H8.96v-7.46h4.9v1.54zm9.04 2.16c0 2.35-1.73 3.95-4.06 3.95-2.33 0-4.06-1.6-4.06-3.95 0-2.4 1.73-3.9 4.06-3.9 2.33 0 4.06 1.5 4.06 3.9zm-1.93 0c0-1.31-.87-2.28-2.13-2.28-1.27 0-2.13.97-2.13 2.28 0 1.34.87 2.31 2.13 2.31 1.25 0 2.13-.97 2.13-2.31zm9.32 3.75h-2.1l-1.62-2.95h-.61v2.95h-1.77v-7.45h2.84c1.44 0 2.86.55 2.86 2.25 0 1-.6 1.72-1.55 2.01l1.95 3.2zm-2.18-5.17c0-.7-.67-.83-1.2-.83h-.96v1.74h.85c.58 0 1.3-.15 1.3-.9zm11.47 2.67c0 1.7-1.33 2.7-2.94 2.7-1.62 0-2.94-1.03-2.94-2.66 0-.88.34-1.57.83-2.3l1.8-2.7h2.14l-1.83 2.56-.03.05a2.4 2.4 0 012.97 2.35zm-1.77.04c0-.67-.47-1.17-1.16-1.17-.7 0-1.18.49-1.18 1.18 0 .64.46 1.18 1.17 1.18.7 0 1.17-.48 1.17-1.19zm14.37 2.46h-1.75l.04-5.27h-.03l-1.94 5.27h-1.26l-1.89-5.27h-.03l.04 5.27h-1.7v-7.45h2.57l1.69 4.78h.04l1.62-4.78h2.6v7.45zm9.42-3.75c0 2.35-1.73 3.95-4.07 3.95-2.32 0-4.05-1.6-4.05-3.95 0-2.4 1.73-3.9 4.05-3.9 2.34 0 4.07 1.5 4.07 3.9zm-1.93 0c0-1.31-.87-2.28-2.14-2.28-1.26 0-2.12.97-2.12 2.28 0 1.34.87 2.31 2.12 2.31 1.26 0 2.14-.97 2.14-2.31zm10 3.75h-2.04l-3-4.87h-.03l.04 4.87h-1.75v-7.45h2.05l3 4.86h.03l-.05-4.86h1.75v7.45zm6.94-5.91h-2.1v5.91h-1.8v-5.91H70.6v-1.54h6.01v1.54zm7.43 5.91h-1.8v-3.11h-2.9v3.11h-1.8v-7.45h1.8v2.82h2.9v-2.82h1.8v7.45zm6.73-6.72l-1.15 1.2a1.8 1.8 0 00-1.32-.64c-.47 0-1.05.16-1.05.75 0 .5.45.66 1.15.88 1.01.32 2.32.75 2.32 2.24 0 1.71-1.38 2.48-2.86 2.48a3.94 3.94 0 01-2.79-1.07l1.18-1.2a2.2 2.2 0 001.61.79c.55 0 1.04-.21 1.04-.81 0-.57-.57-.75-1.55-1.06-.95-.31-1.9-.8-1.9-2.14 0-1.66 1.49-2.34 2.88-2.34.84 0 1.79.32 2.44.92zm5.33 1.27l-1.35.42.85 1.13-.95.66-.85-1.15-.83 1.1-.93-.65.85-1.1-1.35-.45.37-1.06 1.33.47v-1.37h1.16v1.37l1.34-.42.36 1.05z" fill="#fff"/></svg>