<svg width="214" height="13" viewBox="0 0 214 13" fill="none" xmlns="http://www.w3.org/2000/svg"><path d="M.12 10l3.7-8.5h1.3L8.8 10H7.06l-.8-1.94H2.59L1.82 10H.12zM3.1 6.76h2.64L4.44 3.3 3.1 6.76zm11.02-1.79l-.99.87a1.53 1.53 0 00-1.19-.57c-1.05 0-1.58.95-1.58 1.85 0 .9.54 1.85 1.63 1.85.45 0 .94-.18 1.21-.52l.9.91a2.9 2.9 0 01-2.12.8c-1.7 0-3.12-1.12-3.12-3.04 0-1.87 1.4-3.05 3.08-3.05.84 0 1.72.34 2.18.9zm5.5 0l-.99.87a1.53 1.53 0 00-1.19-.57c-1.05 0-1.58.95-1.58 1.85 0 .9.54 1.85 1.63 1.85.45 0 .94-.18 1.21-.52l.9.91a2.9 2.9 0 01-2.12.8c-1.7 0-3.12-1.12-3.12-3.04 0-1.87 1.4-3.05 3.08-3.05.84 0 1.72.34 2.18.9zm.24 2.13c0-1.82 1.4-3.03 3.13-3.03 1.74 0 3.13 1.21 3.13 3.03 0 1.8-1.39 3.07-3.13 3.07a3.02 3.02 0 01-3.13-3.07zm1.46 0c0 .9.53 1.87 1.67 1.87S24.66 8 24.66 7.1c0-.9-.53-1.85-1.67-1.85s-1.67.95-1.67 1.85zm11.1-2.86V10h-1.37v-.92h-.03c-.25.57-.93 1.09-1.79 1.09-1.5 0-2.12-1.15-2.12-2.33v-3.6h1.44v3.2c0 .68.16 1.53 1.08 1.53.91 0 1.34-.8 1.34-1.56V4.24h1.44zM33.77 10V4.24h1.37v.92h.03c.25-.57.93-1.09 1.78-1.09 1.5 0 2.13 1.15 2.13 2.33V10h-1.44V6.8c0-.68-.16-1.53-1.08-1.53-.91 0-1.35.8-1.35 1.56V10h-1.44zm6.8-4.6h-1V4.23h1V2.57H42v1.67h1.44v1.15H42v2.68c0 .51.12.89.76.89.2 0 .44-.04.61-.12l.05 1.12c-.25.1-.64.16-.96.16-1.52 0-1.87-.94-1.87-2.04V5.39zm3.57 4.6V4.24h1.44V10h-1.44zm-.2-7.72c0-.45.38-.86.9-.86.54 0 .94.37.94.86 0 .5-.4.87-.93.87a.89.89 0 01-.91-.87zM46.98 10V4.24h1.36v.92h.03c.25-.57.93-1.09 1.79-1.09 1.5 0 2.12 1.15 2.12 2.33V10h-1.44V6.8c0-.68-.16-1.53-1.08-1.53-.91 0-1.34.8-1.34 1.56V10h-1.44zm11.1-5.76h1.38v5.24c0 2.08-1.01 3.4-3.26 3.4-.93 0-2.1-.34-2.85-.95l.83-1.11c.55.52 1.3.81 2.01.81 1.4 0 1.83-.84 1.83-1.98v-.42h-.03c-.42.57-1.09.87-1.88.87-1.73 0-2.84-1.37-2.84-3 0-1.67 1.07-3.03 2.81-3.03.8 0 1.57.34 1.98 1.03h.03v-.86zm-1.7 1c-1.04 0-1.65.82-1.65 1.84 0 .92.61 1.83 1.64 1.83 1.07 0 1.72-.87 1.72-1.83 0-1-.66-1.83-1.7-1.83zm11.18-.3l-.94.84a1.63 1.63 0 00-1.26-.63c-.46 0-.92.17-.92.63 0 .44.44.56 1.24.75.86.2 1.86.59 1.86 1.72 0 1.4-1.14 1.92-2.4 1.92-.88 0-1.8-.34-2.36-.95l.95-.89c.3.41.85.72 1.47.72.42 0 .93-.17.93-.68 0-.48-.45-.63-1.32-.83-.85-.2-1.7-.55-1.7-1.63 0-1.29 1.15-1.84 2.29-1.84.82 0 1.69.29 2.16.88zm.54 2.16c0-1.82 1.4-3.03 3.13-3.03 1.74 0 3.13 1.21 3.13 3.03 0 1.8-1.39 3.07-3.13 3.07A3.02 3.02 0 0168.1 7.1zm1.46 0c0 .9.53 1.87 1.67 1.87S72.9 8 72.9 7.1c0-.9-.53-1.85-1.67-1.85s-1.67.95-1.67 1.85zm6.07 2.9V5.4h-1.1V4.23h1.1v-.85c0-1.38.54-2.6 2.33-2.6.3 0 .51.02.73.08l-.1 1.22a1.9 1.9 0 00-.55-.08c-.83 0-.97.72-.97 1.3v.93h1.33v1.15h-1.33V10h-1.44zm3.3-4.6h-1V4.23h1V2.57h1.42v1.67h1.44v1.15h-1.44v2.68c0 .51.12.89.76.89.19 0 .44-.04.6-.12l.06 1.12c-.26.1-.64.16-.96.16-1.53 0-1.88-.94-1.88-2.04V5.39zm4.73 4.6l-2-5.76h1.56l1.2 4.13h.02l1.24-4.13h1.53l1.25 4.13h.02l1.23-4.13h1.5l-2 5.76h-1.46l-1.3-4.03h-.03L85.12 10h-1.46zm11.67 0v-.73h-.03c-.3.5-.98.87-1.8.87-.92 0-2.15-.44-2.15-1.78 0-1.72 2.16-1.96 3.96-1.96v-.14c0-.71-.6-1.06-1.32-1.06-.61 0-1.2.29-1.57.66l-.75-.88c.65-.6 1.56-.9 2.44-.9 2.06 0 2.57 1.26 2.57 2.42V10h-1.35zm-.02-2.42v-.2h-.33c-.9 0-2.2.1-2.2.95 0 .55.52.72 1.02.72.98 0 1.5-.56 1.5-1.47zM97.99 10V4.24h1.38v.96h.03c.31-.66.92-1.13 1.68-1.13.1 0 .25.01.35.04v1.32c-.2-.05-.32-.06-.45-.06-1.3 0-1.55 1.13-1.55 1.55V10H98zm4.9-3.46h2.96c0-.74-.42-1.39-1.35-1.39-.86 0-1.54.59-1.6 1.4zm4.4.65l-.01.39h-4.38c.06.81.8 1.41 1.64 1.41.72 0 1.2-.29 1.53-.74l.96.77a2.87 2.87 0 01-2.47 1.15c-1.78 0-3.1-1.14-3.1-3.01 0-1.86 1.3-3.09 3.05-3.09 1.6 0 2.78 1.05 2.78 3.12zm3.9 2.81V5.4h-1.09V4.23h1.1v-.85c0-1.38.53-2.6 2.32-2.6.31 0 .52.02.73.08l-.1 1.22a1.9 1.9 0 00-.55-.08c-.82 0-.97.72-.97 1.3v.93h1.34v1.15h-1.34V10h-1.44zm2.97-2.9c0-1.82 1.4-3.03 3.13-3.03 1.74 0 3.13 1.21 3.13 3.03 0 1.8-1.39 3.07-3.13 3.07a3.02 3.02 0 01-3.13-3.07zm1.46 0c0 .9.53 1.87 1.67 1.87s1.67-.97 1.67-1.87c0-.9-.53-1.85-1.67-1.85s-1.67.95-1.67 1.85zm5.84 2.9V4.24h1.38v.96h.02c.32-.66.93-1.13 1.68-1.13.11 0 .26.01.35.04v1.32c-.19-.05-.31-.06-.44-.06-1.3 0-1.55 1.13-1.55 1.55V10h-1.44zm10.74-5.05l-.93.83a1.63 1.63 0 00-1.26-.63c-.46 0-.93.17-.93.63 0 .44.45.56 1.25.75.85.2 1.86.59 1.86 1.72 0 1.4-1.14 1.92-2.4 1.92-.89 0-1.81-.34-2.36-.95l.94-.89c.32.41.86.72 1.48.72.42 0 .93-.17.93-.68 0-.48-.45-.63-1.32-.83-.86-.2-1.7-.55-1.7-1.63 0-1.29 1.14-1.84 2.28-1.84.83 0 1.7.29 2.16.88zm7.76-.88c1.5 0 2.12 1.15 2.12 2.33V10h-1.44V6.8c0-.68-.15-1.53-1.08-1.53-.9 0-1.27.84-1.27 1.59V10h-1.44V6.52c0-.7-.34-1.25-1.07-1.25-.86 0-1.26.8-1.26 1.56V10h-1.44V4.24h1.37v.92h.03a1.9 1.9 0 011.78-1.09c.9 0 1.48.45 1.8 1.1.39-.7 1.03-1.1 1.9-1.1zm7.01 5.93v-.73h-.03c-.29.5-.97.87-1.79.87-.92 0-2.16-.44-2.16-1.78 0-1.72 2.16-1.96 3.96-1.96v-.14c0-.71-.6-1.06-1.32-1.06-.61 0-1.2.29-1.57.66l-.75-.88c.65-.6 1.56-.9 2.44-.9 2.06 0 2.57 1.26 2.57 2.42V10h-1.34zm-.02-2.42v-.2h-.32c-.91 0-2.2.1-2.2.95 0 .55.52.72 1 .72 1 0 1.52-.56 1.52-1.47zm2.71 2.42V.93h1.44V10h-1.44zm2.85 0V.93h1.44V10h-1.44zm5.5-9.07h1.43v4.04h.04c.3-.37.88-.9 1.93-.9 1.65 0 2.8 1.32 2.8 3.03 0 1.68-1.08 3.07-2.84 3.07a2.3 2.3 0 01-1.97-1.03h-.03V10H158V.93zm4.73 6.17c0-.9-.54-1.85-1.65-1.85-1.06 0-1.7.97-1.7 1.87 0 .9.64 1.85 1.7 1.85 1.11 0 1.65-.97 1.65-1.87zm7.75-2.86V10h-1.37v-.92h-.02c-.25.57-.94 1.09-1.79 1.09-1.5 0-2.12-1.15-2.12-2.33v-3.6h1.44v3.2c0 .68.15 1.53 1.08 1.53.91 0 1.34-.8 1.34-1.56V4.24h1.44zm5.46.7l-.93.84a1.63 1.63 0 00-1.26-.63c-.46 0-.93.17-.93.63 0 .44.45.56 1.25.75.85.2 1.86.59 1.86 1.72 0 1.4-1.14 1.92-2.4 1.92-.89 0-1.81-.34-2.36-.95l.94-.89c.32.41.86.72 1.48.72.42 0 .92-.17.92-.68 0-.48-.44-.63-1.32-.83-.85-.2-1.7-.55-1.7-1.63 0-1.29 1.15-1.84 2.3-1.84.82 0 1.68.29 2.15.88zm.9 5.06V4.24h1.45V10h-1.44zm-.2-7.72c0-.45.39-.86.91-.86.53 0 .94.37.94.86 0 .5-.4.87-.94.87a.89.89 0 01-.9-.87zm3.03 7.72V4.24h1.37v.92h.02c.26-.57.94-1.09 1.8-1.09 1.5 0 2.12 1.15 2.12 2.33V10h-1.44V6.8c0-.68-.16-1.53-1.08-1.53-.91 0-1.35.8-1.35 1.56V10h-1.44zm7.73-3.46h2.95c0-.74-.42-1.39-1.35-1.39-.85 0-1.54.59-1.6 1.4zm4.4.65c0 .13 0 .25-.02.39h-4.38c.06.81.8 1.41 1.65 1.41.72 0 1.2-.29 1.52-.74l.96.77a2.87 2.87 0 01-2.47 1.15c-1.78 0-3.1-1.14-3.1-3.01 0-1.86 1.3-3.09 3.05-3.09 1.6 0 2.78 1.05 2.78 3.12zm5.12-2.24l-.94.83a1.63 1.63 0 00-1.26-.63c-.45 0-.92.17-.92.63 0 .44.44.56 1.25.75.85.2 1.86.59 1.86 1.72 0 1.4-1.14 1.92-2.4 1.92-.89 0-1.81-.34-2.37-.95l.95-.89c.31.41.85.72 1.48.72.42 0 .92-.17.92-.68 0-.48-.44-.63-1.32-.83-.85-.2-1.7-.55-1.7-1.63 0-1.29 1.15-1.84 2.29-1.84.83 0 1.7.29 2.16.88zm4.97 0l-.93.83a1.63 1.63 0 00-1.26-.63c-.46 0-.93.17-.93.63 0 .44.45.56 1.25.75.85.2 1.86.59 1.86 1.72 0 1.4-1.14 1.92-2.4 1.92-.89 0-1.81-.34-2.36-.95l.94-.89c.32.41.86.72 1.48.72.42 0 .92-.17.92-.68 0-.48-.44-.63-1.32-.83-.85-.2-1.7-.55-1.7-1.63 0-1.29 1.15-1.84 2.3-1.84.82 0 1.68.29 2.15.88zm1.99 1.6h2.95c0-.75-.42-1.4-1.36-1.4-.85 0-1.53.59-1.6 1.4zm4.39.64l-.01.39h-4.38c.06.81.8 1.41 1.64 1.41.72 0 1.2-.29 1.52-.74l.96.77a2.87 2.87 0 01-2.47 1.15c-1.77 0-3.1-1.14-3.1-3.01 0-1.86 1.31-3.09 3.05-3.09 1.61 0 2.79 1.05 2.79 3.12zm5.13-2.24l-.94.83a1.63 1.63 0 00-1.26-.63c-.46 0-.93.17-.93.63 0 .44.45.56 1.25.75.85.2 1.86.59 1.86 1.72 0 1.4-1.14 1.92-2.4 1.92-.89 0-1.8-.34-2.36-.95l.95-.89c.3.41.85.72 1.47.72.42 0 .93-.17.93-.68 0-.48-.45-.63-1.32-.83-.85-.2-1.7-.55-1.7-1.63 0-1.29 1.14-1.84 2.28-1.84.83 0 1.7.29 2.16.88z" fill="#fff"/></svg>