<svg width="100" height="123" viewBox="0 0 100 123" fill="none" xmlns="http://www.w3.org/2000/svg"><path d="M78.21 23.16l.94 2.55m1.2-1.48l1.21 3.5m1.34-2.02l1.34 5.63M23.32 73.52v-2.08m-2.5 2.7l.01-3.67m-2.9 4.28l.58-5.75" stroke="#14324F" stroke-width=".28" stroke-linecap="round"/><path d="M72.77 104.3c-1.1-.52-1.9.02-2.15.36-.29.21-.47 1.3.69 1.84 1.44.67 1.81-.04 1.94-.26.12-.21.9-1.28-.48-1.93zM70.86 109.32c-.43-.21-.42-.74-.36-.98.2-.4.62-.3 1-.09.4.22.13.8.09.84-.04.05-.2.5-.73.23z" stroke="#14324F" stroke-width=".43" stroke-linejoin="round"/><path d="M83.4 85.17c2.56-.17 10.35 1.62 12.26 5.45M14.79 114.77c-.33-3.13-2.82-12.47-3.68-17.88 3.57-.32 17.34-5.14 31.38-4.29 19.8 1.2 30.64 8.65 34.1 11.12-.42 2.28-.91 3.91-1.8 7.14-.88 3.22-3.84 8.53-3.89 9.93-3.47-1.44-13.79-6.8-17.53-7.63-4.68-1.03-12.59-2.16-17.52-1.78-5.84.46-15.7 3.1-21.06 3.39zM21.74 73.45l.07 7.48c6.16-1.46 10.29-4.88 24.77-4 10.3.63 13.67.6 18.95 2.28a50.95 50.95 0 0112.7 6.22m0 0l.28-4.8m-.29 4.8l3.72-2.16" stroke="#14324F" stroke-width="1.07" stroke-linejoin="round"/><path d="M76.37 103.92L95.75 90.3l-4.72 13.34L71 120.73m-59.7-23.7l16.18-8.2m42.48 1.8l13.92-6.59-.5 2.25-14.66 7.58m-41.87-6.38L40.52 82" stroke="#14324F" stroke-width="1.07" stroke-linejoin="round"/><path d="M37.5 77.04c.6 1.22 5.1 4.44 14.42 5.37 9.31.94 16.56-.86 17.87-1.72" stroke="#14324F" stroke-width=".43" stroke-linejoin="round"/><path d="M42.95 80.5c-.8.05-2.42.5-2.42 1.6-.01 1.39 9.03 2.55 12.91 2.86 3.9.31 9.71.79 11.47.32 1.5-.4 2.3-1.9-1-3.08" stroke="#14324F" stroke-width=".43" stroke-linejoin="round"/><path d="M27.26 90.25l-.3-2.68c3.25-.85 14.41-2.03 21.95-1.09 6.86.86 15.97 2.8 21.23 4.16l-1.22 3.07c-8.77-3.9-31.7-5.52-41.66-3.46zM23.66 41.7l.84-13.79c4.66-2 19.13-4.5 31.35-3.64 9.78.69 23.36 5.76 25.19 8 .46 5.05-.7 13.57-1.06 17.49-.28 3.13-.7 16.08-1.37 22.68-2.95-2.49-12.7-7.7-28.05-8.62-15.35-.94-25.36 1.86-28.44 3.38.94-7.62 1.27-20.93 1.54-25.5z" stroke="#14324F" stroke-width="1.07" stroke-linejoin="round"/><path d="M83.91 84.43c.7-9.23 2.26-28.64 2.83-32.4.57-3.76.8-14.65 1.4-23.31m-4.23 55.7l6.8-6.14c.07-2.7.68-5.17.8-9.03.26-8.14.6-17.12.87-19.68.31-2.9.23-6.38.83-13.7l-5.07-7.15m-4.23 55.7c-2.28-.4-11.64-11.66-29.95-12.77-21.62-1.31-27.4.77-38.8 3.96l3.21-52.87c4.98-2.59 22.96-6.12 30.7-5.65 6.18.37 25.78.78 39.07 11.63" stroke="#14324F" stroke-width="1.07" stroke-linejoin="round"/><path d="M90.68 76.16c.36-7.75.78-16.32.98-18.77.23-2.77.88-11.76 1.38-18.75 2.32 3 2.57 2.74 2.76 5.32.2 2.58-.62 17.66-.75 19.71-.12 2.05-.35 5.85-.84 6.64-.4.63-2.52 4.17-3.53 5.85zM66.23 74.23a61.89 61.89 0 011.47-3.32c.14-.2 2.75.78 4.04 1.29l-1.32 3.6" stroke="#14324F" stroke-width="1.07" stroke-linejoin="round"/><path d="M94.31 67.38c-3.87 1.37-5.82-1.57-5.7-5.79.07-3.02-3.74-6.26-5.5-7.72 10-.66 15.07 12.14 11.2 13.51zM11.74 46.09c1.68 1.56 3.32.35 4.19-2 .62-1.69 3.28-2.68 4.5-3.12-4.98-2.45-10.38 3.56-8.7 5.12z" fill="#EAF6F7" stroke="#14324F" stroke-width=".43" stroke-linejoin="round"/><path d="M19.72 104.33l-.57-3.08a93.9 93.9 0 0112.77-.89l-.1-1.44c8.59-1.09 20.66.96 23.9 2.52l-.42 1.4a63.4 63.4 0 0111.65 3.85l-.66 2.55c-3.32-1.38-9.36-2.79-11.7-3.3l-.43 1.65c-6.16-2.1-17.8-2.17-22.33-1.98l-.1-1.9c-4.73-.3-9.98.29-12.01.62zM56.45 109.98l.27-.93c.07-.25.3-.41.56-.38 1.27.19 3.42.82 4.72 1.32.27.1.4.38.32.65l-.23.78c-.1.3-.42.47-.72.37a47.88 47.88 0 00-4.5-1.11.56.56 0 01-.42-.7z" stroke="#14324F" stroke-width=".43" stroke-linejoin="round"/><path d="M22.25 66.96l2.55-2.64m0 0c4.57-1.4 16.23-3.84 26.27-2.47 12.56 1.72 21.63 4.42 27.51 8.53M24.8 64.32c.37-6.56 1.08-20.35.92-22.97-.16-2.63.5-10.36.84-13.9" stroke="#14324F" stroke-width=".39" stroke-linecap="round" stroke-linejoin="round"/><path d="M8.7 53.71c-1.12 4.73-1.05 14.01 0 16.96M3.1 59.09c-.13 2.35-.26 7.36.37 8.63" stroke="#14324F" stroke-width=".56" stroke-linecap="round"/><path d="M8.43 23.8c1.92-4.66 7.22-9.56 9.7-11.53l-1.15-1.44c-.84-.63 1.41-3.94 4.24-5.57 3.62-2.09 5.97-2.4 6.83-1.57.09.07.18.17.24.29.27.37.54.92.8 1.5.67-1.23 2.42-2.6 6.04-2.83 3.5-.22 7.02 1.38 7.6 2.09 2.91-.46 6.7-.5 9.96.93 4.95 2.18 7.67 6.97 4.52 11.72 0 0-2.73-1.03-5.59-.39-2.36.25-5.43 15.31-15.7 8.22-2.58 3.55-7.43 6.82-14.5 5.74a7.23 7.23 0 01-3.33-1.26c-9.72 6.62-12.06-.09-9.66-5.9z" fill="#EAF6F7"/><path d="M18.13 12.27c-2.48 1.97-7.78 6.87-9.7 11.52-2.4 5.82-.06 12.53 9.66 5.91m-.83-6.94c-1.21 2.33-2.07 7.24 4.15 8.2 7.08 1.08 11.93-2.2 14.51-5.74m4.6-5.63c-.44.48-1.84 2.1-3.87 4.66l-.73.97m0 0c10.27 7.09 13.34-7.97 15.7-8.22 2.87-.64 5.6.39 5.6.39 3.14-4.75.42-9.54-4.53-11.72-3.25-1.44-7.05-1.39-9.96-.93m-3.6.87c.84-.3 2.1-.64 3.6-.87m0 0c-.58-.7-4.1-2.31-7.6-2.09-3.62.23-5.37 1.6-6.04 2.84m-9.54 8.56l-2.57-3.22m0 0c-.84-.63 1.41-3.94 4.24-5.57 3.62-2.09 5.97-2.4 6.83-1.57m-11.07 7.14c.42.49 2.45.77 7.2-2.02s4.56-4.58 3.87-5.12m0 0c.68.66 1.52 2.93 1.85 3.98m3.6-.69c-1.68-.32-5.57.46-8.75 5.7m-.96 1.76c.31-.64.63-1.22.96-1.77m-10 5.02c.3-1.15 2.72-3.76 10-5.02m0 0c-3.18 1.12-5.41 4.05-6.13 5.38" stroke="#14324F" stroke-width=".77" stroke-linecap="round"/><path d="M54.86 48.86v3.02h-5.21v-3.02h-8.23v-4.68l6.47-9.38h6.94v9.58h2.32v4.48h-2.3zm-5.14-8.8h-.1l-2.84 4.32h2.94v-4.32z" fill="#14324F"/></svg>