<svg width="96" height="24" viewBox="0 0 96 24" fill="none" xmlns="http://www.w3.org/2000/svg"><path d="M2.05 10l-2-5.76H1.6l1.2 4.13h.02l1.24-4.13H5.6l1.25 4.13h.03L8.1 4.24h1.5L7.6 10H6.15l-1.3-4.03H4.8L3.51 10H2.06zm8 0V4.24h1.44V10h-1.44zm-.2-7.72c0-.45.38-.86.91-.86s.94.37.94.86c0 .5-.41.87-.94.87a.89.89 0 01-.91-.87zm3.09 3.11h-1V4.24h1V2.57h1.42v1.67h1.44v1.15h-1.44v2.68c0 .51.12.89.75.89.2 0 .45-.04.61-.12l.05 1.12c-.25.1-.63.16-.96.16-1.52 0-1.87-.94-1.87-2.04V5.39zm6.62-1.32c1.5 0 2.13 1.15 2.13 2.33V10h-1.44V6.83c0-.68-.15-1.52-1.07-1.52-.91 0-1.36.78-1.36 1.55V10h-1.44V.93h1.44v4.11h.03a1.9 1.9 0 011.71-.97zm15.07 4.7V10h-5.12c-2.71 0-4.52-1.6-4.52-4.36 0-2.58 1.94-4.35 4.54-4.35s4.52 1.77 4.52 4.35c0 1.53-.76 2.57-1.52 3.11v.03h2.1zm-5.1-6.13c-1.64 0-2.89 1.28-2.89 3 0 1.82 1.17 3.04 2.87 3.04 1.68 0 2.9-1.22 2.9-3.04 0-1.72-1.16-3-2.88-3zm10.87 1.6V10h-1.37v-.92h-.02c-.25.57-.94 1.09-1.79 1.09-1.5 0-2.12-1.15-2.12-2.33v-3.6h1.44v3.2c0 .68.15 1.53 1.08 1.53.9 0 1.34-.8 1.34-1.56V4.24h1.44zM41.67 10V4.24h1.44V10h-1.44zm-.2-7.72c0-.45.38-.86.91-.86s.94.37.94.86c0 .5-.41.87-.94.87a.89.89 0 01-.91-.87zm7.83 2.7l-.98.86a1.53 1.53 0 00-1.2-.57c-1.05 0-1.58.95-1.58 1.85 0 .9.54 1.85 1.64 1.85.44 0 .93-.18 1.2-.52l.9.91a2.9 2.9 0 01-2.12.8c-1.7 0-3.12-1.12-3.12-3.04 0-1.87 1.4-3.05 3.09-3.05.84 0 1.71.34 2.17.9zm.48 5.02V.93h1.44v5.73h.04l2.18-2.42h1.85l-2.5 2.6L55.45 10h-1.91l-2.28-2.95h-.04V10h-1.44zm6.09 0V1.5h3.3c1.3 0 2.61.6 2.61 2.14 0 .96-.6 1.6-1.47 1.86v.02c1.06.15 1.83.87 1.83 2 0 1.86-1.6 2.48-3.21 2.48h-3.06zm1.5-7.25v2.21h1.35c1.01 0 1.55-.42 1.55-1.15 0-.76-.54-1.06-1.68-1.06h-1.21zm0 3.5v2.48h1.36c.78 0 1.9-.16 1.9-1.27 0-.9-.61-1.2-1.84-1.2h-1.41zm5.38.85c0-1.82 1.39-3.03 3.13-3.03s3.13 1.21 3.13 3.03c0 1.8-1.39 3.07-3.13 3.07a3.02 3.02 0 01-3.13-3.07zm1.46 0c0 .9.53 1.87 1.67 1.87S67.55 8 67.55 7.1c0-.9-.53-1.85-1.67-1.85s-1.67.95-1.67 1.85zm5.38 0c0-1.82 1.4-3.03 3.13-3.03 1.74 0 3.14 1.21 3.14 3.03 0 1.8-1.4 3.07-3.14 3.07A3.02 3.02 0 0169.6 7.1zm1.47 0c0 .9.52 1.87 1.66 1.87S74.4 8 74.4 7.1c0-.9-.53-1.85-1.67-1.85s-1.66.95-1.66 1.85zM76.8 10V.93h1.44v5.73h.03l2.19-2.42h1.84l-2.5 2.6L82.47 10h-1.9l-2.29-2.95h-.03V10H76.8zm10.03-5.05l-.94.83a1.63 1.63 0 00-1.26-.63c-.45 0-.92.17-.92.63 0 .44.44.56 1.25.75.85.2 1.86.59 1.86 1.72 0 1.4-1.14 1.92-2.4 1.92-.89 0-1.81-.34-2.37-.95l.95-.89c.31.41.85.72 1.48.72.42 0 .92-.17.92-.68 0-.48-.44-.63-1.32-.83-.85-.2-1.7-.55-1.7-1.63 0-1.29 1.15-1.84 2.29-1.84.83 0 1.7.29 2.16.88zM.53 18.73c0-2.73 1.93-4.44 4.55-4.44 2.65 0 4.58 1.71 4.58 4.44 0 2.65-1.93 4.49-4.58 4.49a4.35 4.35 0 01-4.55-4.5zm1.64 0c0 1.81 1.19 3.13 2.92 3.13 1.74 0 2.93-1.32 2.93-3.13 0-1.75-1.17-3.11-2.93-3.11-1.75 0-2.92 1.36-2.92 3.1zm8.4 4.27v-5.76h1.37v.92h.02c.25-.57.94-1.09 1.79-1.09 1.5 0 2.12 1.15 2.12 2.33V23h-1.44v-3.2c0-.68-.15-1.53-1.08-1.53-.91 0-1.34.8-1.34 1.56V23h-1.44zm6.53 0v-9.07h1.44V23H17.1zm2.73 0v-5.76h1.44V23h-1.44zm-.2-7.72c0-.45.38-.86.9-.86.53 0 .94.37.94.86 0 .5-.4.87-.94.87a.89.89 0 01-.9-.87zm2.9 7.72v-5.76h1.37v.92h.03c.25-.57.93-1.09 1.78-1.09 1.5 0 2.13 1.15 2.13 2.33V23H26.4v-3.2c0-.68-.16-1.53-1.08-1.53-.91 0-1.35.8-1.35 1.56V23h-1.44zm7.61-3.46h2.95c0-.74-.42-1.39-1.35-1.39-.85 0-1.54.59-1.6 1.4zm4.4.65c0 .13 0 .25-.02.39h-4.38c.06.81.8 1.41 1.65 1.41.72 0 1.2-.29 1.52-.74l.96.77a2.87 2.87 0 01-2.47 1.15c-1.78 0-3.1-1.14-3.1-3.01 0-1.86 1.31-3.09 3.05-3.09 1.6 0 2.78 1.05 2.78 3.12zM36.8 23l3.7-8.5h1.3l3.66 8.5h-1.73l-.79-1.94h-3.68L38.49 23h-1.7zm2.97-3.24h2.64l-1.3-3.46-1.34 3.46zm10.9-1.79l-.98.87a1.53 1.53 0 00-1.2-.57c-1.05 0-1.58.95-1.58 1.85 0 .9.54 1.85 1.64 1.85.44 0 .93-.18 1.2-.52l.9.91a2.9 2.9 0 01-2.12.8c-1.7 0-3.12-1.12-3.12-3.04 0-1.87 1.4-3.05 3.09-3.05.84 0 1.71.34 2.17.9zm5.38 0l-.98.87a1.53 1.53 0 00-1.2-.57c-1.05 0-1.58.95-1.58 1.85 0 .9.54 1.85 1.64 1.85.44 0 .93-.18 1.2-.52l.9.91a2.9 2.9 0 01-2.12.8c-1.7 0-3.12-1.12-3.12-3.04 0-1.87 1.4-3.05 3.09-3.05.84 0 1.71.34 2.17.9zm.12 2.13c0-1.82 1.4-3.03 3.14-3.03 1.74 0 3.13 1.21 3.13 3.03 0 1.8-1.4 3.07-3.13 3.07a3.02 3.02 0 01-3.14-3.07zm1.47 0c0 .9.53 1.87 1.67 1.87s1.66-.97 1.66-1.87c0-.9-.52-1.85-1.66-1.85s-1.67.95-1.67 1.85zm10.97-2.86V23h-1.37v-.92h-.02c-.25.57-.94 1.09-1.79 1.09-1.5 0-2.12-1.15-2.12-2.33v-3.6h1.44v3.2c0 .68.15 1.53 1.08 1.53.9 0 1.34-.8 1.34-1.56v-3.17h1.44zM69.86 23v-5.76h1.37v.92h.02c.25-.57.94-1.09 1.79-1.09 1.5 0 2.12 1.15 2.12 2.33V23h-1.44v-3.2c0-.68-.15-1.53-1.08-1.53-.91 0-1.34.8-1.34 1.56V23h-1.44zm6.68-4.6h-1v-1.16h1v-1.67h1.42v1.67h1.44v1.15h-1.44v2.68c0 .51.12.89.75.89.2 0 .45-.04.62-.12l.04 1.12c-.25.1-.63.16-.96.16-1.52 0-1.87-.94-1.87-2.04v-2.69zm7 4.6v-.73h-.04c-.29.5-.97.87-1.79.87-.92 0-2.16-.44-2.16-1.78 0-1.72 2.16-1.96 3.96-1.96v-.14c0-.71-.6-1.06-1.32-1.06-.61 0-1.2.29-1.57.66l-.74-.88c.64-.6 1.56-.9 2.43-.9 2.07 0 2.57 1.26 2.57 2.42V23h-1.34zm-.03-2.42v-.2h-.32c-.91 0-2.2.1-2.2.95 0 .55.52.72 1.01.72.98 0 1.51-.56 1.51-1.47zM86.08 23v-5.76h1.37v.92h.02c.25-.57.94-1.09 1.79-1.09 1.5 0 2.12 1.15 2.12 2.33V23h-1.44v-3.2c0-.68-.15-1.53-1.08-1.53-.91 0-1.34.8-1.34 1.56V23h-1.44zm6.68-4.6h-1v-1.16h1v-1.67h1.42v1.67h1.44v1.15h-1.44v2.68c0 .51.12.89.75.89.2 0 .45-.04.62-.12l.04 1.12c-.25.1-.63.16-.96.16-1.52 0-1.87-.94-1.87-2.04v-2.69z" fill="#3BD85E"/></svg>