<svg width="82" height="69" viewBox="0 0 82 69" fill="none" xmlns="http://www.w3.org/2000/svg"><g filter="url(#filter0_d_209_10883)"><ellipse cx="35.67" cy="25.38" rx="35.67" ry="25.38" transform="matrix(.99876 .04978 -.0377 .99929 8.54 4.58)" fill="#fff"/></g><path fill-rule="evenodd" clip-rule="evenodd" d="M46.98 5.22c-2.87-.23-6.76.02-6.83.41 0 .04.07.13.17.18.15.07 4.55.65 7.02.91.31.03 1.58.25 2.81.5 8.3 1.61 14.2 4 18.59 7.49.93.74 1.97 1.67 1.85 1.66-.03 0-.57-.32-1.2-.7a45.1 45.1 0 00-13.94-5.46 10.3 10.3 0 01-1.52-.46c-2.6-1.18-7.4-2.27-11.15-2.54-4.7-.34-10.36 0-14.92.9a31.05 31.05 0 00-10.53 4.02A25.17 25.17 0 007.8 23.88c-.65 1.7-.95 2.9-1.18 4.8-.33 2.7-.19 4.66.55 7.33a24.03 24.03 0 006.68 10.73c3.77 3.6 9.59 6.85 15.83 8.87 2.86.93 3.74 1.13 7.32 1.7 3.78.6 5.1.68 8.33.6a44.61 44.61 0 0018.97-5c7.48-3.9 12.88-9.37 15.09-15.33a22.81 22.81 0 001-6.15c-.16-4.03-1.63-7.37-4.79-10.8a11.7 11.7 0 01-1.2-1.58c-1.12-2-2.93-4.08-4.83-5.56a36.33 36.33 0 00-9.1-5.02C56.5 7 50.1 5.46 46.99 5.22zm-2.75 3.82c-7.32.14-12.89 1.34-18.87 4.05-5.59 2.53-9.67 6-12.06 10.28a15.13 15.13 0 00-1.98 6.05 14.3 14.3 0 00.2 5.06c1.34 6.3 5.52 11.48 12.22 15.14C29 52.5 34.58 53.97 41.3 54.25c8.38.35 16.03-1.23 22.07-4.58 6.59-3.65 10.83-8.31 12.92-14.18a18.92 18.92 0 00.5-10.16l-.23-1.05.53.86c2.25 3.65 2.5 8.3.7 12.7-2.72 6.69-10.29 12.88-19.72 16.14a41.87 41.87 0 01-17.7 2.2c-9.3-.76-19.5-5-25.45-10.55a23.68 23.68 0 01-6.05-8.98c-1.89-5.45-1-11.3 2.55-16.58a22.38 22.38 0 014.8-5.19c3.26-2.63 6.87-4.2 11.93-5.2a59.3 59.3 0 0113.43-.95l1.43.08c.18 0 .66.06 1.04.12l.7.1-.52.01zm12.33 3.1c6.69 1.7 12.36 4.5 16.4 8.09.88.77.98.9 1.33 1.72.44 1 1.05 3.06 1.28 4.26 1.03 5.45-.42 10.63-4.3 15.32a23.45 23.45 0 01-4 3.84c-5.1 3.99-10.98 6.3-18.1 7.14-2.8.32-5.33.38-8.7.2a61.3 61.3 0 01-8.9-1.45c-6.47-2-11.77-5.3-14.94-9.3a23.27 23.27 0 01-2.55-4.18c-.6-1.36-1.3-3.9-1.41-5.16-.62-6.8 3.62-13.14 11.51-17.23a46.31 46.31 0 017.54-3.01A48.45 48.45 0 0149.3 10.9c1.64.15 5.62.83 7.26 1.25z" fill="#3BD85E"/><path d="M30.9 24.5l-3.95.4.2 1.95 3.64-.37.19 1.88-3.65.36.37 3.66-2.25.23-.94-9.42 6.2-.62.2 1.94zm4.21 7.14l-2.28.23-.95-9.42 2.3-.23.93 9.42zm10.23-1.02l-2.58.25-4.41-5.78h-.04l.67 6.16-2.21.22-.94-9.42 2.59-.26 4.4 5.77h.03l-.67-6.14 2.21-.22.95 9.42zm10.56-1.06l-2.53.25-.91-1.77-3.65.36-.5 1.92-2.48.25 3-9.82 2.22-.22 4.85 9.03zm-4.25-3.29l-1.5-3.11-.87 3.35 2.37-.24zm10.67 2.64l-5.93.6-.95-9.42 2.3-.23.74 7.44 3.64-.37.2 1.98zm-28.1 12.1c.33 3.32-2.22 5.01-4.81 5.27l-3.51.35-.95-9.42 3.4-.34c2.68-.27 5.5.58 5.87 4.15zm-2.37.24c-.21-2.11-1.78-2.59-3.35-2.43l-1.13.11.55 5.51 1.08-.1c1.62-.17 3.06-.99 2.85-3.09zm12.65 3.52l-2.53.25-.92-1.77-3.64.36-.51 1.92-2.48.25 3.01-9.82 2.21-.22 4.86 9.03zm-4.26-3.28l-1.5-3.12-.87 3.35 2.37-.23zm11.2-6.93l-3.07 5.8.4 3.98-2.28.23-.4-4-4.08-5.06 2.75-.28 2.36 3.28 1.66-3.68 2.66-.27zm6.93.23l-1.3 1.68a2.3 2.3 0 00-1.75-.64c-.59.05-1.3.33-1.23 1.07.07.63.65.77 1.56.96 1.32.29 3.03.67 3.22 2.54.21 2.17-1.43 3.32-3.3 3.5a5 5 0 01-3.66-1l1.34-1.67a2.8 2.8 0 002.14.8c.69-.07 1.27-.4 1.2-1.16-.07-.72-.82-.87-2.1-1.15-1.23-.26-2.5-.75-2.67-2.46-.21-2.08 1.6-3.14 3.35-3.31 1.06-.11 2.3.17 3.2.84zm4.2 4.99l-2.24.22-.63-6.27 2.24-.22.62 6.27zm.38 2c.07.7-.46 1.32-1.18 1.4-.69.06-1.34-.42-1.41-1.13-.07-.69.44-1.32 1.16-1.39.72-.07 1.36.43 1.43 1.12z" fill="#14324F"/><path fill-rule="evenodd" clip-rule="evenodd" d="M12.04 10.59c.27.1.38.29.4.67 0 .37-.26.64-.92.93-1.66.74-4.63 4.65-6.47 8.54-.86 1.82-1.12 2.29-1.33 2.3-.22 0-.25-.1-.3-.85a6.87 6.87 0 01.71-3.34c1.24-2.77 4.6-7.1 6.09-7.85.67-.34 1.5-.52 1.82-.4zM3.09 12.05c.32.33.27.67-.18 1.62-.28.58-.45 1.2-.54 1.86-.18 1.49-.53 3.31-.69 3.61-.09.17-.21.18-.37.04-.31-.3-.59-2.24-.55-3.9.02-1 .08-1.34.36-1.94.6-1.31 1.43-1.86 1.96-1.3z" fill="#14324F"/><defs><filter id="filter0_d_209_10883" x="5.18" y="5.09" width="76.06" height="55.63" filterUnits="userSpaceOnUse" color-interpolation-filters="sRGB"><feFlood flood-opacity="0" result="BackgroundImageFix"/><feColorMatrix in="SourceAlpha" values="0 0 0 0 0 0 0 0 0 0 0 0 0 0 0 0 0 0 127 0" result="hardAlpha"/><feOffset dy="1.2"/><feGaussianBlur stdDeviation="1.2"/><feComposite in2="hardAlpha" operator="out"/><feColorMatrix values="0 0 0 0 0 0 0 0 0 0 0 0 0 0 0 0 0 0 0.25 0"/><feBlend in2="BackgroundImageFix" result="effect1_dropShadow_209_10883"/><feBlend in="SourceGraphic" in2="effect1_dropShadow_209_10883" result="shape"/></filter></defs></svg>