<svg width="112" height="86" viewBox="0 0 112 86" fill="none" xmlns="http://www.w3.org/2000/svg"><path d="M5.64 7h-.1l.22 8H1.32V.84h6.22l2.56 7.62h.1L12.42.84h6.42V15h-4.62l.14-7.96-.12-.02L11.6 15H8.24l-2.6-8zm20.66 3.64h-.26c-1.36 0-2.26.24-2.26 1.04 0 .58.62.82 1.06.82.88 0 1.46-.62 1.46-1.5v-.36zM26 8.36v-.04c0-.64-.48-.94-1.2-.94-.84 0-1.64.42-2.22.9L20.28 6a7.31 7.31 0 015-1.92c4 0 5.06 2.42 5.06 5.38V15h-4.18v-.84h-.04c-.52.8-1.66 1.12-2.58 1.12-1.64 0-3.66-.88-3.66-3.38 0-2.94 3.34-3.54 6.12-3.54zM31.43 15V4.48h4.5v1.16h.04a3.66 3.66 0 013-1.44c2.96 0 3.76 2.32 3.76 4.4V15H38.1V9.4c0-1.06-.34-1.44-1-1.44-.6 0-1.04.52-1.04 1.44V15h-4.62zm18.4-4.36h-.26c-1.36 0-2.26.24-2.26 1.04 0 .58.62.82 1.06.82.88 0 1.46-.62 1.46-1.5v-.36zm-.3-2.28v-.04c0-.64-.48-.94-1.2-.94-.84 0-1.64.42-2.22.9L43.81 6a7.31 7.31 0 015-1.92c4 0 5.06 2.42 5.06 5.38V15H49.7v-.84h-.04c-.52.8-1.66 1.12-2.58 1.12-1.64 0-3.66-.88-3.66-3.38 0-2.94 3.34-3.54 6.12-3.54zm5.02 1.34c0-2.7 1.66-5.5 4.8-5.5 1.1 0 2.3.42 2.98 1.34h.06V4.48h4.34v9.44c0 4.6-3.28 5.88-6.56 5.88-2 0-4.14-.54-5.62-1.54l2.02-3.06c1 .78 2.2 1.12 3.2 1.12 1.34 0 2.48-.7 2.48-1.98v-.46h-.06A3.86 3.86 0 0159.35 15c-3.24 0-4.8-2.46-4.8-5.3zm4.28 0c0 1 .62 1.78 1.72 1.78 1.08 0 1.8-.8 1.8-1.78 0-.92-.72-1.74-1.8-1.74-1.1 0-1.72.82-1.72 1.74zm13.1-1.36h3.18c0-.74-.6-1.28-1.52-1.28-1.02 0-1.58.7-1.66 1.28zm7.16 1.5c0 .34-.02.74-.04.98h-7.08c.08.74.96 1.2 1.8 1.2.84 0 1.44-.38 1.72-.74l3.28 1.66c-.92 1.5-2.78 2.46-5.12 2.46-3.06 0-5.96-1.94-5.96-5.66 0-3.48 2.62-5.66 5.86-5.66 3.3 0 5.54 2.44 5.54 5.76zM1.08 37V26.48H5.7V37H1.08zM1 23.44c0-1.28 1.1-2.36 2.42-2.36a2.4 2.4 0 012.36 2.36c0 1.32-1.1 2.34-2.36 2.34A2.37 2.37 0 011 23.44zM7.04 37V26.48h4.5v1.16h.04a3.66 3.66 0 013-1.44c2.96 0 3.76 2.32 3.76 4.4V37H13.7v-5.6c0-1.06-.34-1.44-1-1.44-.6 0-1.04.52-1.04 1.44V37H7.04zm15.3 0l-4-10.52h5.12l1.5 5.68h.08l1.44-5.68h4.94L27.36 37h-5.02zm20.75-5.3c0 3.64-2.84 5.7-6.02 5.7-3.16 0-5.98-2.06-5.98-5.7 0-3.6 2.82-5.62 5.98-5.62 3.18 0 6.02 2.02 6.02 5.62zm-6.02-1.74c-1 0-1.7.82-1.7 1.74a1.72 1.72 0 103.44 0c0-.92-.74-1.74-1.74-1.74zM44.01 37V26.48h4.62V37h-4.62zm-.08-13.56c0-1.28 1.1-2.36 2.42-2.36a2.4 2.4 0 012.36 2.36c0 1.32-1.1 2.34-2.36 2.34a2.37 2.37 0 01-2.42-2.34zM55.7 37.4c-3.56 0-6.14-2.22-6.14-5.66 0-3.42 2.68-5.66 6.2-5.66 1.44 0 3.02.52 3.82 1.14l-2.3 3.32c-.32-.38-.9-.58-1.38-.58-.88 0-1.8.6-1.8 1.78 0 1.18.92 1.74 1.8 1.74.54 0 1.08-.22 1.4-.56l2.32 3.24a6.63 6.63 0 01-3.92 1.24zm7.83-7.06h3.18c0-.74-.6-1.28-1.52-1.28-1.02 0-1.58.7-1.66 1.28zm7.16 1.5c0 .34-.02.74-.04.98h-7.08c.08.74.96 1.2 1.8 1.2.84 0 1.44-.38 1.72-.74l3.28 1.66c-.92 1.5-2.78 2.46-5.12 2.46-3.06 0-5.96-1.94-5.96-5.66 0-3.48 2.62-5.66 5.86-5.66 3.3 0 5.54 2.44 5.54 5.76zm9.44 1.82c0 2.82-2.7 3.74-4.66 3.74-1.8 0-3.68-.54-4.94-1.5l2.26-2.62a3.8 3.8 0 002.38.98c.32 0 .66-.1.66-.42 0-.34-.44-.5-1.66-.78-1.32-.3-2.96-1.18-2.96-3.2 0-2.74 2.7-3.78 4.62-3.78 1.62 0 3.3.5 4.58 1.36l-2.16 2.58a3.94 3.94 0 00-2.04-.68c-.44 0-.78.1-.78.44 0 .26.2.36 1.4.6 1.66.34 3.3 1.26 3.3 3.28zm3.77 5.74h-3.72l1.64-6.26h4.36l-2.28 6.26zM4.88 52.34h3.18c0-.74-.6-1.28-1.52-1.28-1.02 0-1.58.7-1.66 1.28zm7.16 1.5c0 .34-.02.74-.04.98H4.92c.08.74.96 1.2 1.8 1.2.84 0 1.44-.38 1.72-.74l3.28 1.66c-.92 1.5-2.78 2.46-5.12 2.46-3.06 0-5.96-1.94-5.96-5.66 0-3.48 2.62-5.66 5.86-5.66 3.3 0 5.54 2.44 5.54 5.76zM19.57 59l-1.62-2.38L16.23 59h-5.2l4.06-5.4-3.78-5.12h5.24l1.52 2.2 1.5-2.2h5.08l-3.78 5.12 3.98 5.4h-5.28zm12.78.28c-1.04 0-2.14-.4-2.78-1.1h-.04v5.62h-4.58V48.48h4.34v1.06h.04a4.12 4.12 0 013-1.34c3.14 0 4.8 2.8 4.8 5.5 0 2.78-1.64 5.58-4.78 5.58zm.5-5.58c0-.92-.62-1.74-1.72-1.74-1.08 0-1.8.82-1.8 1.74 0 .98.72 1.78 1.8 1.78 1.1 0 1.72-.78 1.72-1.78zm9-1.36h3.18c0-.74-.6-1.28-1.52-1.28-1.02 0-1.57.7-1.66 1.28zm7.16 1.5c0 .34-.02.74-.03.98H41.9c.08.74.95 1.2 1.8 1.2.83 0 1.43-.38 1.71-.74l3.29 1.66c-.93 1.5-2.79 2.46-5.13 2.46-3.05 0-5.95-1.94-5.95-5.66 0-3.48 2.62-5.66 5.86-5.66 3.3 0 5.54 2.44 5.54 5.76zm.82 5.16V48.48h4.5v1.16h.04a3.66 3.66 0 013-1.44c2.96 0 3.76 2.32 3.76 4.4V59H56.5v-5.6c0-1.06-.34-1.44-1-1.44-.6 0-1.04.52-1.04 1.44V59h-4.62zm21.14-3.34c0 2.82-2.7 3.74-4.66 3.74-1.8 0-3.68-.54-4.94-1.5l2.26-2.62a3.8 3.8 0 002.38.98c.32 0 .66-.1.66-.42 0-.34-.44-.5-1.66-.78-1.32-.3-2.96-1.18-2.96-3.2 0-2.74 2.7-3.78 4.62-3.78 1.62 0 3.3.5 4.58 1.36l-2.16 2.58a3.94 3.94 0 00-2.04-.68c-.44 0-.78.1-.78.44 0 .26.2.36 1.4.6 1.66.34 3.3 1.26 3.3 3.28zm4.66-3.32h3.18c0-.74-.6-1.28-1.52-1.28-1.02 0-1.58.7-1.66 1.28zm7.16 1.5c0 .34-.02.74-.04.98h-7.08c.08.74.96 1.2 1.8 1.2.84 0 1.44-.38 1.72-.74l3.28 1.66c-.92 1.5-2.78 2.46-5.12 2.46-3.06 0-5.96-1.94-5.96-5.66 0-3.48 2.62-5.66 5.86-5.66 3.3 0 5.54 2.44 5.54 5.76zm9.43 1.82c0 2.82-2.7 3.74-4.66 3.74-1.8 0-3.68-.54-4.94-1.5l2.26-2.62a3.8 3.8 0 002.38.98c.32 0 .66-.1.66-.42 0-.34-.44-.5-1.66-.78-1.32-.3-2.96-1.18-2.96-3.2 0-2.74 2.7-3.78 4.62-3.78 1.62 0 3.3.5 4.58 1.36l-2.16 2.58a3.94 3.94 0 00-2.04-.68c-.44 0-.78.1-.78.44 0 .26.2.36 1.4.6 1.66.34 3.3 1.26 3.3 3.28zM6.94 76.64h-.26c-1.36 0-2.26.24-2.26 1.04 0 .58.62.82 1.06.82.88 0 1.46-.62 1.46-1.5v-.36zm-.3-2.28v-.04c0-.64-.48-.94-1.2-.94-.84 0-1.64.42-2.22.9L.92 72a7.31 7.31 0 015-1.92c4 0 5.06 2.42 5.06 5.38V81H6.8v-.84h-.04c-.52.8-1.66 1.12-2.58 1.12-1.64 0-3.66-.88-3.66-3.38 0-2.94 3.34-3.54 6.12-3.54zM12.08 81V70.48h4.5v1.16h.04a3.66 3.66 0 013-1.44c2.96 0 3.76 2.32 3.76 4.4V81h-4.64v-5.6c0-1.06-.34-1.44-1-1.44-.6 0-1.04.52-1.04 1.44V81h-4.62zm12.1-5.3c0-2.7 1.66-5.5 4.8-5.5 1 0 2.12.4 2.74 1.12h.04v-5.44h4.6V81h-4.14v-1.1h-.04c-.6.84-1.9 1.38-3.2 1.38-3.14 0-4.8-2.8-4.8-5.58zm4.28 0c0 1 .62 1.78 1.72 1.78 1.08 0 1.8-.8 1.8-1.78 0-.92-.72-1.74-1.8-1.74-1.1 0-1.72.82-1.72 1.74zM41.88 81V70.48h4.44v1.2h.04a2.89 2.89 0 012.58-1.48c.34 0 .68.04.88.1l-.36 3.92a3.99 3.99 0 00-.98-.12c-1.2 0-1.98.8-1.98 1.8V81h-4.62zm11.58-6.66h3.18c0-.74-.6-1.28-1.52-1.28-1.02 0-1.58.7-1.66 1.28zm7.16 1.5c0 .34-.02.74-.04.98H53.5c.08.74.96 1.2 1.8 1.2.84 0 1.44-.38 1.72-.74l3.28 1.66c-.92 1.5-2.78 2.46-5.12 2.46-3.06 0-5.96-1.94-5.96-5.66 0-3.48 2.62-5.66 5.86-5.66 3.3 0 5.54 2.44 5.54 5.76zm8.22 5.44c-1.04 0-2.14-.4-2.78-1.1h-.04v5.62h-4.58V70.48h4.34v1.06h.04a4.12 4.12 0 013-1.34c3.14 0 4.8 2.8 4.8 5.5 0 2.78-1.64 5.58-4.78 5.58zm.5-5.58c0-.92-.62-1.74-1.72-1.74-1.08 0-1.8.82-1.8 1.74 0 .98.72 1.78 1.8 1.78 1.1 0 1.72-.78 1.72-1.78zm16.76 0c0 3.64-2.84 5.7-6.02 5.7-3.16 0-5.98-2.06-5.98-5.7 0-3.6 2.82-5.62 5.98-5.62 3.18 0 6.02 2.02 6.02 5.62zm-6.02-1.74c-1 0-1.7.82-1.7 1.74a1.72 1.72 0 103.44 0c0-.92-.74-1.74-1.74-1.74zM87 81V70.48h4.44v1.2h.04a2.89 2.89 0 012.58-1.48c.34 0 .68.04.88.1l-.36 3.92a3.99 3.99 0 00-.98-.12c-1.2 0-1.98.8-1.98 1.8V81H87zm12.46.28c-2.8 0-4.16-1.2-4.16-3.74v-3.76h-1.48v-3.3h1.46v-2.36h4.48v2.36h2.28v3.3h-2.28v2.8c0 1.02.46 1.3 1.24 1.3.3 0 .66-.06.84-.12v3.16c-.48.2-1.42.36-2.38.36zm11.65-3.62c0 2.82-2.7 3.74-4.66 3.74-1.8 0-3.68-.54-4.94-1.5l2.26-2.62a3.8 3.8 0 002.38.98c.32 0 .66-.1.66-.42 0-.34-.44-.5-1.66-.78-1.32-.3-2.96-1.18-2.96-3.2 0-2.74 2.7-3.78 4.62-3.78 1.62 0 3.3.5 4.58 1.36l-2.16 2.58a3.94 3.94 0 00-2.04-.68c-.44 0-.78.1-.78.44 0 .26.2.36 1.4.6 1.66.34 3.3 1.26 3.3 3.28z" fill="#fff"/></svg>